<svg xmlns="http://www.w3.org/2000/svg" viewBox="0 0 520.3 86"><path fill="rgba(255,255,255,0.9000000000000001)" d="M32.6 71.3c2.9-1 5.1-2.3 6.5-3.9 1.5-1.6 2.4-3.4 3-5.4.5-2 .8-4.2.8-6.7v-2.7c0-5.1-.4-8.8-1.1-11.2-.7-2.5-2-4.2-3.8-5.1-1.7-.9-4.5-1.4-8.3-1.7V34c3.3-.4 5.8-1.3 7.9-2.5 2.1-1.3 3.4-2.9 4.2-4.7.8-1.9 1.2-4.3 1.2-6.9V15c0-3.6-.6-6.5-1.8-8.6-1.1-2.2-3.4-3.8-6.5-4.8C31.5.5 27 0 21.1 0H0v72.7h21.4c4.6 0 8.3-.5 11.2-1.4zM17 10.1h3.4c1.3 0 2.6.4 3.8 1.3 1.1.9 1.7 2 1.7 3.4v9.6c0 1.5-.6 2.7-1.7 3.7s-2.6 1.4-4.3 1.4H17V10.1zm0 52.1V40h4.3c1.3 0 2.4.5 3.3 1.5.9.9 1.4 2 1.4 3.4l-.1 11.8c0 1.4-.5 2.8-1.6 3.8-1 1.1-2.2 1.7-3.7 1.7H17zm53.1 4.1l.4 6.4h16c0-.1-.1-.7-.2-1.8-.2-1.2-.3-2-.3-2.6V27.9c0-2.1-.4-4.1-1.1-5.8-.7-1.8-1.7-3.4-3.3-4.7-1.5-1.3-3.5-2.4-5.8-3.1-2.3-.7-5.1-1.1-8.4-1.1-7 0-12.1 1.3-15.4 4-3.4 2.8-5 6.2-5 10.7v7.3h16.1v-6.4c0-1.2.3-2.3 1-3.3.6-1 1.5-1.5 2.5-1.5 2.1 0 3.3 1.5 3.3 4.5 0 1.8-.1 2.7-.4 3.3-.2.5-.7 1-1.3 1.7-1.1 1-2.4 1.9-3.7 2.8-1.3.8-3.8 2.1-7 4-3.4 1.8-5.6 3.1-6.6 4-1.4 1.5-2.5 3.3-3 5.2-.5 1.8-.8 4.4-.8 7.7.1 4.2.3 7.5.7 9.6.3 2 1.6 3.8 3.8 5.3 2 1.5 4.4 2.2 6.8 2.2 2.7 0 5.2-.7 7.5-2.1 2.1-1.4 3.3-3.4 3.8-5.6h.4zm-3.6-5.1c-1.2 0-2-.4-2.6-1.2-.4-.8-.7-1.6-.7-2.5v-6.1c0-1.4.6-2.7 1.7-3.7.3-.4 2-1.8 5-4.3v14.8c0 .5-.3 1.2-.8 1.9-.5.8-1.4 1.1-2.6 1.1zM106.3 0H90.2v72.7h16.1V0zm6.9 72.7h16.1V25.2h4.8V14.6h-4.8v-2.1c0-1.5 1.6-2.4 4.9-2.4V0h-9.9c-2.4 0-4.5.5-6.2 1.5-1.6.9-2.9 2.5-3.8 4.7-.8 2.1-1.2 4.9-1.2 8.4h-3.3v10.6h3.4v47.5zm60.6-7.3c1.2-2.7 1.8-6 1.8-9.8V31.7c0-6.2-1.5-10.9-4.7-14-3.1-3.1-8.1-4.6-14.9-4.6-4.8 0-8.5.7-11.4 2.3-3 1.4-5 3.6-6.2 6.3-1.3 2.8-1.9 6.1-1.9 10v23.9c0 4 .6 7.2 1.9 10 1.3 2.8 3.4 4.8 6.3 6.3 3 1.4 6.7 2.1 11.4 2.1s8.6-.7 11.4-2.2c2.9-1.5 5-3.6 6.3-6.4zm-14.3-6.2c0 2.8-1.2 4.2-3.6 4.2-1 0-1.9-.4-2.4-1.2-.6-.8-.9-1.7-.9-3V27.8c0-1.4.3-2.4.9-3.3.6-.7 1.4-1.1 2.5-1.1s2.1.4 2.7 1.2c.5.7.8 1.8.8 3.2v31.4zm59.1 13.5V14.6h-16.1V58c0 .8-.3 1.4-1 2-.6.6-1.5.9-2.5.9-1.1 0-1.9-.4-2.4-1.2-.5-.7-.9-1.5-.9-2.5V14.6h-16.1v47.8c0 2.3.4 4.5 1.3 6.2.9 1.8 2.1 3.2 3.6 4.1 1.5.9 3.4 1.4 5.4 1.4 3 0 5.6-.8 7.8-2.3 2.4-1.6 4-3.6 5.1-5.7v6.7h15.8zm26.9-42.8v15.9h16.1V24.6c0-3.2-1-6-3-8.1-1.9-2.1-4.5-3.1-7.5-3.1-5.7 0-9.9 2.8-12.7 8.4v-7h-15.7v58h16.1V29.9c0-1 .4-1.7 1.2-2.4.7-.6 1.5-.9 2.3-.9.9 0 1.6.3 2.2.9.7.7 1 1.5 1 2.4zm78.7-28.4C321 .5 316.5 0 310.6 0h-21.1v72.7H311c4.6 0 8.2-.5 11.2-1.4 2.9-1 5.1-2.3 6.5-3.9 1.5-1.6 2.4-3.4 2.9-5.4.5-2 .8-4.2.8-6.7v-2.7c0-5.1-.4-8.8-1.1-11.2-.7-2.5-2-4.2-3.8-5.1-1.7-.9-4.5-1.4-8.2-1.7V34c3.2-.4 5.8-1.3 7.8-2.5 2-1.3 3.4-2.9 4.2-4.7.8-1.9 1.2-4.3 1.2-6.9V15c0-3.6-.6-6.5-1.8-8.6-1.1-2.2-3.3-3.8-6.5-4.9zm-17.6 8.6h3.4c1.3 0 2.6.4 3.8 1.3 1.1.9 1.7 2 1.7 3.4v9.6c0 1.5-.6 2.7-1.7 3.7s-2.6 1.4-4.3 1.4h-2.8V10.1zm8.9 46.7c0 1.4-.5 2.8-1.7 3.8-1 1.1-2.2 1.7-3.7 1.7h-3.6V40h4.3c1.3 0 2.3.5 3.3 1.5.9.9 1.4 2 1.4 3.4v11.9zm55.2-39.4c-3.2-2.9-8.2-4.3-15.1-4.3-4.6 0-8.2.7-11.1 2.3-2.8 1.4-4.9 3.5-6.1 6.2-1.4 2.6-1.9 5.9-1.9 9.7v24.6c0 12.1 6.5 18.2 19.5 18.2 3.4 0 6.3-.4 8.9-1.2 2.4-.9 4.5-2 6.1-3.5 1.5-1.5 2.8-3.2 3.5-5.2.7-1.9 1.1-3.9 1.1-5.9v-8.2h-16.1v9.6c0 1-.3 1.9-.9 2.7-.6.7-1.5 1-2.5 1-.9 0-1.7-.4-2.4-1.1-.7-.8-1-1.6-1-2.5V45.2h22.9V28.5c-.1-4.5-1.8-8.2-4.9-11.1zm-11.3 18h-6.8v-6.9c0-3.4 1.1-5 3.4-5 1 0 1.9.4 2.5 1.1.6.8.9 1.6.9 2.5v8.3zm59 33V27.9c0-2.1-.4-4.1-1.1-5.8-.7-1.8-1.8-3.4-3.3-4.7-1.5-1.3-3.5-2.4-5.8-3.1-2.4-.7-5.1-1.1-8.4-1.1-6.9 0-12.1 1.3-15.4 4-3.4 2.8-5 6.2-5 10.7v7.3h16.1v-6.4c0-1.2.3-2.3 1-3.3.6-1 1.6-1.5 2.5-1.5 2.2 0 3.3 1.5 3.3 4.5 0 1.8-.1 2.7-.4 3.3-.2.5-.7 1-1.3 1.7-1.1 1-2.3 1.9-3.8 2.8-1.3.8-3.8 2.1-7 4-3.4 1.8-5.6 3.1-6.6 4-1.4 1.5-2.4 3.3-3 5.2-.5 1.8-.8 4.4-.8 7.7.1 4.2.3 7.5.7 9.6.3 2 1.7 3.8 3.8 5.3 2 1.5 4.4 2.2 6.8 2.2 2.8 0 5.2-.7 7.5-2.1 2.1-1.4 3.4-3.4 3.8-5.6h.5l.4 6.4h16c0-.1-.1-.7-.2-1.8-.2-1.4-.3-2.3-.3-2.8zm-16.1-10.2c0 .5-.3 1.2-.8 1.9-.5.8-1.4 1.1-2.6 1.1-1.3 0-2.1-.4-2.6-1.2-.4-.8-.7-1.6-.7-2.5v-6.1c0-1.4.6-2.7 1.7-3.7.3-.4 2-1.8 5-4.3v14.8zm69.3-54.3h-16.1v10.7h-12.8V3.9h-16.1v10.7h-5.4v10.6h5.4v36.5c0 3.4 1 6 3 8s4.7 3 8 3h12.2v-10h-3.1c-2.7 0-4-.9-4-2.7V25.2h12.8v36.5c0 3.4 1 6.1 3 8 2.1 2 4.7 3 7.9 3h12.2v-10h-3.1c-2.8 0-4.1-.9-4.1-2.7V25.2h7.1V14.6h-7.1V3.9zm35.1 10.7c-.2 1.5-.5 3.1-1 4.9-.3 1.7-.6 3.6-1 5.4-.3 1.9-.5 3.7-.8 5.5-.2 1.8-.3 3.6-.6 5.2-1 6.9-1.8 13.8-2 20.6h-.4c-.2-5.8-.9-12.4-2.1-20.1-.2-1.6-.3-3-.6-4.6-.2-1.4-.4-3.2-.7-5.1-.3-1.8-.6-3.9-1-6.1-.1-.8-.2-1.6-.3-2-.1-.6-.2-1.1-.3-1.7-.1-.5-.1-.9-.2-1.2 0-.3-.1-.5-.1-.7h-16.1c4.5 20.8 7.3 34.4 8.9 41 2.5 10.9 3.8 16.8 3.8 17.9 0 .7-.2 1.3-.7 1.6-.5.4-.9.6-1.3.6H481V86h15.7c1.4 0 2.8-.3 4.1-.9 1.3-.6 2.4-1.2 3-2.1 1.4-1.4 2.5-3.7 3.3-6.7.8-3 1.9-7.8 3.3-14.2 4.5-22.2 7.9-38 10-47.6h-13.7z"/></svg>