<svg xmlns="http://www.w3.org/2000/svg" viewBox="0 0 89.241 55.458"><path fill="rgba(255,255,255,0.9000000000000001)" d="M70.521 13.913c-.018.16-.659 0-1.016.107.553.641 1.034 1.248 1.444 1.943-.624-.07-1.498-.641-2.427-.518-.106.037.09.715.215 1.215.179.715-.625-.232-.929-.412-1.213-.783-3.675-1.195-3.515-3.406a56.683 56.683 0 0 0-2.034-1.197c-1.856.965-3.641 2.285-3.818 4.408-.269 2.57 2.123 5.229 5.62 4.516 1.195-.232 2.159-.982 3.229-1.535 1.089-.59 2.356-1.018 3.569-1.143 1.053-.105 3.748.16 3.729-.91-.019-1.105-1.48-.355-2.284-.355.554-.322.732-1.018.981-1.66-.518-.162-.893-.055-1.338.053.32-.75.66-1.553 1.07-2.213-.428-.053-1 .037-1.48.197.427-.875.874-1.785 1.48-2.463h-1.32c.784-.768 1.124-2.053 2.587-2.141-.143-.59-1.124-.178-1.623-.715.981-.355 1.713-.98 3.104-.947-.09-.193-.66-.908-.945-1.301.714.072 2.462.16 3.247.59.643-.66 1.82-.875 3.104-.59-.285.32-.784.41-.963.82 1.16.965 2.891 1.34 4.318 2.035 0 1.123-.75 1.658-1.428 2.391-.267-.643-1.214-.518-1.928-.695-.16.07-.179.32-.195.535 1.267.035 2.248.66 3.318.393.981-.268.946-1.66 2.034-1.678-.624.5-.303 1.928-1.069 2.266-1.785.268-2.803-.695-4.158-.463.107.73 1.142.838 1.694.428.054.41.571.178.643.5.16.588-.624 1.213-.963 1.498-.054-.855-1.41-1.07-1.803-.66-1.018 1.053 2.106 1.482 2.891 2.623-.25 0-.606.037-.856.037 0 .518.768.355 1.107.32.695-.105 1.498-1.035 1.677-1.91.16-.73-.481-1.766.624-2.016.696-.053.75-.535 1.285-.73.553-.305-.268.355-.071.766.054 0 .089-.018.143-.018.356 0 .731.197.928.5.268-.16.768.125.839.588-.339-.088-.589-.143-.714.055-.196.373-.161.695 0 .893.106.107.231.678.231 1.07-.803-.84-1.623.963-2.283 1.41.142.285.518.357.838.463-.231.41-.838.357-1.302.52.018.355.909.498.464.588-.518.07-1.088.375-1.57.143-.357.09.482.535.125.59-1.125.23-3.123-.465-3.052.23.125 1.088 1.356.428 2.033.305 1.643-.34 4.373-1.107 5.032 1.463-1.051-.947-.605.91-1.213 1.391-.32.215 0-.553-.195-.643-.856-.285-.821.715-1.356.91-.464-2.588-2.624-.035-3.713.428-.053-.285-.053-.303-.088-.695-.535.18-.856.695-1.304.982-.231-.215-.16-.66-.267-.982-.59.322-1.072.75-1.678 1.053-.106-.248-.035-.553-.25-.945-.821-.607-2.623-.25-3.961-.322.054.732 1.534.412 2.212.607.773.265 1.753 1.14 1.433 2.46-.429 1.643-4.961 1.73-2.588 3.248.535.018 1.355-.715 2.819-.357.446.107-.09.303-.196.5.25.5.963.518 1.249.998-.249.145-.946-.053-.893.59-1.624-.107-5.085-.018-5.121-.055-.179-.338-.41-.801-.606-1.266-.356-.053-1.16.25-1.445.143-.465-.143.785-1.053.856-1.428-.107-.303-.606-.232-.946-.268.429-.803 2.07-1.213 1.91-1.748-.179-.803-1.231-.822-1.964-1.107.357 1.91-2.801 1.803-3.497 3.266a1.876 1.876 0 0 0-.304-.857c-.375.287-.928.555-1.124 1.018-.195-.143.018-.676-.428-.676-.928.016-1.892.891-1.749 1.141.357.518 1.124-.445 1.48-.357.285.09.285.32.607.393.321.09.643-.018.856.145-.019.141-.214.266-.375.285.144.553.875.32 1.106.783-.356 0-.66.232-.928.59-.982-.055-5.121.07-5.3-.07-.285-.197-.429-.395-.481-.645-.25-.855.66-.98.98-1.588-.195-.285-.784-.303-1.177-.391.41-.643 1.588-.68 2.212-1.125-.232-.232-.5-.375-.964-.357.589-1.105 1.946-.75 2.838-1.355 1.034-.715.909-1.98 1.481-3.266-2.428.713-4.407 1.998-7.299 1.998-3.247 0-5.496-1.855-5.871-4.516-.589-4.424 2.73-6.904 5.979-8.332-1.535-1.678-3.141-3.033-2.855-5.711.624-5.941 12.634-6.299 12.581.232-.02 3.123-2.909 4.336-5.122 5.604.375.303.999.768 1.159.838.179.09.679-.088 1.089-.035 1.912.283 2.608 1.783 3.892 2.711zm-4.656-8.922c.285-2.303-1.374-3.32-3.266-2.98-3.177.605-2.23 5.479-.106 6.779 1.444-.676 3.139-1.981 3.372-3.799zm15.792 2.658c-.749 0-1.534-.018-1.659.605.518 0 .678.322 1.284.232-.268-.462.09-.605.375-.837zm2.284 1.23c-.304-.053-.393-.643-.714-.355-.071.373.518.678.714.355z"/><path fill="rgba(255,255,255,0.3007249560632689)" d="M18.077 4.668l-2.497 2.32-.233-.285c-.677-.803-1.409-1.607-2.337-2.105-.804-.428-1.73-.535-2.623-.535-1.607-.037-3.248.66-4.177 2.033-1.196 1.785-1.445 4.016-1.445 6.102 0 2.07.249 4.248 1.392 5.998.857 1.303 2.409 1.979 3.944 1.963.892 0 1.784-.18 2.605-.607.981-.518 1.801-1.285 2.569-2.088l.268-.285 2.283 2.463-.195.268c-.946 1.195-2.088 2.248-3.479 2.908-1.375.66-2.909.891-4.443.891-2.535.055-5.193-.928-6.745-3.014C1.179 18.232.715 15.09.715 12.129c0-2.98.572-6.139 2.498-8.494C4.944 1.53 7.746.549 10.404.584c1.445 0 2.908.195 4.194.838 1.338.697 2.408 1.803 3.3 2.98l.179.266zm6.281-.677h-3.871V.083h3.871v3.908zm13.259 17.773c-1.23 1.088-2.82 1.801-4.462 1.748-1.177 0-2.408-.268-3.229-1.123-.875-.877-1.089-2.143-1.089-3.32V9.059h-2.16V5.971h2.195l.179-4.266 3.587-.73-.054 4.996h4.497v3.088h-4.515v8.832c0 .5.018 1.018.124 1.498.144.537.661.912 1.232.912.893 0 1.624-.59 2.337-1.055l.321-.248 1.231 2.605-.194.161zM53.749 5.971l-5.675 14.723c-.125.393-.285.785-.446 1.158-.196.5-.393.982-.589 1.465-.464 1.141-.91 2.246-1.41 3.373l-1.498 3.318H40.08l.179-.393c.089-.162.178-.322.268-.5.356-.73.714-1.445 1.052-2.176.394-.857.785-1.715 1.196-2.57.285-.662.589-1.32.839-2l.018-.018-6.176-16.362h4.122l3.534 10.135c.018.125.071.232.125.357.054.18.125.393.196.59.07.213.124.41.195.607v-.037c.161-.518.322-1.035.536-1.533l3.64-10.137h3.945zM36.743 55.026h-3.729l-.036-.322c-.054-.678-.071-1.373-.089-2.068v-.09c-1.392 1.695-3.337 2.98-5.585 2.891-1.357.018-2.767-.41-3.694-1.428-.999-1.07-1.339-2.568-1.32-3.979V37.805h3.766v11.492c.018.715.07 1.5.517 2.105.322.465.893.662 1.428.643.303 0 .606-.035.874-.125 1.749-.66 2.837-2.355 3.854-3.836v-10.26h3.801l-.035 13.668c.018 1.07.071 2.123.214 3.176l.034.358zm6.924-19.201h-3.909v-3.729h3.909v3.729zm7.065 19.201h-3.711V32.079h3.711v22.947zm19.094 0h-3.801l-.054-.322a24.638 24.638 0 0 1-.179-2.266c-.624.768-1.338 1.463-2.212 1.98-1.054.625-2.32.893-3.534.875-1.73.018-3.497-.625-4.621-1.91-1.32-1.48-1.819-3.443-2.016-5.336-.054-.535-.054-1.053-.054-1.588 0-2.336.428-4.816 1.98-6.709 1.303-1.641 3.497-2.498 5.639-2.463 1.089 0 2.213.18 3.194.66.553.287 1.069.66 1.498 1.072-.018-.305-.018-.607-.018-.91v-6.068h3.944v19.504c0 .143.018.287.018.428.019.232.019.482.036.715.017.605.07 1.213.178 1.82v.518zm-8.156-3.141c1.892-.695 3.07-2.428 4.016-4.051.054-.428.089-.875.089-1.338 0-.963-.071-1.945-.356-2.873-.464-1.678-2.017-3.178-3.926-3.178-1.143-.016-2.303.537-2.909 1.482-.874 1.32-1.052 2.943-1.07 4.461.019 1.463.072 2.998.821 4.318.428.82 1.374 1.338 2.337 1.32.338.019.661-.033.998-.141zm23.538-12.972l-1.214 3.158-.357-.195c-1.213-.787-2.642-1.393-4.121-1.34-.75.018-1.536.125-2.16.59-.481.373-.713 1.018-.695 1.588-.018.5.196 1.018.66 1.248.268.143.57.25.892.268h.036l.018.02c.429.088.857.125 1.303.16 1.48.195 3.051.553 4.193 1.57.999.893 1.375 2.283 1.356 3.586.019 1.588-.554 3.248-1.803 4.301-1.338 1.16-3.14 1.535-4.872 1.535a10.882 10.882 0 0 1-5.959-1.678l-.268-.16 1.356-3.053.339.232c1.32.857 2.837 1.535 4.443 1.518.768 0 1.588-.162 2.194-.643.499-.375.768-1.018.749-1.643.019-.535-.106-1.105-.517-1.463-.553-.445-1.285-.59-1.963-.678-.695-.09-1.374-.16-2.07-.268a5.556 5.556 0 0 1-1.874-.732c-1.355-.803-1.962-2.408-1.944-3.906-.036-1.555.571-3.16 1.766-4.16 1.304-1.105 3.052-1.516 4.729-1.516 1.927-.018 3.89.48 5.514 1.48l.269.181zM24.25 23.208h-3.675V5.971h3.675v17.237zm19.292 31.818h-3.677V37.788h3.677v17.238zM18.845 36.36l-2.552 2.355-.232-.25c-.785-.838-1.589-1.676-2.604-2.178-.894-.445-1.875-.535-2.855-.535-1.75-.018-3.569.607-4.676 2.035-1.303 1.678-1.589 3.908-1.606 6.014.018 2.178.285 4.516 1.606 6.316 1.089 1.465 2.962 2.072 4.747 2.035.695 0 1.392-.018 2.069-.197.66-.16 1.285-.48 1.874-.803v-6.691h3.926v8.744l-.179.105c-2.464 1.34-5.21 2.215-8.03 2.143-2.802.053-5.764-.855-7.638-3.033C.607 50.083 0 46.872 0 43.854c-.019-3.014.695-6.209 2.748-8.492 1.909-2.143 4.854-3.088 7.691-3.07 1.57 0 3.194.232 4.64.91 1.409.643 2.587 1.713 3.55 2.908l.216.25z"/></svg>