<svg width="223" height="60" viewBox="0 0 223 60" xmlns="http://www.w3.org/2000/svg"><g fill="none" fill-rule="evenodd"><path d="M54.593 19.816c-4.269 4.213-7.796 5.354-13.113 7.871-3.117 1.437-6.299 2.916-9.469 4.353 1.753-5.67 4.471-11.043 7.777-15.956 1.687-2.507 3.138-3.863 5.435-5.858 2.864-2.487 7.862-4.922 10.956-1.4 1.3 1.48 1.712 3.542 1.437 5.498-.347 2.469-1.285 3.776-3.023 5.492m8.953-.686a21.157 21.157 0 0 0 2.72-4.735c.166-.404.23-.862.303-1.294.081-.483.119-.973.123-1.463C66.75 5.41 60.875.308 53.57.24L52.15.23C42.621.14 35.996 6.105 32.333 9.72 24.69 17.263 19.63 27.047 18.226 37.93a103.366 103.366 0 0 1-5.65 1.975 59.733 59.733 0 0 1-5.206 1.406c-1.528.332-3.076.59-4.637.697-.754.052-1.502.064-2.256.006-.34-.025-.475.721-.477.94-.011 1.24 1.401 3.036 5.321 3.072 3.108.029 7.645-.951 12.535-2.36l.001-.465c-.05 5.48 1.16 10.434 3.473 13.425 1.504 1.943 4.449 2.739 6.782 2.977 3.01.308 6.121-.268 9.032-1.25 6.174-2.087 11.759-5.463 16.965-9.343.715-.532 1.407-1.094 2.123-1.624.494-.365.973-.778 1.459-1.163a37.272 37.272 0 0 0 1.995-1.741 5.84 5.84 0 0 0 .64-.682c.268-.35.373-.801.355-1.238-.008-.182-.01-.418-.102-.582a.375.375 0 0 0-.145-.142c-.12-.07-.19-.008-.308.05-.496.24-.982.5-1.465.767-.532.294-1.079.561-1.627.824-.509.245-.998.53-1.511.763-.938.426-1.85.89-2.774 1.338-.46.222-.923.44-1.39.646-3.131 1.38-6.261 2.778-9.512 3.853-3.342 1.106-8.562 2.562-10.784-1.346-.857-1.509-.872-3.386-.856-5.075.013-1.402.114-2.798.288-4.18a236.4 236.4 0 0 0 6.183-2.391 948.973 948.973 0 0 1 11.303-4.467c2.076-.807 4.081-1.672 6.2-2.36l5.507-1.785c2.053-.666 4.109-1.186 6.234-1.488 4.408-.629 8.731-.513 13.127.157 1.972.301 3.928.699 5.868 1.163 3.76.898 7.45 2.06 11.133 3.225 5.892 1.865 11.619 2.792 17.734 3.395.996.098 1.995.16 2.995.189 5.408.157 10.843-.628 16.017-2.148 3.107-.914 6.108-2.174 8.968-3.7.16-.086.318-.172.477-.26a29.54 29.54 0 0 0 2.415-1.476 36.5 36.5 0 0 0 3.475-2.684 30.47 30.47 0 0 0 1.601-1.508c.442-.448 1.011-.904 1.193-1.525.11-.376.052-.68-.044-1.054-.044-.173-.16-.321-.33-.248-.578.251-1.123.594-1.689.879a54.424 54.424 0 0 1-3.581 1.646c-2.595 1.078-5.288 1.942-7.984 2.458-7.582 1.452-15.786 1.948-23.439.898-7.661-1.051-15.06-3.407-22.631-4.92a132.69 132.69 0 0 0-7.043-1.232 78.14 78.14 0 0 0-7.194-.722 54.588 54.588 0 0 0-7.21.088c-2.358.188-4.69.604-7.044.836-.05.005-.11.007-.143-.032-.05-.058.004-.145.055-.202.31-.342.61-.704.898-1.08" fill="rgba(255,255,255,0.9000000000000001)"/><path d="M204.597 50.168c1.256-.662 2.371-1.657 2.388-3.492.02-2.241-1.214-2.985-4.729-3.017l-2.362-.021-.06 6.486 4.763.044zm-7.65 9.092l.166-18.013 5.165.047c4.92.045 7.538 1.76 7.505 5.298-.02 2.126-1.285 3.912-3.663 4.866l5.533 7.647-.002.29-3.093-.029-4.85-6.812-3.896-.036-.063 6.767-2.802-.025zm-9.596-7.255l-2.939-8.353-3.235 8.296 6.174.057zm-11.612 7.06l.002-.288 7.153-17.66 3.509.032 6.385 17.784-.003.289-2.925-.027-1.676-4.817-7.923-.073-1.882 4.785-2.64-.024zm-9.21-.084l.144-15.647-6.42-.06.022-2.364 15.526.142-.022 2.365-6.316-.058-.144 15.648-2.79-.026zm-22.822-1.041l.024-2.56.284.002c1.675.749 3.784 1.31 5.577 1.327 3.222.03 4.779-.943 4.795-2.64.015-1.68-1.305-2.456-3.202-3.114l-2.93-1.003c-2.595-.922-3.876-2.457-3.856-4.683.029-3.102 2.987-4.767 7.174-4.729 1.688.016 4.19.475 5.336 1.05l-.022 2.386-.29-.003c-1.645-.624-3.733-1.007-5.047-1.019-2.718-.024-4.347.49-4.363 2.192-.014 1.552 1.205 2.064 2.63 2.556l2.794 1.027c2.645.933 4.606 2.28 4.578 5.242-.03 3.23-2.992 5.185-7.62 5.143-2.22-.021-4.193-.456-5.862-1.174zm-6.196-8.233c.036-3.927-2.156-6.901-6.356-6.94-4.233-.038-6.48 2.895-6.517 6.822-.036 3.927 2.157 6.911 6.39 6.95 4.2.038 6.447-2.905 6.483-6.832zm-15.811-.145c.044-4.786 3.316-9.265 9.477-9.209 6.135.057 9.316 4.595 9.272 9.38-.044 4.8-3.31 9.267-9.444 9.21-6.161-.056-9.35-4.582-9.305-9.38zm-9.073-.236c1.269-.662 2.384-1.657 2.402-3.492.02-2.241-1.222-2.985-4.73-3.017l-2.368-.021-.06 6.486 4.756.044zm-7.631 9.092l.167-18.013 5.159.047c4.911.045 7.542 1.76 7.51 5.298-.02 2.126-1.292 3.911-3.657 4.866l5.515 7.647-.003.29-3.08-.029-4.85-6.812-3.909-.036-.062 6.768-2.79-.026zm-20.988-7.22l.101-10.986 2.784.026-.1 10.703c-.027 2.944 1.221 5.204 5.15 5.24 3.78.034 4.905-2.047 4.934-5.148l.1-10.703 2.788.025-.102 10.987c-.039 4.21-2.43 7.292-8.027 7.241-5.476-.05-7.665-3.461-7.628-7.385zM66.63 58.067l.167-18.013 12.045.11-.022 2.365-9.256-.085-.045 4.945 8.11.074-.023 2.418-8.11-.075-.055 5.914 9.787.09-.022 2.372-12.576-.115zm148.143-12.153l.035-3.74-1.256-.012.007-.788 3.508.033-.008.787-1.248-.012-.035 3.74zm6.957.063l.029-3.024-1.189 1.85-.499-.005-1.135-1.832-.027 2.986-.952-.009.042-4.528 1.106.01 1.346 2.153 1.367-2.128.957.009-.042 4.528z" fill="rgba(255,255,255,0.8324670809612795)"/></g></svg>