<svg height="120" viewBox="0 0 30.706 9.925" width="300" xmlns="http://www.w3.org/2000/svg"><g fill="rgba(255,255,255,0.9000000000000001)" transform="translate(-42.518 -21.54) scale(.26458)"><path d="M179.051 90.239H174.8a2.288 2.288 0 0 1-2.288-2.288V83.7a2.287 2.287 0 0 1 2.288-2.287h4.251a2.288 2.288 0 0 1 2.287 2.287v4.251a2.287 2.287 0 0 1-2.287 2.288m-10.997 9.53h-4.782a2.572 2.572 0 0 1-2.574-2.573v-4.784a2.575 2.575 0 0 1 2.574-2.573h4.782a2.574 2.574 0 0 1 2.574 2.573v4.784a2.573 2.573 0 0 1-2.574 2.573m-.456 9.927h-2.921a1.574 1.574 0 0 1-1.574-1.573v-2.92c0-.871.706-1.575 1.574-1.575h2.921c.869 0 1.573.704 1.573 1.575v2.92a1.571 1.571 0 0 1-1.573 1.573m7.843 9.23h-3.454a1.857 1.857 0 0 1-1.859-1.859v-3.454c0-1.028.832-1.859 1.859-1.859h3.454c1.027 0 1.859.831 1.859 1.859v3.454a1.858 1.858 0 0 1-1.859 1.859m12.657-26.947h-2.393a1.288 1.288 0 0 1-1.287-1.286v-2.39c0-.711.576-1.289 1.287-1.289h2.393c.71 0 1.285.578 1.285 1.289v2.39c0 .708-.574 1.286-1.285 1.286"/><circle cx="240.463" cy="92.197" r="1.379"/><path d="M190.127 108.286c-.213.32-.56.48-.933.48-.213 0-.453-.053-.64-.16-.293-.187-.507-.586-.507-.986 0-.187.054-.374.16-.533l3.199-5.038-3.199-5.038a1.055 1.055 0 0 1-.16-.56c0-.373.187-.773.534-.96.186-.106.373-.16.586-.16.373 0 .747.16.96.48l2.612 4.132 2.639-4.132c.214-.32.587-.48.96-.48.213 0 .4.053.586.16.347.187.533.587.533.96 0 .187-.053.4-.16.56l-3.199 5.038 3.199 5.038c.106.16.16.346.16.533 0 .4-.213.799-.506.986-.186.106-.426.16-.64.16-.373 0-.72-.16-.933-.48l-2.639-4.105zm11.405-11.383a6.812 6.812 0 0 1 4.585-1.759 6.872 6.872 0 0 1 6.905 6.904c0 3.786-3.066 6.851-6.905 6.851a6.81 6.81 0 0 1-4.585-1.76v5.891c0 .586-.533 1.093-1.146 1.093-.56 0-1.12-.506-1.12-1.093V96.344c0-.586.56-1.093 1.12-1.093.613 0 1.146.507 1.146 1.093zm4.585.534c-2.559 0-4.585 2.025-4.585 4.611a4.551 4.551 0 0 0 4.585 4.585c2.586 0 4.611-2.026 4.611-4.585 0-2.586-2.025-4.611-4.611-4.611zm26.421 3.358v6.904c0 .587-.56 1.093-1.12 1.093-.614 0-1.146-.506-1.146-1.093V96.344c0-.587.533-1.093 1.146-1.093.534 0 1.092.48 1.12 1.04.933-.72 2.132-1.12 3.438-1.146.72 0 1.252.56 1.252 1.119 0 .613-.559 1.173-1.252 1.173-1.786.053-3.438.693-3.438 3.358zm7.942-5.544c-.613 0-1.146.506-1.146 1.093V107.7c0 .587.533 1.093 1.146 1.093.56 0 1.12-.506 1.12-1.093V96.344c0-.587-.559-1.093-1.12-1.093zm14.476 1.093c0-.587.532-1.093 1.146-1.093.56 0 1.12.506 1.12 1.093V107.7c0 .587-.56 1.093-1.12 1.093-.613 0-1.146-.506-1.146-1.093v-.56a6.862 6.862 0 0 1-4.586 1.759 6.871 6.871 0 0 1-6.904-6.903c0-3.785 3.066-6.851 6.904-6.851 1.76 0 3.36.666 4.586 1.759zm-4.586 10.262c2.559 0 4.586-2.026 4.586-4.611a4.552 4.552 0 0 0-4.586-4.585c-2.585 0-4.611 2.026-4.611 4.585 0 2.586 2.025 4.611 4.611 4.611zm18.394-5.677c0-1.892-1.653-3.545-3.546-3.545-1.839 0-3.546.747-3.546 3.412v6.904c0 .587-.56 1.093-1.12 1.093-.614 0-1.146-.506-1.146-1.093V96.344c0-.587.532-1.093 1.146-1.093.533 0 1.093.48 1.12 1.04.96-.747 2.186-1.146 3.518-1.146 3.092 0 5.838 2.426 5.838 5.464v7.091c0 .587-.559 1.093-1.119 1.093-.613 0-1.146-.506-1.146-1.093v-6.771zm-81.347.693c-.053-3.492-3.172-6.478-6.85-6.478-3.839 0-6.904 3.066-6.904 6.851a6.87 6.87 0 0 0 6.904 6.903c1.839 0 3.546-.72 4.772-1.945.24-.213.4-.533.4-.853 0-.613-.533-1.146-1.146-1.146-.346 0-.666.213-.906.453-.774.826-1.919 1.199-3.119 1.199-2.292 0-4.157-1.571-4.558-3.756h10.29c.008 0 .014-.003.022-.003h.031c.019-.002.038-.008.057-.011.04-.006.079-.011.117-.023.484-.13.89-.595.89-1.191zm-6.85-4.212a4.556 4.556 0 0 1 4.371 3.175h-8.768c.585-1.848 2.305-3.175 4.397-3.175zm47.786 4.212c-.054-3.492-3.173-6.478-6.851-6.478-3.839 0-6.906 3.066-6.906 6.851a6.872 6.872 0 0 0 6.906 6.903c1.839 0 3.545-.72 4.771-1.945.24-.213.4-.533.4-.853 0-.613-.533-1.146-1.146-1.146-.347 0-.667.213-.907.453-.773.826-1.92 1.199-3.118 1.199-2.292 0-4.158-1.571-4.559-3.756h10.272l.021-.003h.049c.031-.003.061-.012.091-.018.016-.003.032-.005.047-.009.503-.115.93-.587.93-1.198zm-6.85-4.212a4.555 4.555 0 0 1 4.371 3.175h-8.77c.586-1.848 2.306-3.175 4.399-3.175zm51.928 11.39a.185.185 0 0 1-.188-.182v-1.924h-.43a.186.186 0 0 1-.182-.189c0-.107.078-.189.182-.189h1.243c.104 0 .182.081.182.189a.186.186 0 0 1-.182.189h-.436v1.924a.182.182 0 0 1-.189.182zm2.224.003c-.103 0-.164-.075-.186-.146l-.536-1.574v1.534a.181.181 0 0 1-.188.182.186.186 0 0 1-.189-.182v-2.03c0-.151.132-.284.284-.284.12 0 .232.086.272.209l.543 1.587.537-1.588a.297.297 0 0 1 .275-.209c.151 0 .284.132.284.284v2.03a.181.181 0 0 1-.188.182.186.186 0 0 1-.189-.182v-1.53l-.315.93c-.213.632-.214.634-.217.64-.042.097-.105.147-.187.147z"/></g></svg>