<svg xmlns="http://www.w3.org/2000/svg" width="284.847" height="38.806"><path d="M41.327 16.828c0 3.687-1.268 6.782-4.137 10.25V6.675c2.482 2.254 4.137 6.233 4.137 10.154m3.586-.173c0-5.13-2.816-10.812-7.063-14.061-1.266-.998-1.982-1.438-4.242-2.594v38.503h3.582v-6.617c5.795-5.904 7.723-9.658 7.723-15.23m13.422.171c0 3.687-1.273 6.782-4.143 10.25V6.675c2.488 2.254 4.143 6.233 4.143 10.154m4.41 21.79V35.03c-3.033-.666-5.132-2.315-6.619-5.24 4.58-5.08 5.798-7.892 5.798-13.073 0-5.191-2.819-10.814-7.066-14.122-1.27-.998-1.985-1.438-4.249-2.594v38.503h3.583v-5.626c1.934 3.53 4.747 5.404 8.554 5.741m14.196-.117v-3.59h-5.955v-4.243h5.955v-3.59h-5.955V5.293h5.955V1.709h-9.544v36.793h9.544zM93.93 5.292V1.709H81.737v3.583h4.307v33.21h3.582V5.292h4.302zm22.39 22.56h-3.854l1.93-10.24 1.924 10.24zm5.228 10.569L114.395.054l-7.159 38.367h3.302l1.267-6.991h5.176l1.264 6.99h3.303zm31.917 0V.603l-7.32 10.295-7.38-10.295v37.818h3.58V13.1l3.8 5.119 3.743-5.12v25.323h3.577zm16.051-10.569h-3.854l1.93-10.24 1.924 10.24zm5.232 10.569L167.592.054l-7.157 38.367h3.303l1.266-6.991h5.174l1.266 6.99h3.304zm19.1 0V1.705h-3.577v11.668L181.738.989V38.42h3.58V12.933l4.953 7.21v18.278h3.577zm20.478-6.219v-5.344h-6.824v3.58h3.244v1.597c0 2.092-.876 3.193-2.583 3.193-1.71 0-2.589-1.101-2.589-3.193V8.143c0-2.092.88-3.193 2.59-3.193 1.706 0 2.582 1.101 2.582 3.193v2.038h3.58V7.98c0-3.853-2.586-6.606-6.163-6.606-3.58 0-6.169 2.753-6.169 6.606v24.223c0 3.8 2.59 6.604 6.17 6.604 3.576 0 6.162-2.804 6.162-6.604m17.282 6.218v-3.576h-5.947v-4.241h5.947v-3.578h-5.947V5.283h5.947V1.705h-9.522V38.42h9.522zm16.189-21.606c0 3.645-1.253 6.693-4.08 10.122V6.797c2.45 2.234 4.08 6.153 4.08 10.018m4.356 21.5v-3.54c-2.992-.653-5.063-2.286-6.532-5.17 4.518-5.009 5.716-7.782 5.716-12.9 0-5.117-2.776-10.667-6.967-13.934-1.253-.978-1.96-1.412-4.193-2.558v37.992h3.54v-5.553c1.904 3.485 4.68 5.336 8.436 5.662m21.538-29.84l2.992 8.772h8.164l-6.534 4.596 2.544 7.983-7.166-4.656-7.11 4.595 2.54-7.922-6.652-4.596h8.227l2.995-8.772zM11.22 8.716l2.99 8.769h8.162l-6.528 4.6 2.538 7.98-7.163-4.655-7.11 4.595 2.54-7.92L0 17.484h8.221l2.998-8.77z" fill="rgba(255,255,255,0.9000000000000001)" fill-rule="evenodd"/></svg>