<svg xmlns="http://www.w3.org/2000/svg" viewBox="0 0 93.917 37.868"><defs><style>.a{fill:rgba(255,255,255,0.9000000000000001)}</style></defs><path class="a" d="M39.014 31.504a5.24 5.24 0 0 1-3.983-1.42 4.548 4.548 0 0 1-1.35-3.22 6.161 6.161 0 0 1 1.489-4.329q1.489-1.626 4.952-1.973l7.342-.693v5.194a5.1 5.1 0 0 1-.693 2.632 6.808 6.808 0 0 1-1.87 2.043 8.641 8.641 0 0 1-2.7 1.316 11.153 11.153 0 0 1-3.186.45"/><path d="M23.725 1.204a8.594 8.594 0 0 0-2.213-.276 10.275 10.275 0 0 0-4.842 1.279 10.042 10.042 0 0 0-4.081 4.531l-.277-5.81H.553A8.658 8.658 0 0 0 0 3.902a8.658 8.658 0 0 0 .553 2.975H4.7v24H.553a8.275 8.275 0 0 0 0 5.948H18.4a8.263 8.263 0 0 0 0-5.948h-4.843V17.321a10.846 10.846 0 0 1 .761-4.357 8.217 8.217 0 0 1 1.833-2.736c.08-.074.159-.146.242-.213a10.184 10.184 0 0 1 2.826-1.587 10.175 10.175 0 0 1 5.2-.647c.381.029.76.074 1.133.138l.041-6.091a14.831 14.831 0 0 0-1.868-.624m39.8 22.887a5.8 5.8 0 0 1 2.977-.692 7.367 7.367 0 0 1 1.558.173 4.918 4.918 0 0 1 1.488.588v1.246a4.237 4.237 0 0 0 .762 2.388 7.344 7.344 0 0 0 2.042 2.008 11.037 11.037 0 0 0 2.973 1.386 12.119 12.119 0 0 0 3.565.519 14.323 14.323 0 0 0 2.492-.208 7.555 7.555 0 0 0 2.077-.658 3.65 3.65 0 0 0 1.419-1.212 3.238 3.238 0 0 0 .519-1.869 4.39 4.39 0 0 0-.381-1.9 3.875 3.875 0 0 0-1.315-1.454 10.839 10.839 0 0 0-2.631-1.246q-1.7-.587-4.258-1.212-2.009-.483-4.223-1.107a17.42 17.42 0 0 1-4.154-1.766 9.97 9.97 0 0 1-3.185-2.942 8.109 8.109 0 0 1-1.24-4.711 10.282 10.282 0 0 1 1.281-5.3 10.675 10.675 0 0 1 3.219-3.5A13.387 13.387 0 0 1 72.767.727a18.169 18.169 0 0 1 4.465-.589 12.619 12.619 0 0 1 5.5 1 12.267 12.267 0 0 1 3.293 2.254V1.384a13.124 13.124 0 0 1 1.523-.415 7.509 7.509 0 0 1 4.43.485v11.284a6.561 6.561 0 0 1-2.977.692 7.49 7.49 0 0 1-2.976-.692v-.969a5.446 5.446 0 0 0-2.007-4.154 7.793 7.793 0 0 0-5.4-1.8 8.464 8.464 0 0 0-4.95 1.177 3.546 3.546 0 0 0-1.628 2.977 3.99 3.99 0 0 0 .277 1.558 2.751 2.751 0 0 0 1.208 1.211 13.238 13.238 0 0 0 2.7 1.108q1.765.555 4.742 1.246 2.285.555 4.6 1.246a14.917 14.917 0 0 1 4.189 1.973 9.618 9.618 0 0 1 3.011 3.358 11.161 11.161 0 0 1 1.142 5.4 9.278 9.278 0 0 1-4.184 8.134 13.255 13.255 0 0 1-4.362 1.869 22.127 22.127 0 0 1-5.158.588 22.056 22.056 0 0 1-3.5-.242 15.328 15.328 0 0 1-2.734-.692 14.186 14.186 0 0 1-2.319-1.073q-1.067-.623-2.104-1.315v2.008a4.874 4.874 0 0 1-1.488.588 7.368 7.368 0 0 1-1.558.173 7.2 7.2 0 0 1-1.592-.169 3.468 3.468 0 0 1-1.385-.662zM37.426 37.868a15.638 15.638 0 0 1-4.811-.726A11.342 11.342 0 0 1 28.703 35a10.314 10.314 0 0 1-2.631-3.466 10.979 10.979 0 0 1-.969-4.742c0-3.17.734-5.615 2.181-7.269a12.95 12.95 0 0 1 5.5-3.669 27.535 27.535 0 0 1 7.238-1.454c2.629-.186 5.132-.4 7.442-.624a14.3 14.3 0 0 0-.311-3.115 5.086 5.086 0 0 0-1.108-2.285 5.127 5.127 0 0 0-2.181-1.384 10.93 10.93 0 0 0-3.531-.484 15.254 15.254 0 0 0-6.022 1.211 46.71 46.71 0 0 0-6.093 3.219V3.947A77.347 77.347 0 0 1 30.503 2.7a22.03 22.03 0 0 1 3.011-1.281 28.132 28.132 0 0 1 3.842-1A24.9 24.9 0 0 1 42.064 0c.683 0 1.521.047 2.492.139a17.89 17.89 0 0 1 2.977.553 14.952 14.952 0 0 1 3.081 1.247 9.371 9.371 0 0 1 2.734 2.215 11.331 11.331 0 0 1 1.916 3.4 10.735 10.735 0 0 0-1.144.272 8.671 8.671 0 0 0-2.7 1.315 6.858 6.858 0 0 0-1.869 2.042 5.122 5.122 0 0 0-.692 2.631v5.193l7.189-.679v12.618h3.877a8.281 8.281 0 0 1 0 5.954H48.364l-.347-3.392a11.062 11.062 0 0 1-4.223 3.185 15.626 15.626 0 0 1-6.368 1.175zm10.039-18l-7.339.692c-2.3.23-3.963.894-4.95 1.973a6.189 6.189 0 0 0-1.489 4.327 4.563 4.563 0 0 0 1.35 3.218 5.261 5.261 0 0 0 3.981 1.422 11.191 11.191 0 0 0 3.185-.45 8.669 8.669 0 0 0 2.7-1.315 6.858 6.858 0 0 0 1.869-2.042 5.122 5.122 0 0 0 .692-2.631z" fill="rgba(255,255,255,0.6682962962962964)"/><path class="a" d="M61.286 8.797a5.238 5.238 0 0 0-3.981-1.419 11.468 11.468 0 0 0-2.04.179l.022.058a14.518 14.518 0 0 1 .762 4.985v5.73l.149-.014q3.462-.347 4.95-1.973a6.159 6.159 0 0 0 1.488-4.327 4.545 4.545 0 0 0-1.35-3.219"/><path d="M55.287 7.615l-.023-.058a10.711 10.711 0 0 0-1.144.271 8.642 8.642 0 0 0-2.7 1.315 6.814 6.814 0 0 0-1.869 2.043 5.1 5.1 0 0 0-.692 2.63v5.192l7.19-.678V12.6a14.523 14.523 0 0 0-.762-4.985" fill="rgba(255,255,255,0.7561481481481481)"/></svg>