<svg id="Layer_1" xmlns="http://www.w3.org/2000/svg" viewBox="0 0 240 240"><style>.st1{fill:rgba(255,255,255,0.9000000000000001)}</style><g id="Layer_1_1_"><linearGradient id="SVGID_1_" gradientUnits="userSpaceOnUse" x1="50.429" y1="35.513" x2="189.629" y2="207.422" gradientTransform="matrix(1 0 0 -1 0 241.46)"><stop offset="0" stop-color="rgba(255,255,255,0.38783529411764706)"/><stop offset=".62" stop-color="rgba(255,255,255,0.38783529411764706)"/><stop offset="1" stop-color="rgba(255,255,255,0.9000000000000001)"/></linearGradient><path d="M185.8 31C136.6-5.2 67.4 5.2 31.1 54.3S5.2 172.7 54.3 208.9s118.4 25.9 154.7-23.2c36.3-49.2 25.8-118.3-23.2-154.7z" fill="url(#SVGID_1_)"/><path class="st1" d="M187.5 28.7C137-8.5 66 2.2 28.7 52.6S2.2 174 52.6 211.3c19.5 14.4 43.1 22.2 67.4 22.2 62.7 0 113.6-50.8 113.6-113.4-.1-36.1-17.1-70-46.1-91.4zm21.5 157c-36.3 49.1-105.6 59.5-154.7 23.3S-5.3 103.4 31 54.3 136.6-5.3 185.7 31c49.2 36.3 59.6 105.6 23.3 154.7z"/><path d="M189.6 25.8C137.6-12.6 64.3-1.6 25.8 50.4S-1.6 175.8 50.5 214.2C70.6 229 95 237.1 120 237.1c64.7 0 117.2-52.4 117.2-117.1 0-37.1-17.7-72.1-47.6-94.2zm21.7 161.6c-21.4 29-55.3 46.1-91.4 46.1C57.2 233.5 6.4 182.6 6.5 120 6.6 57.2 57.4 6.5 120.1 6.5S233.6 57.4 233.5 120c0 24.3-7.8 47.9-22.2 67.4z" fill="rgba(255,255,255,0.6921882352941175)"/><path class="st1" d="M191.3 23.5l-1.7 2.3c52 38.4 63.1 111.8 24.6 163.8-22.1 29.9-57.1 47.5-94.3 47.5-64.7 0-117.1-52.5-117.1-117.2S55.3 2.8 120 2.9c25 0 49.4 8 69.5 22.9l1.8-2.3C138-15.9 62.9-4.6 23.5 48.7S-4.6 177.2 48.7 216.5c20.6 15.2 45.6 23.4 71.2 23.5 66.3 0 120-53.7 120.1-120 0-38.1-18.1-73.9-48.7-96.5z"/><path d="M122 187.4c0 8.3-6.7 15-15.1 15-8.3 0-15.1-6.7-15.1-15s6.7-15 15.1-15c8.4-.1 15.1 6.6 15.1 15z" fill="rgba(255,255,255,0.776235294117647)"/><path d="M154.4 187.4c0 8.3-6.7 15-15.1 15-8.3 0-15.1-6.7-15.1-15s6.7-15 15.1-15c8.3-.1 15.1 6.6 15.1 15z" fill="rgba(255,255,255,0.6551764705882352)"/><path d="M186.7 187.4c0 8.3-6.7 15-15.1 15-8.3 0-15.1-6.7-15.1-15s6.7-15 15.1-15c8.3-.1 15.1 6.7 15.1 15z" fill="rgba(255,255,255,0.5577411764705882)"/><path d="M209 185.7c2.1-2.8 4-5.8 5.8-8.7-2.8-3-6.8-4.7-10.9-4.7-8.3 0-15.1 6.7-15.1 15 .2 5.2 2.9 10 7.2 12.9 4.8-4.4 9.1-9.3 13-14.5z" fill="rgba(255,255,255,0.47668235294117645)"/><path class="st1" d="M57.1 103.3c-1.9-.9-4-1.4-6.1-1.6-2.2-.2-4.5-.3-6.7-.3-1 0-2.1 0-3.3.1l-3.6.3c-1.2.1-2.3.3-3.5.4-.9.1-1.9.3-2.8.5v7.1c1.3-.3 3.1-.6 5.4-.9 2.4-.3 4.8-.5 7.2-.5 1.8 0 3.6.1 5.3.5 1.1.2 2 .7 2.8 1.5.6.8 1 1.7 1 2.6.1 1.1.1 2.3.1 3.8-2.7 0-5.4 0-8.3.1-2.7 0-5.3.4-7.9 1.2-2.2.6-4.3 1.7-5.9 3.3-1.6 1.5-2.3 3.8-2.3 6.7-.1 2.2.4 4.3 1.4 6.3.9 1.5 2.2 2.8 3.8 3.6 1.7.9 3.6 1.5 5.5 1.7 2.2.3 4.4.5 6.5.5 2.8.1 5.6.1 8.3-.1 2.7-.2 5.7-.4 8.9-.8v-25.6c.1-2.4-.5-4.8-1.7-6.8-.7-1.5-2.3-2.8-4.1-3.6zm-4 30.2c-1 .1-2 .2-2.9.3-.9.1-1.9.1-3 .1s-2 0-3-.1c-.9-.1-1.7-.3-2.5-.6-.7-.4-1.3-.9-1.7-1.6-.9-1.9-.9-4 0-5.8.4-.7 1-1.3 1.7-1.6.8-.4 1.7-.6 2.5-.6.9-.1 1.9-.1 3-.1H53l.1 10zm16.1 6.1h10.1V86.1H69.2v53.5zm16.4 0h10.1V86.1H85.6v53.5zm50.4-27.9c-.7-1.4-1.6-2.8-2.6-4-1.1-1.3-2.4-2.3-3.9-3.2-2-1.2-4.3-2-6.6-2.4-2.5-.4-5-.5-7.5-.5-1 0-2.1 0-3.4.1l-3.7.2c-1.2 0-2.4.1-3.5.1s-2 .1-2.8.1v53.1h10v-15.6c1 .1 2 .2 2.7.3.8.1 1.7.1 2.8.1 1.8 0 3.6-.1 5.4-.4 1.5-.2 3-.6 4.5-1.2 1.7-.7 3.3-1.8 4.7-3.1 1.3-1.3 2.4-2.7 3.3-4.3.9-1.6 1.5-3.3 1.9-5.1.4-1.8.6-3.6.6-5.5 0-1.5-.2-3-.5-4.5-.3-1.3-.8-2.7-1.4-4.2zm-9 14.3c-.3 1.4-.9 2.6-1.8 3.7s-2 2-3.2 2.5c-1.5.7-3.2 1-4.9.9-1.7 0-3.4-.2-5.1-.4V109c1.8-.2 3.5-.3 5.3-.3 1.7-.1 3.3.3 4.8.9 1.3.6 2.4 1.5 3.2 2.7.8 1.2 1.4 2.6 1.7 4 .4 1.6.5 3.3.5 5 .1 1.6-.1 3.2-.5 4.7zm40.6-22.7c-1.9-.9-4-1.4-6.1-1.6-2.2-.2-4.5-.3-6.7-.3-1 0-2.1 0-3.3.1l-3.6.3c-1.2.1-2.3.3-3.5.4-.9.1-1.9.3-2.8.5v7.1c1.3-.3 3.1-.6 5.4-.9 2.4-.3 4.8-.5 7.3-.5 1.8 0 3.6.1 5.3.5 1.1.2 2 .7 2.8 1.5.6.7 1 1.7 1 2.6.1 1.1.1 2.3.1 3.8-2.7 0-5.4 0-8.3.1-2.7 0-5.3.4-7.9 1.2-2.2.6-4.3 1.7-5.9 3.3-1.5 1.5-2.3 3.8-2.3 6.7-.1 2.2.4 4.3 1.4 6.3.9 1.5 2.2 2.8 3.8 3.6 1.7.9 3.6 1.5 5.5 1.7 2.2.3 4.4.5 6.5.5 2.8.1 5.6.1 8.3-.1 2.7-.2 5.7-.4 8.9-.8v-25.6c.1-2.4-.4-4.8-1.7-6.8-.8-1.5-2.4-2.8-4.2-3.6zm-4 30.2c-1 .1-1.9.2-2.8.3-.9.1-1.9.1-3 .1s-2 0-3-.1c-.9-.1-1.7-.3-2.5-.6-.7-.3-1.3-.9-1.7-1.6-.9-1.9-.9-4 0-5.8.4-.7 1-1.3 1.7-1.6.8-.4 1.7-.6 2.5-.6 1-.1 2-.1 3-.1h5.9l-.1 10zm39.1-31.3l-8.7 29.3h-.6l-8.6-29.3h-11.1l13.8 37.4h3.6l-7.1 15.7h9.3c3.3-8.9 6.6-17.7 9.8-26.6 3.3-8.8 6.5-17.7 9.8-26.5h-10.2z"/></g></svg>