<svg xmlns="http://www.w3.org/2000/svg" xmlns:xlink="http://www.w3.org/1999/xlink" viewBox="0 0 120.062 42.023"><g transform="matrix(7.8317 0 0 -7.8317 -221.5 4440.515)"><defs><path id="a" d="M-24.083 543.298H95.979v42.023H-24.083z"/></defs><clipPath id="b"><use xlink:href="#a" overflow="visible"/></clipPath><g clip-path="url(#b)"><path fill="rgba(255,255,255,0.7582893557701882)" d="M34.054 562.59c-.658 0-1.192.558-1.192 1.248s.533 1.25 1.192 1.25c.658 0 1.192-.56 1.192-1.25 0-.314-.11-.6-.293-.819l-.474.6a.893.893 0 0 1-.15-.015.552.552 0 0 1-.163-.054.385.385 0 0 1-.127-.106.276.276 0 0 1 .002-.327c.036-.055.074-.108.114-.16l.243-.315a1.12 1.12 0 0 0-.344-.053m1.952 1.246a1.95 1.95 0 0 1-1.953 1.948 1.95 1.95 0 0 1-1.953-1.948 1.95 1.95 0 0 1 2.751-1.778l.228-.295s.302-.383.757.134l-.425.54c.367.355.595.85.595 1.4"/></g></g><g transform="matrix(7.8317 0 0 -7.8317 -221.5 4440.515)"><defs><path id="c" d="M-24.083 543.298H95.979v42.023H-24.083z"/></defs><clipPath id="d"><use xlink:href="#c" overflow="visible"/></clipPath><g clip-path="url(#d)"><path fill="rgba(255,255,255,0.7582893557701882)" d="M30.538 565.743a.562.562 0 0 1-.37.079s-.207-.03-.345-.1c-.338-.697-1.54-3.732-1.54-3.732h.754c.407 1.187 1.183 2.954 1.183 2.954.032-.03.285-.67.545-1.345h-.944c-.124-.677.364-.677.364-.677l.837.007c.2-.521.356-.94.356-.94h.813c-1.109 2.958-1.482 3.573-1.482 3.573s-.06.115-.17.18m9.361-3.753c-1.11 2.957-1.483 3.572-1.483 3.572s-.062.116-.173.182a.562.562 0 0 1-.37.079s-.207-.03-.345-.1c-.338-.697-1.54-3.732-1.54-3.732h.754c.407 1.187 1.183 2.954 1.183 2.954.032-.03.285-.67.545-1.345h-.944c-.124-.679.364-.678.364-.678l.838.008c.2-.52.356-.939.356-.939h.814z"/><path fill="rgba(255,255,255,0.9000000000000001)" d="M40.93 566.993a.55.55 0 0 1-.537-.563v-2.246c.106.224.288.6.475.94.686 1.402 1.591 1.252 2.194 1.405.26.066.46.355.526.464H40.93z"/><path fill="rgba(255,255,255,0.9000000000000001)" d="M43.344 565.544a1.834 1.834 0 0 0-.902-1.005c-.295-.149-.73-.148-1.092-.109-.41.027-.683-.004-.848-.444-.05-.142-.11-.374-.11-.374h2.683a.55.55 0 0 1 .536.563l.001 2.817c-.005-.215-.04-.874-.268-1.448"/></g></g></svg>