<svg xmlns="http://www.w3.org/2000/svg" width="244" height="144" viewBox="0 0 244 144"><g fill="rgba(255,255,255,0.9000000000000001)" fill-rule="evenodd"><path d="M173.192 99.585c-9.68-8.298-38.44-31.915-52.091-31.915-13.659 0-42.397 23.602-52.082 31.908-.058-1.962-.111-3.155-.111-4.901 0 0-.237-2.886 2.315-5.772 20.998-19.026 43.012-28.334 43.688-28.619 6.565-2.774 6.195-2.253 6.19-13.388 0 0 .292-.018.479.002 9.244.837 34.1 24.96 48.81 41.268.025.029 2.904 3.358 2.904 6.87 0 1.643-.049 3.266-.102 4.547m-.395-13.613c-1.563-1.734-38.373-42.364-51.697-42.364-13.322 0-50.133 40.63-51.693 42.362l-.002.002c-.153.17-3.746 4.277-3.746 9.066 0 3.727.248 7.479.25 7.515.008.173.095 1.758.976 2.188.142.071.296.106.455.106.328 0 .692-.147 1.088-.436.396-.35 37.896-33.471 52.672-33.471 14.779 0 52.278 33.12 52.655 33.455.409.3.778.452 1.11.452.16 0 .311-.036.455-.106.878-.43.965-2.015.972-2.195.002-.03.25-3.78.25-7.508 0-4.789-3.594-8.896-3.745-9.066m-26.472 51.302h-.016a51.1 51.1 0 0 1-2.973 0c-3.279 0-6.817-2.489-6.817-6.51 0-3.987 3.466-6.371 6.8-6.369a32.62 32.62 0 0 1 3.006-.002c3.35 0 6.819 2.384 6.819 6.371 0 4.021-3.54 6.51-6.819 6.51m3.197-15.392a242.47 242.47 0 0 0-9.44 0c-5.695 0-10.327 3.972-10.327 8.855 0 4.956 4.633 8.989 10.33 8.989.039 0 4.775.096 9.44 0 5.705 0 10.347-4.033 10.347-8.989 0-4.836-4.547-8.724-10.35-8.855m60.608 17.616l5.807-.001-.003-8.504c0-4.966-4.421-8.86-10.064-8.86l-14.689-.002c-.24 0-.8.061-.8.649l.003 16.058c0 .431.31.657.616.657l6.14.003-.003-13.434c0-.59.442-.9.879-.9l6.766-.004c1.871 0 4.64 1.716 4.64 5.4v8.26c0 .006.017.678.708.678m-122.55-13.92l9.061.002v-2.766c0-.388-.279-.681-.65-.681H70.734c-.41 0-.657.341-.657.67v2.774l6.038.003c2.264 0 3.785 1.953 3.785 3.777v9.48c0 .314.275.66.667.66l6.124.003v-13.033c0-.49.399-.89.887-.89m-27.92 13.26c0 .39.352.663.667.663h.346s-.027.022-.048.042c.176-.042.766-.042 2.824-.042l2.997-.002V122.79a.666.666 0 0 0-.65-.663h-5.47a.672.672 0 0 0-.662.662l-.004 16.048zm47.374-8.574v-3.467c0-.949.668-1.61 1.629-1.61h9.012c1.366 0 2.521 1.155 2.521 2.52a2.556 2.556 0 0 1-2.55 2.557h-10.612zm13.18 9.239h6.738c-.107-4.174-4.425-5.903-4.922-6.088l-.086-.032.005-.237.088-.02c2.886-.648 4.9-2.87 4.9-5.402 0-2.69-2.616-5.595-6.845-5.595l-16.294.004c-1.975 0-3.523 1.557-3.523 3.544v13.16a.63.63 0 0 0 .649.655l6.114.007-.004-6.159h5.775c5.136 0 7.248 3.732 7.405 6.163zm-70.845-11.543h6.594c-1.428-3.63-5.385-6.122-9.932-6.211l-2.026-.041c-3.177-.068-4.627-.1-7.408.041-3.25.165-5.295.91-7.298 2.666-1.954 1.714-3.032 3.978-3.034 6.38 0 4.967 4.391 8.865 10.214 9.069 3.991.142 4.418.147 9.652-.01 4.849-.147 8.327-2.357 9.826-6.208h-6.592a.614.614 0 0 0-.565.33c-1.193 2.07-3.479 3.354-5.961 3.354-1.356.056-2.992 0-2.992 0-3.35 0-6.818-2.434-6.818-6.505l.001-.038c.022-4.048 3.482-6.467 6.834-6.468a36.405 36.405 0 0 1 2.97 0c2.445 0 4.791 1.305 5.975 3.323.042.074.21.318.56.318m137.381 8.42h-15.965c-.538 0-.915-.36-.915-.874v-3.31h13.837v-3.047h-13.837l-.007-3.022c0-.013-.01-.34.234-.593.183-.189.45-.285.797-.285h15.853v-2.435c0-.208-.059-.37-.177-.484-.22-.212-.579-.198-.6-.197h-22.206c-.07 0-.676.018-.676.68l.001 13.151c0 1.739 1.328 3.535 3.552 3.535l19.447-.001c.16 0 .327-.07.456-.191a.63.63 0 0 0 .207-.456l-.001-2.472m-4.965-20.528c-.649-.404-1.43-.604-2.348-.604-.915 0-1.729.212-2.351.604-.62.388-1.116.91-1.85.91-.732 0-1.173-.522-1.833-.91-.663-.392-1.433-.604-2.35-.604s-1.697.2-2.35.604c-.648.396-.975.88-.975 1.441 0 .567.327 1.048.975 1.446.653.401 1.433.598 2.35.598.914 0 1.71-.193 2.299-.551.588-.36 1.222-.949 1.884-.949.664 0 1.264.528 1.852.904.59.373 1.435.596 2.349.596.943 0 1.737-.197 2.37-.598.636-.398.953-.88.953-1.446 0-.56-.325-1.045-.975-1.44"/><path d="M173.14 60.94c-9.671-8.288-38.401-31.883-52.04-31.883-13.644 0-42.354 23.58-52.029 31.876-.058-1.958-.111-3.151-.111-4.895 0 0-.236-2.883 2.313-5.766 20.977-19.007 42.97-28.306 43.644-28.59 6.559-2.773 6.189-2.252 6.184-13.375 0 0 .292-.019.479.001 9.234.837 34.065 24.936 48.76 41.227.026.029 2.902 3.355 2.902 6.863 0 1.642-.05 3.263-.102 4.543m-.395-13.6C171.183 45.61 134.411 5.018 121.1 5.018c-13.308 0-50.082 40.59-51.641 42.32l-.002.001c-.153.171-3.743 4.274-3.743 9.058 0 3.724.249 7.472.251 7.508.008.173.094 1.756.973 2.186.143.07.297.105.456.105.328 0 .691-.146 1.087-.435.395-.35 37.857-33.438 52.62-33.438 14.763 0 52.225 33.087 52.602 33.423.407.3.777.45 1.108.45.16 0 .311-.036.455-.105.877-.43.964-2.013.971-2.194.002-.028.249-3.776.249-7.5 0-4.784-3.59-8.887-3.74-9.058"/></g></svg>