<svg xmlns="http://www.w3.org/2000/svg" xmlns:xlink="http://www.w3.org/1999/xlink" width="284.417" height="109.807"><path d="M0 0h284.417v109.807H0z" fill="#00b9e7"/><path d="M.971.969h282.478v107.869H.971z" fill="#fff"/><path d="M128.776 44.764h1.343v6.909h-1.343z" fill="#131718"/><defs><path id="a" d="M0 0h302.885v128.218H0z"/></defs><clipPath id="b"><use xlink:href="#a" overflow="visible" width="100%" height="100%"/></clipPath><path clip-path="url(#b)" d="M145.13 55.189l-.916.743c-.318-.502-.716-.795-1.253-.795-.437 0-.816.209-.816.67 0 .397.289.565.766.795l.746.345c1.035.482 1.622 1.036 1.622 2.021 0 1.287-.995 2.072-2.298 2.072a2.815 2.815 0 0 1-2.537-1.528l.925-.733c.359.524.826 1.005 1.612 1.005.577 0 .935-.283.935-.764 0-.45-.318-.607-.835-.858l-.707-.335c-.935-.45-1.592-1.015-1.592-1.989 0-1.193.946-1.958 2.179-1.958 1.045 0 1.781.556 2.169 1.309m7.939 2.272c0 2.031-1.573 3.58-3.502 3.58-1.931 0-3.483-1.549-3.483-3.58s1.552-3.58 3.483-3.58c1.929 0 3.502 1.549 3.502 3.58m-5.602 0c0 1.34.886 2.271 2.109 2.271 1.204 0 2.109-.931 2.109-2.271 0-1.33-.905-2.271-2.109-2.271-1.223 0-2.109.941-2.109 2.271m13.977-1.099c0 .826-.358 1.381-.905 2.166l-1.632 2.387h-1.592l1.523-2.219h-.051c-1.095 0-2.169-.953-2.169-2.345 0-1.434 1.124-2.47 2.407-2.47 1.295 0 2.419 1.026 2.419 2.481m-1.333-.011c0-.659-.468-1.172-1.085-1.172-.597 0-1.084.502-1.084 1.172 0 .67.487 1.162 1.084 1.162.618 0 1.085-.502 1.085-1.162m7.471 1.057c0 1.99-.826 3.633-2.597 3.633-1.781 0-2.606-1.643-2.606-3.633 0-2.01.835-3.527 2.606-3.527 1.761 0 2.597 1.517 2.597 3.527m-3.82.011c0 1.444.367 2.313 1.224 2.313.855 0 1.215-.869 1.215-2.313 0-1.434-.359-2.229-1.215-2.229-.867 0-1.224.795-1.224 2.229m10.137-.011c0 1.99-.826 3.633-2.597 3.633-1.781 0-2.607-1.643-2.607-3.633 0-2.01.836-3.527 2.607-3.527 1.761 0 2.597 1.517 2.597 3.527m-3.82.011c0 1.444.368 2.313 1.224 2.313s1.214-.869 1.214-2.313c0-1.434-.358-2.229-1.214-2.229-.866 0-1.224.795-1.224 2.229m7.46-3.413v6.91h-1.343v-5.235l-1.244.42-.318-1.247 2.458-.848zm-39.483 11.937h1.343v6.909h-1.343zm6.875 1.184l-.916.743c-.318-.502-.716-.795-1.253-.795-.437 0-.816.209-.816.67 0 .396.289.564.766.795l.746.345c1.035.482 1.622 1.036 1.622 2.021 0 1.287-.995 2.071-2.298 2.071a2.814 2.814 0 0 1-2.537-1.527l.925-.733c.359.524.826 1.005 1.612 1.005.577 0 .935-.282.935-.764 0-.45-.318-.607-.835-.858l-.707-.335c-.935-.449-1.592-1.015-1.592-1.988 0-1.193.946-1.958 2.179-1.958 1.045-.001 1.78.554 2.169 1.308m7.739 2.271c0 2.031-1.572 3.58-3.502 3.58-1.93 0-3.482-1.549-3.482-3.58s1.552-3.58 3.482-3.58c1.93 0 3.502 1.549 3.502 3.58m-5.601 0c0 1.34.886 2.271 2.109 2.271 1.204 0 2.109-.932 2.109-2.271 0-1.33-.905-2.271-2.109-2.271-1.223.001-2.109.941-2.109 2.271m7.233 4.721h-1.424l5.204-9.431h1.422zm5.789-8.176h1.344v6.909h-1.344zm7.063 1.278h-3.074v1.402h2.259v1.204h-2.259v1.748h3.193v1.278h-4.537v-6.909h4.418zm7.104.314l-1.015.753c-.438-.731-1.055-1.161-1.881-1.161-1.224 0-2.119.942-2.119 2.282 0 1.329.896 2.261 2.119 2.261.826 0 1.442-.429 1.881-1.162l1.015.753c-.567 1.059-1.632 1.718-2.905 1.718-1.949 0-3.491-1.55-3.491-3.58 0-2.03 1.542-3.58 3.501-3.58a3.234 3.234 0 0 1 2.895 1.716m8.067 4.114v1.203l-4.846.011v-.303l2.349-2.68c.616-.702.925-1.183.925-1.738 0-.586-.348-1.015-.915-1.015-.558 0-.926.429-.926 1.057 0 .126.021.314.05.503h-1.353a2.526 2.526 0 0 1-.069-.587c0-1.14.875-2.281 2.317-2.281 1.313 0 2.279.941 2.279 2.209 0 1.016-.627 1.811-1.413 2.68l-.846.942h2.448zm5.312-5.705v.377l-3.004 6.532h-1.463l2.666-5.632h-2.815v-1.277zm5.79 3.402c0 1.99-.826 3.633-2.597 3.633-1.781 0-2.607-1.643-2.607-3.633 0-2.01.836-3.527 2.607-3.527 1.761-.001 2.597 1.517 2.597 3.527m-3.821.01c0 1.444.368 2.313 1.224 2.313s1.214-.869 1.214-2.313c0-1.434-.358-2.229-1.214-2.229-.866.001-1.224.796-1.224 2.229m9.939-.01c0 1.99-.826 3.633-2.597 3.633-1.781 0-2.606-1.643-2.606-3.633 0-2.01.835-3.527 2.606-3.527 1.761-.001 2.597 1.517 2.597 3.527m-3.82.01c0 1.444.367 2.313 1.224 2.313.855 0 1.215-.869 1.215-2.313 0-1.434-.359-2.229-1.215-2.229-.867.001-1.224.796-1.224 2.229m7.261-3.412v6.909h-1.342v-5.234l-1.245.419-.318-1.246 2.458-.848zm37.59 45.29c0 2.298-.868 4.24-2.945 4.24-2.09 0-2.958-1.942-2.958-4.24 0-2.347.917-4.095 2.958-4.095 2.041 0 2.945 1.749 2.945 4.095m-4.913.012c0 1.919.55 3.35 1.968 3.35 1.43 0 1.955-1.431 1.955-3.35 0-1.906-.525-3.227-1.955-3.227-1.431.001-1.968 1.321-1.968 3.227m12.427-.012c0 2.298-.868 4.24-2.945 4.24-2.09 0-2.958-1.942-2.958-4.24 0-2.347.917-4.095 2.958-4.095 2.041 0 2.945 1.749 2.945 4.095m-4.913.012c0 1.919.55 3.35 1.968 3.35 1.43 0 1.955-1.431 1.955-3.35 0-1.906-.525-3.227-1.955-3.227-1.431.001-1.968 1.321-1.968 3.227m11.827 1.516c0 1.54-1.223 2.714-2.75 2.714-1.516 0-2.75-1.161-2.75-2.726 0-1.003.513-1.676 1.112-2.567l2.005-2.908h1.136l-2.052 2.957c.194-.074.427-.109.671-.109a2.617 2.617 0 0 1 2.628 2.639m-.941 0c0-1.026-.782-1.833-1.809-1.833s-1.81.807-1.81 1.833c0 1.052.782 1.846 1.81 1.846 1.026-.001 1.809-.795 1.809-1.846m7.477.024c0 1.675-1.357 2.688-2.86 2.688-1.332 0-2.249-.794-2.738-1.674l.673-.477c.439.66 1.051 1.271 2.053 1.271 1.102 0 1.883-.722 1.883-1.797 0-1.039-.733-1.662-2.041-1.662h-.795v-.281l2.114-2.701h-3.336v-.88h4.84v.281l-2.139 2.75c1.16.111 2.346.918 2.346 2.482" transform="translate(-9.28 -9.242)" fill="#131718"/><path clip-path="url(#b)" d="M63.487 75.108c-6.413 0-11.611-5.198-11.611-11.611 0-6.412 5.198-11.61 11.611-11.61 3.644 0 6.894 1.679 9.023 4.305 2.684-2.175 5.781-4.682 9.024-7.308-4.258-5.251-10.76-8.608-18.047-8.608-12.826 0-23.221 10.396-23.221 23.221S50.661 86.72 63.487 86.72c7.286 0 13.789-3.357 18.045-8.608l-9.022-7.306a11.59 11.59 0 0 1-9.023 4.302" transform="translate(-9.28 -9.242)" fill="#0097dc"/><path clip-path="url(#b)" d="M72.51 70.805a11.57 11.57 0 0 0 2.589-7.309c0-2.767-.972-5.309-2.589-7.305l-9.023 7.307zm25.81-7.307a34.684 34.684 0 0 0-7.762-21.921l-9.025 7.308a23.116 23.116 0 0 1 5.176 14.613 23.116 23.116 0 0 1-5.176 14.613l9.025 7.309a34.694 34.694 0 0 0 7.762-21.922" transform="translate(-9.28 -9.242)" fill="#00b9e7"/><path clip-path="url(#b)" d="M81.534 48.884l-9.023 7.306a11.557 11.557 0 0 1 2.588 7.307c0 2.769-.971 5.312-2.588 7.306l9.023 7.308a23.128 23.128 0 0 0 5.176-14.614 23.133 23.133 0 0 0-5.176-14.613" transform="translate(-9.28 -9.242)" fill="#006aa1"/><path clip-path="url(#b)" d="M61.387 101.292c-.519.464-1.175.673-1.923.709-.756-.021-1.439-.273-1.954-.736-.538-.494-.803-1.138-.798-1.921.005-.768.278-1.419.808-1.924.515-.494 1.161-.755 1.931-.777a3.216 3.216 0 0 1 1.904.63l1.664-1.686a4.98 4.98 0 0 0-2.248-1.068 6.027 6.027 0 0 0-1.05-.116h-.032c-.065-.001-.128-.003-.195-.003l-.028.002h-.03c-.065 0-.13.003-.196.007-.01 0-.02 0-.03.002a5.898 5.898 0 0 0-1.053.14 5.18 5.18 0 0 0-2.437 1.271c-.99.93-1.497 2.109-1.505 3.554-.009 1.443.484 2.611 1.475 3.517a4.93 4.93 0 0 0 1.083.753c.768.382 1.631.576 2.589.564l.042-.002h.043c.959-.011 1.78-.269 2.551-.669.347-.186.673-.412.975-.677zm38.51 0c-.519.464-1.175.673-1.923.709-.756-.021-1.439-.273-1.954-.736-.538-.494-.803-1.138-.798-1.921.005-.768.278-1.419.808-1.924.515-.494 1.161-.755 1.931-.777a3.216 3.216 0 0 1 1.904.63l1.666-1.686a4.998 4.998 0 0 0-2.25-1.068 6.027 6.027 0 0 0-1.05-.116h-.032c-.065-.001-.128-.003-.195-.003l-.028.002h-.03c-.065 0-.13.003-.196.007-.01 0-.02 0-.03.002a5.898 5.898 0 0 0-1.053.14 5.18 5.18 0 0 0-2.437 1.271c-.99.93-1.497 2.109-1.505 3.554-.009 1.443.484 2.611 1.475 3.517a4.93 4.93 0 0 0 1.083.753c.768.382 1.631.576 2.589.564l.042-.002h.043c.959-.011 1.78-.269 2.551-.669.347-.186.673-.412.975-.677zm-31.375 2.946c-1.446 0-2.647-.478-3.602-1.447-.955-.968-1.432-2.142-1.432-3.519 0-1.379.477-2.553 1.432-3.521.955-.97 2.156-1.447 3.602-1.447 1.445 0 2.647.478 3.602 1.447.955.968 1.432 2.142 1.432 3.521 0 1.377-.477 2.551-1.432 3.519-.955.97-2.157 1.447-3.602 1.447m0-2.265c.723 0 1.31-.259 1.788-.764.477-.505.722-1.16.722-1.937 0-.777-.245-1.434-.722-1.938a2.353 2.353 0 0 0-1.788-.764c-.723 0-1.324.259-1.801.764-.477.505-.709 1.161-.709 1.938 0 .776.232 1.432.709 1.937.477.505 1.078.764 1.801.764m-20.783 2.265c-1.446 0-2.647-.478-3.602-1.447-.955-.968-1.432-2.142-1.432-3.519 0-1.379.477-2.553 1.432-3.521.955-.97 2.156-1.447 3.602-1.447 1.445 0 2.647.478 3.602 1.447.955.968 1.432 2.142 1.432 3.521 0 1.377-.477 2.551-1.432 3.519-.954.97-2.156 1.447-3.602 1.447m0-2.265c.723 0 1.31-.259 1.788-.764.477-.505.722-1.16.722-1.937 0-.777-.245-1.434-.722-1.938a2.353 2.353 0 0 0-1.788-.764c-.723 0-1.324.259-1.801.764-.477.505-.709 1.161-.709 1.938 0 .776.232 1.432.709 1.937.477.505 1.079.764 1.801.764M82.39 94.52h-8.201v2.154h2.364c.277 0 .502.226.502.502v6.895h2.456v-6.895c0-.276.225-.502.502-.502h2.377zm9.021 7.394h-4.286a.502.502 0 0 1-.501-.502v-1.157h3.659v-2.011h-3.659v-1.067c0-.277.224-.502.501-.502h4.178V94.52h-7.136v9.552h7.244zm-53.154-3.571c-1.908-.356-2.122-.728-2.095-1.123.044-.438.559-.658 1.289-.683a5.197 5.197 0 0 1 2.665.631l1.516-1.654c-1.172-.76-2.687-1.151-4.225-1.1-2.286.078-3.769 1.34-3.708 3.074v.026c.055 1.636 1.373 2.385 3.511 2.784 1.887.352 2.114.675 2.125 1.015l.002.027c.015.435-.738.726-1.581.754-1.06.037-2.285-.225-3.255-.961l-.015-.002-1.488 1.641.123.093c1.29.931 2.948 1.412 4.664 1.353 2.508-.085 4.056-1.457 3.997-3.158l-.001-.025c-.056-1.625-1.406-2.288-3.524-2.692m-8.74-15.329a2.168 2.168 0 0 1 .264-1.138l.789.332c-.26.541-.247 1.041.04 1.504.147.234.334.414.561.536.225.12.467.173.726.16.259-.015.511-.096.755-.247a1.55 1.55 0 0 0 .552-.568c.124-.225.18-.465.17-.719a1.495 1.495 0 0 0-.237-.738c-.288-.462-.732-.694-1.332-.698l.049-.854a2.09 2.09 0 0 1 1.136.26c.356.194.648.476.878.845.236.375.363.774.383 1.196.02.421-.065.817-.259 1.187a2.29 2.29 0 0 1-.841.902 2.321 2.321 0 0 1-2.362.061 2.452 2.452 0 0 1-.906-.871 2.333 2.333 0 0 1-.366-1.15m-1.676-4.797l.89 1.926.834-.387-.654-1.414.716-.332.654 1.414 1.04-.481-.925-1.998.76-.352 1.313 2.842-4.109 1.898-1.278-2.765zm2.202-4.896l-1.154 1.612.212.646 1.519-.497.289.881-4.303 1.407-.531-1.614a1.92 1.92 0 0 1-.09-.86c.038-.272.142-.509.309-.711.168-.2.389-.347.662-.437a1.394 1.394 0 0 1 1.472.355l1.291-1.773zm-1.717 2.512l-.242-.735c-.067-.205-.175-.346-.326-.424a.632.632 0 0 0-.507-.025.617.617 0 0 0-.385.32.693.693 0 0 0-.014.53l.242.738zm-2.947-6.361l.296 1.424 3.614-.75.189.908-3.616.75.294 1.417-.82.17-.776-3.749z" transform="translate(-9.28 -9.242)" fill="#131718"/><path transform="rotate(-96.962 17.935 67.506)" clip-path="url(#b)" d="M26.203 65.754h.927v4.528h-.927z" fill="#131718"/><path clip-path="url(#b)" d="M24.929 63.524l.088 2.05 1.131-.05-.072-1.679.836-.037.072 1.679 1.722-.075.04.926-4.523.197-.13-2.974z" transform="translate(-9.28 -9.242)" fill="#131718"/><path transform="rotate(-88.04 16.988 62.403)" clip-path="url(#b)" d="M25.95 59.959h.927v4.528h-.927z" fill="#131718"/><path clip-path="url(#b)" d="M24.851 57.049a2.18 2.18 0 0 1 .926-.713l.399.758c-.544.252-.851.648-.921 1.187-.037.277-.005.534.093.769.099.237.251.433.459.586.209.155.456.251.742.287.285.037.547.009.786-.087.238-.096.434-.245.587-.45a1.5 1.5 0 0 0 .286-.72c.07-.54-.127-1.001-.59-1.385l.581-.629c.324.24.563.549.713.923.152.375.2.778.144 1.208-.057.441-.212.83-.463 1.169a2.295 2.295 0 0 1-.953.754 2.29 2.29 0 0 1-1.222.162 2.314 2.314 0 0 1-1.866-1.45 2.472 2.472 0 0 1-.148-1.247c.055-.428.205-.802.447-1.122m4.636-3.554l-.474 1.789.504.397-.254.962-3.937-3.138.078-.299 4.974-.768-.255.962zm-2.452.307l1.324.976.31-1.168zm1.138-5.84l-.517 1.359 3.448 1.315-.33.865-3.449-1.314-.516 1.352-.781-.299 1.364-3.577z" transform="translate(-9.28 -9.242)" fill="#131718"/><path transform="rotate(-64.355 18.056 50.185)" clip-path="url(#b)" d="M29.577 45.168h.926v4.528h-.926z" fill="#131718"/><path clip-path="url(#b)" d="M30.731 42.039a2.356 2.356 0 0 1 1.181-.305c.421.002.815.117 1.185.344.371.227.653.527.845.899.194.374.28.772.264 1.192-.017.422-.14.82-.369 1.194a2.43 2.43 0 0 1-.895.868 2.317 2.317 0 0 1-2.362-.047 2.276 2.276 0 0 1-.846-.897 2.333 2.333 0 0 1-.267-1.186c.017-.419.139-.817.369-1.19.229-.374.527-.665.895-.872m-.391 2.049c-.007.254.052.492.18.718.127.225.314.414.559.564.246.15.498.232.757.242.258.012.499-.043.721-.165a1.49 1.49 0 0 0 .552-.539c.142-.234.219-.478.227-.733.01-.256-.05-.496-.177-.721a1.563 1.563 0 0 0-.559-.564 1.55 1.55 0 0 0-.751-.239 1.364 1.364 0 0 0-.726.167c-.226.122-.409.3-.553.534a1.454 1.454 0 0 0-.23.736m4.058-7.176l3.549 2.943-.197.238-3.828.231 2.09 1.734-.591.713-3.548-2.945.193-.232 3.821-.243-2.08-1.726z" transform="translate(-9.28 -9.242)" fill="#131718"/><path transform="rotate(-40.409 22.28 43.207)" clip-path="url(#b)" d="M39.012 32.955h.927v4.528h-.927z" fill="#131718"/><path clip-path="url(#b)" d="M42.559 30.098l2.64 3.779-.254.177-3.751-.793 1.556 2.227-.76.531-2.639-3.781.246-.172 3.75.778-1.548-2.215zm4.663-1.584l-1.287.677 1.723 3.266-.82.432-1.723-3.265-1.28.675-.39-.74 3.386-1.787zm3.664-1.464l-1.973.775.336.856 1.448-.569.289.734-1.449.57.418 1.066 2.049-.805.307.779-2.912 1.142-1.654-4.214 2.836-1.113zm4.753 2.489l-1.542-1.247-.656.174.407 1.545-.896.235-1.154-4.378 1.644-.434c.306-.08.593-.093.863-.038.269.053.501.17.691.349.192.18.324.409.398.686.073.279.07.546-.009.798-.08.253-.224.47-.432.652l1.694 1.392zm-2.407-1.863l.749-.197c.209-.055.356-.155.443-.302a.633.633 0 0 0 .055-.504.623.623 0 0 0-.299-.404c-.149-.083-.325-.099-.529-.045l-.75.199zm7.08-3.458l.594 4.572-.307.04-2.959-2.439.35 2.694-.92.119-.592-4.572.298-.038 2.965 2.423-.347-2.68zm4.144 3.859l-1.853-.003-.253.589h-.995l2.029-4.608h.309l2.012 4.613-.995-.001zm-.923-2.293l-.606 1.529 1.209.002zm5.932-.393l-1.445-.154-.389 3.671-.922-.097.39-3.67-1.44-.152.088-.833 3.807.402z" transform="translate(-9.28 -9.242)" fill="#131718"/><path transform="rotate(10.819 114.614 -26.563)" clip-path="url(#b)" d="M69.994 24.795h.926v4.528h-.926z" fill="#131718"/><path clip-path="url(#b)" d="M75.85 26.341c.294.303.495.656.6 1.062.105.407.096.818-.029 1.234a2.24 2.24 0 0 1-.651 1.048 2.352 2.352 0 0 1-1.085.561c-.41.091-.826.076-1.248-.05a2.42 2.42 0 0 1-1.068-.641 2.32 2.32 0 0 1-.563-2.294c.125-.415.341-.766.649-1.048a2.333 2.333 0 0 1 1.077-.563 2.42 2.42 0 0 1 1.245.049c.422.125.78.339 1.073.642m-2.081.149a1.351 1.351 0 0 0-.648.359 1.55 1.55 0 0 0-.4.686 1.572 1.572 0 0 0-.04.793c.056.252.172.47.345.654.175.184.396.314.663.394.264.078.519.09.768.032.248-.057.465-.176.651-.357.183-.181.318-.409.4-.687.08-.272.094-.534.039-.786a1.38 1.38 0 0 0-.349-.659 1.48 1.48 0 0 0-.658-.396 1.474 1.474 0 0 0-.771-.033m7.976 2.074l-1.933 4.186-.28-.13-1.205-3.639-1.139 2.466-.841-.388 1.931-4.186.276.127 1.218 3.63 1.132-2.455zm1.452 5.479l-1.564-.992-.531.363-.839-.533 4.176-2.811.26.166-.763 4.974-.839-.533zm.444-2.431l-1.329.97 1.02.646zm1.912 3.854l1.544 1.244-.524.651-2.267-1.822 2.841-3.527.721.58z" transform="translate(-9.28 -9.242)" fill="#131718"/><path clip-path="url(#b)" d="M217.634 24.05h60.79v80.14h-60.79z" transform="translate(-9.28 -9.242)" fill="#fff"/><path clip-path="url(#b)" d="M277.961 103.727h-59.862V24.515h59.862zm.926-80.141h-61.715v81.066h61.715z" transform="translate(-9.28 -9.242)" fill="#131718"/><path clip-path="url(#b)" d="M248.917 33.732c.916-.624.784-1.524.784-1.524 0-.676-.393-1.26-.958-1.542l-.016-.044c-.377-.353-.337-1.654-.337-1.654s.19-.08.477.05c0 0 .401.154.401.411h.249v-1.454h-.249c0 .261-.401.414-.401.414h-.104l-.372.005s-.133.057-.133-.3l.05-.476s.153-.402.412-.402v-.247h-1.455v.247c.26 0 .413.402.413.402l.052.476h-.027c0 .357-.14.3-.14.3l-.352-.005h-.125s-.401-.153-.401-.414h-.243v1.454h.243c0-.257.401-.411.401-.411l.109-.046s.178-.027.367-.004c0 0 .011 1.336-.335 1.654l-.04.059c-.553.285-.93.861-.93 1.527 0 0-.087 1.118.811 1.506" transform="translate(-9.28 -9.242)" fill="#131718"/><path clip-path="url(#b)" d="M249.029 33.896l-.225-.329c.804-.548.701-1.323.699-1.331a1.535 1.535 0 0 0-.85-1.393l-.073-.036-.026-.078c-.383-.428-.37-1.542-.363-1.768l.004-.127.118-.05c.028-.013.28-.11.636.053.026.01.227.09.369.244v-.756a1.106 1.106 0 0 1-.381.25l-.071.013-.452.005a.272.272 0 0 1-.189-.041c-.148-.099-.166-.309-.166-.459l.063-.547c.014-.034.095-.234.248-.379h-.753c.154.145.235.345.248.379l.013.05.074.696h-.067a.39.39 0 0 1-.149.258.266.266 0 0 1-.194.042l-.525-.017a1.108 1.108 0 0 1-.374-.245v.745c.144-.151.341-.23.374-.243l.151-.058c.01-.001.209-.03.423-.004l.173.022.001.174c.002.238-.01 1.442-.4 1.803l-.039.065-.044.023c-.507.262-.822.78-.822 1.351-.003.054-.063.997.691 1.322l-.158.366c-1.018-.438-.936-1.652-.931-1.704a1.903 1.903 0 0 1 .991-1.665l.013-.018c.197-.187.283-.843.299-1.351-.05.001-.09.005-.113.008l-.085.036c-.133.051-.279.16-.279.226v.199h-.643v-1.852h.643v.2c0 .068.132.164.241.214l.37.004a.768.768 0 0 0 .006-.1l-.019-.426c-.049-.112-.148-.252-.219-.252h-.199v-.645h1.854v.646h-.199c-.069 0-.168.14-.217.252l-.047.447c.001.016-.024.052-.024.08l.395-.005c.11-.05.243-.146.243-.214v-.2h.647v1.852h-.647v-.199c0-.066-.146-.175-.274-.224a.652.652 0 0 0-.206-.059c.004.497.085 1.152.275 1.332l.042.049c.615.34.994.977.994 1.682 0 .012.133 1.001-.875 1.687m-12.011 4.933a.648.648 0 0 0 .646-.646.647.647 0 1 0-.646.646m.046-1.739c.354 0 .646-.29.646-.646a.647.647 0 1 0-.646.646m.617-1.565a.648.648 0 0 0 .646-.646.647.647 0 0 0-1.292 0 .644.644 0 0 0 .646.646m1.231-1.232a.647.647 0 0 0 .646-.646.647.647 0 0 0-1.292 0c.001.357.29.646.646.646m1.5-.736a.646.646 0 1 0 0-1.291.646.646 0 0 0 0 1.291m1.849-.135a.648.648 0 0 0 .646-.646.648.648 0 0 0-.646-.646.646.646 0 1 0 0 1.292m1.727.482a.646.646 0 1 0 0-1.293.646.646 0 0 0 0 1.293m1.675.55a.648.648 0 0 0 .646-.646.647.647 0 0 0-1.292 0c0 .357.289.646.646.646m-7.614 5.14c-.101-.342-.452-.554-.793-.456a.646.646 0 0 0-.441.8c.101.344.498.539.838.441m20.355-.792a.65.65 0 0 1 .793-.456.644.644 0 0 1 .439.8c-.1.344-.495.539-.837.441" transform="translate(-9.28 -9.242)" fill="#131718"/><path clip-path="url(#b)" d="M248.917 33.732h.541l-.002.851a7.03 7.03 0 0 0 1.027-.107l.434-.09a6.308 6.308 0 0 0 1.298-.445l.417-.196a4.521 4.521 0 0 1 1.219-.29l.299-.023a4.7 4.7 0 0 1 1.205.125l.34.092s.641.218.671.25c.022.012.172.093.373.245l.207.169c.49.407 1.182 1.115 1.381 2.143l.021.084c.043.268.061.554.031.864.005.07.042.624-.163 1.339 0 0-.18.859-.211.903l.683 1.357-2.727 6.777s-7.286-3.19-15.882-.084l-2.709-6.686.681-1.357s-.851-2.706.005-4.107c0 0 .819-1.695 2.786-2.019 0 0 1.135-.259 2.258.108 0 0 .759.302.974.401.215.098.865.429 2.486.562l-.003-.864h.518" transform="translate(-9.28 -9.242)" fill="#131718"/><path clip-path="url(#b)" d="M256.069 48.044l-.188-.082c-.072-.031-7.315-3.122-15.735-.078l-.18.065-2.816-6.948.687-1.367c-.138-.47-.771-2.851.049-4.192.025-.055.878-1.775 2.924-2.112.036-.009 1.191-.263 2.352.116.013.004.779.309.995.409.257.119.843.392 2.203.525l-.003-.846h.718v.399h-.316l.002.882-.217-.018c-1.586-.131-2.268-.447-2.523-.566-.241-.111-.993-.41-.993-.41-1.042-.34-2.129-.102-2.141-.1-1.855.306-2.643 1.896-2.65 1.912-.809 1.324-.003 3.933.006 3.96l.023.076-.676 1.349 2.604 6.426c7.729-2.72 14.455-.39 15.658.076l2.618-6.508-.695-1.383.068-.097c.005-.031.101-.456.179-.83a3.922 3.922 0 0 0 .159-1.284 3.446 3.446 0 0 0-.028-.847l-.019-.065c-.146-.754-.588-1.437-1.314-2.04l-.206-.168a3.027 3.027 0 0 0-.337-.221l-.056-.04c-.007.003-.319-.108-.588-.2l-.329-.088a4.445 4.445 0 0 0-1.146-.118l-.29.023a4.263 4.263 0 0 0-1.159.276l-.407.191a6.405 6.405 0 0 1-1.339.459l-.436.091a7.362 7.362 0 0 1-1.069.111h-.199l.001-.851h-.341v-.398h.741l-.002.842a7.41 7.41 0 0 0 .794-.095l.425-.089c.471-.11.883-.251 1.253-.43l.42-.196a4.6 4.6 0 0 1 1.283-.308l.303-.024c.416-.013.836.03 1.266.129l.348.094c.51.174.661.236.72.272.059.031.207.118.392.257l.213.174c.801.664 1.289 1.424 1.45 2.259l.02.072c.054.33.064.629.036.932.013.122.03.677-.17 1.376a15.52 15.52 0 0 1-.188.831l.687 1.365-.034.083z" transform="translate(-9.28 -9.242)" fill="#131718"/><path clip-path="url(#b)" d="M246.562 38.482l-.002-3.133c-.063 0-1.61-.12-3.027-.804l-.011-.007-.008-.004c-.065-.041-1.504-.866-3.543.091-.064.036-1.635.964-1.501 2.785l.003.022-.003.023c0 .011-.047.989.446 1.937l.197.322s-.544.651-.454 1.447c0 0-.17 1.255.569 2.258 0 0 .984 1.987 2.753.568 0 0 1.155-.973.133-1.946 0 0-.618-.399-.841.177 0 0-.087.399.178.53 0 0-.752.221-1.063-.53 0 0-.353-.93.798-1.15 0 0 .708.086.576-.444 0 0-.355-1.196.175-1.948 0 0 .755.31.978 1.637 0 0 0 .664.618.222 1.197-.354 1.24.442 1.24.442.267.842-.664 1.241-.664 1.241a1.161 1.161 0 0 0-.043-.665c-.443-.354-.798.222-.798.222.088 1.194.709 1.638.709 1.638.619.664 1.37.53 1.37.53.843-.043.932-.22.932-.22 1.415-.975 1.107-1.993 1.107-1.993-.222 0-.488.089-.488.089-.884.31-1.329 1.106-1.329 1.106v.443h-.263v-3.894h.309c.043 1.15 1.24 1.326 1.24 1.326h.574v-.707c-.177-.753-1.062-1.15-1.062-1.15h-.444v-.403h4.203v.404h-.444s-.884.397-1.061 1.15v.706h.575s1.195-.176 1.238-1.326h.312v3.894h-.267v-.443s-.441-.796-1.327-1.106c0 0-.267-.089-.488-.089 0 0-.31 1.018 1.107 1.993 0 0 .087.177.929.22 0 0 .753.134 1.373-.53 0 0 .621-.444.711-1.638 0 0-.356-.576-.799-.222 0 0-.136.311-.045.665 0 0-.93-.399-.665-1.241 0 0 .045-.796 1.241-.442.619.442.619-.222.619-.222.222-1.327.973-1.637.973-1.637.532.752.179 1.948.179 1.948-.134.53.575.444.575.444 1.15.22.799 1.15.799 1.15-.311.751-1.063.53-1.063.53.265-.131.177-.53.177-.53-.222-.576-.841-.177-.841-.177-1.019.973.131 1.946.131 1.946 1.771 1.419 2.753-.589 2.753-.589.581-.615.579-2.244.579-2.244.089-.796-.454-1.447-.454-1.447l.197-.322c.492-.948.446-1.926.446-1.935l-.004-.025.004-.021c.133-1.821-1.439-2.749-1.501-2.786-2.04-.956-3.478-.132-3.543-.092l-.009.005-.011.007c-1.417.684-3.021.823-3.084.823v3.148" transform="translate(-9.28 -9.242)" fill="#fff"/><path clip-path="url(#b)" d="M240.753 44.697a1.55 1.55 0 0 1-.333-.036c-.887-.196-1.35-1.114-1.369-1.153-.761-1.027-.598-2.319-.59-2.373-.076-.635.249-1.196.413-1.431l-.129-.207a4.475 4.475 0 0 1-.475-2.046c-.142-1.958 1.528-2.957 1.599-2.998 2.217-1.042 3.737-.096 3.752-.086 1.391.671 2.929.782 2.941.783l.194.006.002.193.002 2.99h2.479v-3.177h.199c.011-.001 1.588-.123 2.997-.804.065-.04 1.586-.927 3.735.08.194.115 1.752 1.098 1.613 2.98.004.136.023 1.113-.468 2.059l-.134.22c.162.237.488.806.412 1.479.001.047-.004 1.658-.612 2.337-.086.162-.544.961-1.361 1.143-.533.121-1.104-.051-1.681-.514-.028-.024-.605-.52-.626-1.197-.012-.379.151-.732.482-1.048.068-.049.421-.27.766-.159.125.041.297.145.397.408a.934.934 0 0 1 .001.428c.179-.028.391-.13.516-.432 0 0 .101-.287-.035-.526-.096-.17-.294-.286-.588-.347-.12.007-.474.016-.666-.2-.077-.088-.156-.245-.094-.494.005-.017.274-.958-.054-1.624-.202.157-.566.546-.708 1.395.003.007-.005.361-.265.495-.173.088-.388.047-.638-.124-.364-.103-.641-.097-.8.015a.378.378 0 0 0-.154.257c-.123.401.056.678.241.846.021-.208.082-.352.086-.361l.059-.077a.654.654 0 0 1 .521-.149c.337.058.548.386.571.423l.033.055-.005.064c-.094 1.272-.763 1.764-.791 1.785a1.76 1.76 0 0 1-1.525.565c-.652-.033-.925-.155-1.03-.27-1.492-1.04-1.176-2.151-1.161-2.198l.043-.141h.147c.251 0 .539.095.552.099.7.246 1.141.764 1.331 1.032v-2.704c-.245.692-.931.982-1.321 1.04l-.801.002v-.907c.201-.885 1.139-1.314 1.178-1.332l.082-.017.245-.006-3.805.006.327.017c.039.018.977.447 1.174 1.286l.005.953h-.773c-.414-.06-1.104-.349-1.349-1.038v2.697c.189-.268.629-.784 1.326-1.028.015-.005.302-.1.553-.1h.147l.043.141c.016.047.331 1.158-1.16 2.199-.106.114-.383.236-1.059.272-.006.004-.842.14-1.525-.595-.007 0-.669-.494-.763-1.758l-.004-.064.033-.055c.022-.037.232-.364.569-.423a.646.646 0 0 1 .522.149l.04.032.02.047c.004.009.063.153.083.361.187-.163.367-.429.25-.799l-.009-.05a.376.376 0 0 0-.157-.259c-.159-.11-.435-.113-.796-.012-.25.172-.467.213-.639.124-.26-.134-.267-.488-.267-.528-.141-.825-.504-1.208-.708-1.363-.33.668-.058 1.607-.054 1.617.064.258-.016.415-.093.503-.192.215-.546.209-.665.199-.295.061-.493.178-.589.347-.137.24-.033.529-.032.532.123.298.333.399.511.426a.916.916 0 0 1-.007-.399c.11-.292.281-.397.407-.438.337-.107.696.111.737.136.361.339.523.692.512 1.072-.02.677-.601 1.174-.626 1.194-.461.373-.916.558-1.354.558m1.167-10.335c-.52 0-1.151.108-1.865.443-.046.028-1.51.904-1.386 2.591l.001.061c-.005.106-.021.989.422 1.843l.268.431-.092.11c-.005.006-.489.599-.411 1.298-.002.06-.147 1.238.533 2.162.022.037.419.818 1.119.971.416.089.87-.057 1.348-.44.001-.001.467-.403.48-.902.008-.26-.113-.511-.359-.745-.03-.015-.238-.113-.368-.068-.023.008-.096.031-.15.173-.002.022-.021.23.08.28l.454.227-.486.143c-.316.09-1.001.08-1.303-.646-.009-.024-.172-.465.055-.869.157-.284.458-.47.891-.553l.029-.006.031.004c.115.015.299-.003.353-.065.026-.029.018-.089.007-.134-.014-.043-.374-1.288.206-2.11l.092-.13.147.061c.035.014.858.368 1.096 1.788.004.107.033.196.055.206 0-.001.066.019.253-.113l.06-.029c.508-.151.904-.129 1.174.062.254.18.308.442.318.532.235.79-.406 1.302-.782 1.463l-.369.159.098-.391a.948.948 0 0 0-.017-.49c-.087-.053-.141-.041-.161-.039-.106.019-.209.121-.265.192.096 1.02.6 1.403.621 1.419.567.604 1.211.5 1.218.496.672-.036.813-.15.815-.151l.022-.046.016.009c.961-.661 1.062-1.319 1.051-1.613a1.739 1.739 0 0 0-.255.062c-.69.242-1.092.814-1.192.973v.586h-.662v-4.293h.7l.007.192c.036.973 1.028 1.131 1.07 1.137l.346-.001v-.509c-.128-.526-.751-.871-.908-.951h-.598v-.803h.638l-.002-2.808c-.476-.051-1.727-.234-2.915-.807-.036-.018-.603-.362-1.528-.362m12.442 7.743a.693.693 0 0 0-.32.104c-.215.21-.336.461-.328.722.014.498.477.9.481.904.474.379.932.524 1.34.433.706-.159 1.101-.95 1.104-.958l.035-.049c.43-.456.523-1.675.523-2.107.079-.72-.403-1.314-.408-1.32l-.091-.109.271-.444c.437-.843.42-1.723.416-1.821l-.001-.062c.122-1.653-1.244-2.515-1.401-2.608-1.944-.912-3.326-.101-3.34-.093-1.225.595-2.52.789-3.006.844v2.798h.688v.803h-.598c-.157.08-.78.43-.913.996l.003.463h.379c.013-.004 1.003-.168 1.039-1.135l.007-.192h.702v4.293h-.664v-.586c-.102-.159-.506-.733-1.192-.974-.002 0-.119-.039-.254-.062-.012.294.09.952 1.052 1.614l.063.071c0-.013.14.082.762.114.049.008.683.105 1.218-.468.05-.04.553-.424.649-1.444-.056-.071-.157-.174-.266-.192a.22.22 0 0 0-.16.039.927.927 0 0 0-.019.489l.101.393-.372-.16c-.379-.163-1.029-.682-.776-1.483a.732.732 0 0 1 .313-.512c.273-.191.668-.211 1.174-.062l.06.029c.164.117.24.117.253.113.022-.011.051-.107.051-.173.24-1.452 1.061-1.807 1.096-1.821l.147-.061.092.13c.581.822.223 2.066.207 2.119-.01.037-.018.096.008.125.055.063.244.079.354.065l.03-.004.03.006c.433.083.732.269.891.552.226.405.063.846.057.864-.301.731-.984.745-1.306.652l-.489-.143.456-.227c.118-.058.071-.307.071-.31-.046-.112-.116-.135-.141-.143a.245.245 0 0 0-.078-.012m4.676-3.283a.647.647 0 0 1 0-1.292.647.647 0 0 1 0 1.292m-.047-1.739a.648.648 0 0 1-.646-.646.647.647 0 1 1 .646.646m-.616-1.565a.645.645 0 1 1 .003-1.29.645.645 0 0 1-.003 1.29m-1.231-1.232a.646.646 0 1 1 .001-1.291.646.646 0 0 1-.001 1.291m-1.5-.736a.646.646 0 1 1 0-1.291.646.646 0 0 1 0 1.291m-1.849-.134a.647.647 0 0 1 0-1.292.647.647 0 0 1 0 1.292" transform="translate(-9.28 -9.242)" fill="#131718"/><path clip-path="url(#b)" d="M252.068 33.897a.646.646 0 1 1 0-1.291.646.646 0 0 1 0 1.291m-1.674.55a.646.646 0 1 1 0-1.293.646.646 0 0 1 0 1.293m6.562 8.719s-.322-.442-.886.088c0 0-.443.356-.708.827h-.322l1.651-3.838.06.386s-.239 1.092 0 1.504c0 0 .232.357.527.122" transform="translate(-9.28 -9.242)" fill="#131718"/><path clip-path="url(#b)" d="M255.479 44.28h-.741l2.043-4.75.175 1.105-.01.037c-.086.393-.168 1.11-.021 1.361.016.023.079.093.138.101.007.002.04.006.093-.035l.248.311a.51.51 0 0 1-.406.118c-.246-.04-.396-.262-.412-.287-.137-.234-.151-.612-.127-.948l-.979 2.276c.23-.277.453-.459.467-.47.232-.22.486-.326.715-.302a.664.664 0 0 1 .458.252l-.322.234.162-.117-.16.12a.263.263 0 0 0-.18-.093c-.119-.01-.259.064-.41.207a3.08 3.08 0 0 0-.671.778z" transform="translate(-9.28 -9.242)" fill="#131718"/><path clip-path="url(#b)" d="M249.155 32.493c.06.065.358.055.374-.224.008-.165-.016-.353-.183-.412l-.441-.047h-.651.025v-1.136c0-.136-.161-.209-.161-.209h-.215c-.112 0-.146.209-.146.209v1.136h-.688l-.443.047c-.17.059-.222.247-.222.412 0 .177.244.289.408.224.001 0 1.145-.122 2.343 0m-1.166 5.837a.411.411 0 1 0 0-.822.411.411 0 0 0 0 .822m0-.977a.411.411 0 1 0 0-.822.411.411 0 0 0 0 .822m0-3.068a.411.411 0 1 0 0-.822.411.411 0 0 0 0 .822m0 1.031a.411.411 0 1 0 0-.822.411.411 0 0 0 0 .822m0 1.018a.411.411 0 1 0 0-.822.411.411 0 0 0 0 .822" transform="translate(-9.28 -9.242)" fill="#fff"/><path clip-path="url(#b)" d="M247.235 38.553h-.219v-4.617h.219zm1.673-.002h-.219l.001-4.615h.219zm-.919-2.929a.302.302 0 1 0 0 .603.302.302 0 0 0 0-.603" transform="translate(-9.28 -9.242)" fill="#fff"/><path transform="rotate(-108.547 248.308 45.076)" clip-path="url(#b)" d="M255.768 45.846h1.029v1.029h-1.029z" fill="#fff"/><path clip-path="url(#b)" d="M255.832 47.263l-.453-1.353 1.353-.451.453 1.352zm.051-1.101l.201.597.597-.2-.201-.596z" transform="translate(-9.28 -9.242)" fill="#131718"/><path transform="rotate(-71.453 228.735 48.16)" clip-path="url(#b)" d="M239.293 45.818h1.029v1.028h-1.029z" fill="#fff"/><path clip-path="url(#b)" d="M240.257 47.235l-1.353-.452.453-1.353 1.353.452zm-.849-.704l.597.2.201-.597-.597-.2zm-.308-3.359s.322-.442.886.088c0 0 .443.356.708.827h.322l-1.65-3.838-.061.386s.239 1.092 0 1.506c0 0-.263.352-.559.116" transform="translate(-9.28 -9.242)" fill="#131718"/><path clip-path="url(#b)" d="M241.318 44.286h-.741l-.058-.102a3.091 3.091 0 0 0-.658-.768c-.163-.153-.303-.224-.423-.216-.112.008-.177.089-.18.092l-.32-.237a.668.668 0 0 1 .458-.252c.242-.022.484.084.727.313.005.003.227.183.455.459l-.978-2.274c.023.335.01.71-.123.94-.032.044-.2.26-.455.293a.537.537 0 0 1-.4-.121l.248-.311c.049.039.081.038.101.037.076-.009.154-.091.176-.119.132-.232.05-.949-.036-1.342l-.009-.037.174-1.104z" transform="translate(-9.28 -9.242)" fill="#131718"/><path transform="rotate(-135.048 241.475 42.493)" clip-path="url(#b)" d="M247.45 44.629h1.144v1.141h-1.144z" fill="#fff"/><path clip-path="url(#b)" d="M248.022 46.289l-1.09-1.089 1.09-1.092 1.088 1.092zm-.526-1.089l.526.526.525-.526-.525-.527z" transform="translate(-9.28 -9.242)" fill="#131718"/><path clip-path="url(#b)" d="M253.267 45.139l-1.394-.177c-.327-.042-.619.149-.652.424-.037.279.198.538.524.578l1.395.178c.327.042.619-.148.656-.425.033-.278-.202-.535-.529-.578" transform="translate(-9.28 -9.242)" fill="#fff"/><path clip-path="url(#b)" d="M253.229 46.347a1.09 1.09 0 0 1-.114-.007l-1.395-.179a.833.833 0 0 1-.559-.308.665.665 0 0 1-.139-.492.655.655 0 0 1 .254-.436.84.84 0 0 1 .622-.161l1.395.177c.439.059.747.41.701.799-.048.353-.38.607-.765.607m-1.446-1.192a.425.425 0 0 0-.262.084.26.26 0 0 0-.104.171.263.263 0 0 0 .06.199.434.434 0 0 0 .292.157l1.396.178c.222.032.411-.087.434-.254.02-.165-.141-.325-.358-.353l-1.393-.178a.473.473 0 0 0-.065-.004" transform="translate(-9.28 -9.242)" fill="#131718"/><path clip-path="url(#b)" d="M242.855 45.095l1.395-.177c.326-.042.62.149.653.424.034.279-.2.538-.524.578l-1.396.178c-.326.042-.619-.148-.656-.425-.033-.279.201-.535.528-.578" transform="translate(-9.28 -9.242)" fill="#fff"/><path clip-path="url(#b)" d="M242.892 46.303c-.386 0-.717-.253-.763-.604-.046-.393.262-.743.699-.802h.001l1.396-.176a.84.84 0 0 1 .621.159.655.655 0 0 1 .255.438.659.659 0 0 1-.141.493.838.838 0 0 1-.557.307l-1.396.178a.898.898 0 0 1-.115.007m-.011-1.01c-.216.028-.376.189-.355.357.02.162.213.279.431.25l1.397-.178a.433.433 0 0 0 .292-.156.275.275 0 0 0 .061-.199.268.268 0 0 0-.104-.172.443.443 0 0 0-.325-.079z" transform="translate(-9.28 -9.242)" fill="#131718"/><path clip-path="url(#b)" d="M239.971 34.625c2.04-.956 3.477-.132 3.544-.092l.008.005.01.007c1.415.684 2.964.804 3.028.804l.015 1.259c-.069.027-3.095-.322-3.565-.549-.467-.227-1.256-.242-1.752.442l-.069-.028s-1.418-.496-2.652.591l-.069-.042c-.002 0-.02-1.403 1.502-2.397m16.115-.006c-2.04-.956-3.477-.132-3.544-.092l-.008.005-.01.007c-1.417.684-3.021.824-3.085.824l.029 1.239c.067.027 3.096-.322 3.563-.549.469-.227 1.261-.242 1.755.442l.067-.027s1.42-.497 2.651.59l.067.026c.001-.001.054-1.52-1.485-2.465" transform="translate(-9.28 -9.242)" fill="#fff"/><path clip-path="url(#b)" d="M240.755 44.688c-.111 0-.223-.012-.333-.036-.886-.196-1.35-1.114-1.369-1.153-.76-1.026-.598-2.319-.59-2.373-.075-.635.25-1.196.413-1.431l-.128-.205a4.49 4.49 0 0 1-.476-2.048l.004-.033c-.117-1.941 1.525-2.924 1.596-2.965 2.198-1.032 3.738-.095 3.752-.085 1.39.67 2.929.781 2.941.782l.194.006.002.193.001 2.991h2.479v-3.177h.199c.011 0 1.59-.122 2.998-.804.064-.042 1.582-.931 3.733.079.087.049 1.757 1.036 1.615 2.98l-.002.015.002.012a4.434 4.434 0 0 1-.469 2.032l-.135.22c.163.237.488.806.415 1.479.001.048-.006 1.659-.612 2.337-.085.162-.544.96-1.36 1.143-.541.122-1.105-.051-1.684-.513-.028-.025-.606-.521-.627-1.198-.012-.379.152-.732.482-1.048.069-.049.423-.27.767-.159.125.041.297.145.397.408a.93.93 0 0 1 .001.427c.179-.027.39-.129.514-.431.016-.043.161-.474-.228-.725a1.185 1.185 0 0 0-.395-.148c-.113.007-.474.016-.664-.2-.078-.088-.157-.244-.095-.494.005-.017.275-.958-.052-1.624-.204.156-.567.546-.71 1.395.003.007-.005.361-.265.495-.173.088-.388.047-.638-.124-.36-.102-.635-.098-.797.012a.373.373 0 0 0-.155.261c-.123.397.056.675.239.843.021-.207.082-.35.086-.359l.059-.077a.641.641 0 0 1 .521-.149c.336.059.546.386.569.423l.033.055-.004.064c-.093 1.272-.763 1.764-.791 1.785a1.756 1.756 0 0 1-1.525.565c-.653-.033-.926-.155-1.032-.269-1.489-1.041-1.174-2.151-1.159-2.198l.043-.142h.147c.251 0 .538.095.551.099.701.246 1.141.762 1.331 1.03V39.95c-.245.691-.931.981-1.32 1.039l-.803.002v-.907c.201-.885 1.139-1.314 1.178-1.332l.082-.017.246-.006-3.806.006.326.017c.039.018.977.447 1.174 1.286l.005.953h-.773c-.415-.06-1.106-.351-1.352-1.044v2.706c.189-.267.63-.786 1.327-1.031.016-.005.304-.1.556-.1h.147l.043.142c.015.047.33 1.157-1.16 2.198-.106.114-.382.236-1.058.272-.01.004-.842.14-1.528-.594-.007 0-.667-.494-.761-1.759l-.005-.064.033-.055c.023-.037.233-.364.57-.423a.645.645 0 0 1 .521.149l.04.032.02.047c.004.009.064.153.084.362.186-.164.367-.429.25-.8-.009-.053-.024-.212-.167-.309-.159-.11-.436-.114-.796-.012-.25.172-.465.213-.638.124-.26-.134-.267-.488-.267-.528-.142-.825-.505-1.208-.709-1.363-.329.667-.058 1.607-.055 1.617.064.258-.015.414-.093.502-.191.216-.548.207-.665.2-.296.061-.494.179-.589.349-.134.24-.031.526-.03.529.123.298.333.399.51.427a.903.903 0 0 1-.005-.4c.109-.291.28-.395.406-.436.337-.111.696.11.736.135.361.339.523.692.512 1.072-.02.677-.601 1.174-.626 1.194-.456.371-.91.558-1.349.558m1.157-10.329c-.521 0-1.15.107-1.854.437-.047.028-1.511.904-1.387 2.591l.006.034-.005.035c-.005.098-.021.982.423 1.837l.267.428-.092.111c-.005.006-.488.599-.411 1.298-.002.06-.146 1.239.533 2.162.022.037.42.818 1.119.971.415.091.87-.057 1.348-.44.001-.001.467-.403.48-.902.008-.26-.113-.511-.359-.745-.029-.015-.23-.113-.367-.068-.023.008-.095.031-.148.17.004 0-.034.228.078.283l.456.226-.488.144c-.317.091-1 .08-1.303-.646-.009-.024-.173-.465.054-.87.157-.283.458-.469.89-.552l.029-.006.031.004c.112.014.3-.002.354-.065.025-.029.018-.088.006-.133-.014-.044-.374-1.289.207-2.111l.092-.13.147.061c.035.014.858.368 1.097 1.788.004.108.033.196.054.206.011.005.088.005.253-.113l.06-.029c.506-.15.901-.13 1.174.062.294.207.32.525.322.56.244.753-.406 1.272-.785 1.435l-.368.158.097-.389a.952.952 0 0 0-.019-.492.22.22 0 0 0-.16-.037c-.109.019-.211.123-.265.191.097 1.02.599 1.403.62 1.419.562.596 1.194.5 1.221.496.671-.036.813-.15.814-.151l.022-.046.016.009c.959-.661 1.061-1.32 1.05-1.613a1.98 1.98 0 0 0-.257.062c-.684.241-1.089.814-1.19.973v.587h-.664v-4.294h.701l.008.192c.037.973 1.028 1.131 1.07 1.138l.346-.001v-.51c-.128-.526-.751-.871-.908-.951h-.597v-.802h.637l-.001-2.809c-.477-.051-1.728-.234-2.916-.807-.037-.019-.614-.356-1.538-.356m12.452 7.737a.693.693 0 0 0-.32.104c-.216.21-.336.461-.329.722.014.498.478.9.482.904.474.378.921.525 1.342.433.706-.159 1.101-.95 1.104-.957l.034-.05c.43-.455.524-1.675.524-2.107.077-.72-.406-1.314-.411-1.32l-.091-.109.272-.444a3.977 3.977 0 0 0 .417-1.821l-.008-.041.008-.038c.124-1.69-1.338-2.554-1.401-2.59-1.944-.912-3.329-.102-3.343-.094-1.222.596-2.519.791-3.005.846v2.797h.689v.802h-.599c-.157.08-.78.43-.913.996l.003.464h.378c.013-.005 1.003-.169 1.04-1.136l.008-.192h.7v4.294h-.663v-.587c-.102-.159-.506-.732-1.195-.974 0 0-.118-.038-.252-.061-.012.293.09.951 1.05 1.613l.063.069c-.012-.019.157.085.765.116.048.009.684.105 1.218-.468.05-.04.554-.424.648-1.444-.056-.071-.158-.173-.265-.191-.035-.007-.089-.008-.16.038a.942.942 0 0 0-.019.49l.099.391-.37-.159c-.376-.161-1.018-.673-.78-1.463a.77.77 0 0 1 .316-.531c.271-.191.666-.214 1.175-.063l.06.029c.165.117.24.118.253.113.022-.011.051-.107.051-.173.24-1.452 1.063-1.807 1.098-1.821l.147-.061.092.13c.58.822.221 2.066.205 2.119-.01.037-.018.096.009.125.055.063.244.079.353.065l.03-.004.031.006c.218.042.406.112.561.209.537.347.485.941.384 1.208-.301.729-.984.744-1.305.651l-.491-.144.459-.226c.116-.058.071-.306.071-.309-.046-.113-.117-.136-.141-.144a.245.245 0 0 0-.078-.012m-25.189 42.059c0-1.344.025-2.018.025-2.914 0-1.321-.025-2.156-.052-2.566.337.036.686.061 1.022.061.336 0 .686-.024 1.022-.061-.162 1.619-.175 2.916-.175 4.358 0 3.042.873 3.539 2.492 3.539 1.992 0 2.131-2.155 2.131-4.472 0-1.146-.036-2.281-.101-3.426.212.036.424.061.636.061.213 0 .411-.024.623-.061-.075.733-.161 2.515-.161 4.671 0 2.891-1.26 4.088-3.677 4.088-2.129.001-3.785-.936-3.785-3.278m13.902-.797c0 1.794 0 3.128.1 3.913-.274-.025-.611-.062-1.021-.062-.411 0-.748.036-1.024.062.077-1.097.102-2.057.102-3.452v-1.693c0-1.396-.024-2.356-.102-3.452.276.024.613.063 1.024.063.409 0 .746-.038 1.021-.063-.1.661-.1 2.368-.1 3.976 1.122-1.32 2.74-3.34 3.178-3.976.237.024.461.063.696.063.225 0 .462-.038.748-.063-.562.561-2.566 2.779-3.216 3.588 1.073 1.621 2.731 4.125 3.403 5.01-.485-.025-.847-.062-1.208-.062-.362 0-.724.036-1.085.062-.823-1.309-1.669-2.618-2.492-3.913h-.024zm15.398 3.913c-.398-.026-.748-.063-1.097-.063s-.711.037-1.058.063a50.452 50.452 0 0 0-.862-2.554c-.534-.013-1.058-.027-1.594-.027-.436 0-.859.015-1.295.027a24.487 24.487 0 0 0-.849 2.554c-.197-.026-.385-.063-.586-.063-.198 0-.385.037-.622.063.611-1.384 2.48-5.818 3.551-8.66.163.024.313.063.476.063.163 0 .312-.038.472-.063 1.06 2.842 2.515 6.63 3.464 8.66m-3.302-3.29c-.362-1.01-.711-1.992-1.109-2.966a47.208 47.208 0 0 0-1.171 2.966zm10.752-3.626c-.262-.709-.748-1.072-1.507-1.072-.761 0-1.296.525-1.296 1.122 0 1.845 3.788 1.384 3.788 4.211 0 1.669-1.321 2.818-3.303 2.818-.896 0-1.646-.264-2.006-.538a12.18 12.18 0 0 0 .36-1.582h.237c.137.723.711 1.345 1.721 1.345.972 0 1.456-.571 1.456-1.27 0-1.881-3.712-1.382-3.712-4.211 0-1.719 1.319-2.667 2.804-2.667.896 0 1.569.236 2.043.608-.15.388-.237.688-.399 1.235h-.186z" transform="translate(-9.28 -9.242)" fill="#131718"/><path clip-path="url(#b)" d="M237.627 53.473v12.575l8.786 9.82 17.398-25.84-.172-9.476-17.226 24.463zm-12.007 38.21c-.145 1.03-.205 2.067-.274 3.098a1.772 1.772 0 0 0-.319-.033 1.84 1.84 0 0 0-.321.033 78.66 78.66 0 0 0 .703-4.709c.097.021.185.035.279.035.09 0 .185-.015.272-.035.5 1.085 1.079 2.3 1.578 3.262a60.183 60.183 0 0 0 1.589-3.262c.097.021.198.035.295.035.094 0 .191-.015.286-.035.177 1.569.415 3.746.586 4.709a5.076 5.076 0 0 0-.551-.033c-.187 0-.377.014-.568.033-.048-.948-.163-2.107-.271-3.166h-.016a232.474 232.474 0 0 0-1.507 3.166.83.83 0 0 0-.13-.013.83.83 0 0 0-.13.013c-.485-1.03-.976-2.067-1.488-3.098zm9.267 3.098c-.217-.015-.409-.035-.601-.035s-.387.021-.579.035a29.507 29.507 0 0 0-.471-1.4c-.294-.006-.581-.014-.873-.014-.239 0-.472.008-.709.014-.187.464-.336.93-.467 1.4-.108-.015-.21-.035-.32-.035-.11 0-.212.021-.34.035.334-.758 1.358-3.188 1.943-4.744.089.014.171.035.262.035.088 0 .17-.021.259-.035.579 1.557 1.378 3.631 1.896 4.744m-1.808-1.802c-.197-.552-.389-1.092-.608-1.624a26.72 26.72 0 0 0-.641 1.624zm2.436-2.908c.103.021.205.035.308.035.102 0 .205-.015.307-.035.983 1.086 1.96 2.163 2.961 3.248 0-1.085 0-2.94-.046-3.248.102.021.203.035.305.035.104 0 .207-.015.31-.035-.11 1.985-.11 2.894-.11 4.71a1.275 1.275 0 0 0-.278-.035c-.098 0-.185.015-.268.035a76.287 76.287 0 0 0-2.982-3.317c-.014.513-.014 1.078-.014 1.591 0 1.09.021 1.474.041 1.727a1.7 1.7 0 0 0-.319-.035 1.65 1.65 0 0 0-.314.035c.034-.197.137-1.958.137-3.353-.003-.614-.031-1.031-.038-1.358m8.907 4.71c-.219-.015-.409-.035-.602-.035-.191 0-.389.021-.578.035a29.523 29.523 0 0 0-.472-1.4c-.294-.006-.581-.014-.873-.014-.238 0-.471.008-.709.014-.186.464-.336.93-.466 1.4-.108-.015-.212-.035-.321-.035-.109 0-.212.021-.342.035.336-.758 1.359-3.188 1.946-4.744.089.014.171.035.261.035.088 0 .17-.021.259-.035.579 1.557 1.378 3.631 1.897 4.744m-1.808-1.802c-.199-.552-.39-1.092-.608-1.624a25.474 25.474 0 0 0-.641 1.624zm5.965-1.89c-.286-.409-.724-.684-1.345-.684-.845 0-1.72.703-1.72 2.138 0 1.085.607 1.902 1.66 1.902.231 0 .632-.047.741-.122.021-.109.021-.28.021-.478 0-.737-.04-1.044-.046-1.173.088.012.225.033.504.033.329 0 .464-.021.554-.033-.035.142-.055.709-.055 1.145 0 .287.006.649.02.751-.593.172-1.22.301-1.82.301-1.571 0-2.696-.895-2.696-2.286 0-1.733 1.22-2.6 2.824-2.6.689 0 1.153.15 1.644.409-.073.232-.147.462-.189.696h-.097zm1.249.873c0-.764-.013-1.29-.055-1.891.403.008.813.035 1.215.035.669 0 1.242-.013 1.425-.035-.011.083-.026.165-.026.287 0 .143.016.204.026.307a42.41 42.41 0 0 0-1.54-.082c-.034.498-.034.988-.034 1.487a48.237 48.237 0 0 0 1.548-.053 1.685 1.685 0 0 0-.034.307c0 .074.015.135.036.279a20.119 20.119 0 0 0-1.55-.063c0 .287-.008.581-.008.875 0 .285.008.579.021.852.513 0 1.038-.027 1.562-.088-.011.096-.026.165-.026.307 0 .143.016.212.026.294-.245-.007-.563-.034-1.19-.034-1.114 0-1.3.021-1.449.034.042-.601.055-1.125.055-1.89v-.928zm3.917-.279c-.144 1.03-.205 2.067-.273 3.098a1.792 1.792 0 0 0-.32-.033 1.85 1.85 0 0 0-.321.033c.287-1.568.514-3.14.703-4.709a1.3 1.3 0 0 0 .28.035c.089 0 .184-.015.273-.035a80.375 80.375 0 0 0 1.576 3.262 59.45 59.45 0 0 0 1.589-3.262c.098.021.198.035.295.035.095 0 .191-.015.286-.035.178 1.569.415 3.746.586 4.709a5.06 5.06 0 0 0-.551-.033c-.186 0-.377.014-.567.033-.049-.948-.163-2.107-.272-3.166h-.015a232.564 232.564 0 0 0-1.508 3.166.83.83 0 0 0-.129-.013.807.807 0 0 0-.13.013c-.485-1.03-.976-2.067-1.489-3.098zm5.358.279c0-.764-.013-1.29-.055-1.891.401.008.813.035 1.215.035.669 0 1.242-.013 1.425-.035-.011.083-.025.165-.025.287 0 .143.015.204.025.307a42.294 42.294 0 0 0-1.54-.082c-.034.498-.034.988-.034 1.487a48.406 48.406 0 0 0 1.549-.053 1.62 1.62 0 0 0-.035.307c0 .074.015.135.035.279-.52-.04-1.03-.063-1.549-.063 0 .287-.008.581-.008.875 0 .285.008.579.021.852.513 0 1.038-.027 1.562-.088-.011.096-.025.165-.025.307 0 .143.015.212.025.294-.245-.007-.563-.034-1.19-.034-1.114 0-1.3.021-1.449.034.042-.601.055-1.125.055-1.89v-.928zm3.398-1.891c.102.021.205.035.307.035.103 0 .205-.015.308-.035a397.648 397.648 0 0 0 2.961 3.248c0-1.085 0-2.94-.048-3.248.103.021.205.035.307.035.104 0 .207-.015.309-.035-.109 1.985-.109 2.894-.109 4.71a1.276 1.276 0 0 0-.279-.035c-.097 0-.185.015-.267.035a76.98 76.98 0 0 0-2.983-3.317c-.013.513-.013 1.078-.013 1.591 0 1.09.021 1.474.041 1.727a1.711 1.711 0 0 0-.32-.035 1.66 1.66 0 0 0-.314.035c.034-.197.136-1.958.136-3.353-.003-.614-.029-1.031-.036-1.358m5.984 1.114c0-.26 0-.504-.02-.602-.266 0-.839.042-1.249.089.021-.102.033-.196.033-.301 0-.102-.012-.198-.033-.3.621.021.928.035 1.772.035.849 0 1.155-.015 1.736-.035a1.399 1.399 0 0 0-.037.3c0 .104.015.199.037.301a12.431 12.431 0 0 0-1.217-.089c-.012.098-.012.342-.012.602v1.706c0 .764.012 1.288.054 1.889-.15-.011-.334-.033-.562-.033-.224 0-.409.022-.559.033.042-.601.055-1.125.055-1.889v-1.706zm-31.5 5.983c-.144-.39-.409-.586-.826-.586-.418 0-.71.285-.71.612 0 1.01 2.075.758 2.075 2.307 0 .915-.724 1.543-1.808 1.543-.492 0-.903-.145-1.101-.292.09-.316.151-.562.197-.868h.132c.075.396.389.736.942.736.532 0 .798-.313.798-.695 0-1.031-2.033-.757-2.033-2.307 0-.942.723-1.461 1.535-1.461.491 0 .86.13 1.118.334-.081.212-.128.376-.217.677zm3.099 1.126c.369-.52.73-1.38 1.031-2.047.102.014.203.033.313.033.11 0 .212-.02.328-.033-.3.511-.989 1.752-1.427 2.612 0 .219-.012.444-.012.669 0 .451.005.915.066 1.427-.192-.015-.388-.034-.58-.034-.191 0-.388.02-.58.034.021-.437.084-.894.084-1.317 0-.211-.009-.423-.015-.635a265.889 265.889 0 0 0-1.461-2.756c.206.014.408.033.614.033.203 0 .402-.02.607-.033.314.675.825 1.732 1.017 2.047zm4.278-1.126c-.144-.39-.409-.586-.825-.586-.417 0-.711.285-.711.612 0 1.01 2.075.758 2.075 2.307 0 .915-.724 1.543-1.808 1.543-.492 0-.901-.145-1.099-.292.089-.316.149-.562.197-.868h.13c.075.396.389.736.942.736.532 0 .798-.313.798-.695 0-1.031-2.033-.757-2.033-2.307 0-.942.722-1.461 1.535-1.461.493 0 .86.13 1.118.334-.081.212-.128.376-.217.677zm2.103.19c0-.259 0-.504-.021-.602-.267 0-.84.042-1.25.09.021-.103.035-.197.035-.302a1.46 1.46 0 0 0-.035-.299c.622.021.929.034 1.774.034s1.153-.014 1.734-.034a1.46 1.46 0 0 0-.035.299c0 .104.014.199.035.302-.369-.048-.943-.09-1.216-.09-.013.098-.013.343-.013.602v1.706c0 .766.013 1.29.055 1.891-.149-.013-.336-.035-.561-.035-.224 0-.409.022-.559.035.042-.601.055-1.125.055-1.891v-1.706zm2.825.779c0-.765-.013-1.29-.055-1.89.401.006.813.033 1.215.033.669 0 1.242-.013 1.425-.033-.011.081-.026.163-.026.285 0 .143.016.205.026.307a50.568 50.568 0 0 0-1.54-.082c-.035.499-.035.99-.035 1.487.595-.013 1.03-.025 1.549-.053a1.694 1.694 0 0 0-.034.307c0 .075.015.135.034.281a19.08 19.08 0 0 0-1.549-.063c0 .285-.007.579-.007.873 0 .287.007.579.021.854.513 0 1.038-.027 1.562-.089-.011.095-.026.164-.026.307 0 .145.016.211.026.294-.245-.006-.564-.035-1.19-.035-1.115 0-1.3.021-1.449.035a25.42 25.42 0 0 0 .055-1.891v-.927zm3.917-.281c-.144 1.032-.205 2.068-.273 3.1a1.711 1.711 0 0 0-.32-.035c-.11 0-.211.014-.321.035.287-1.57.512-3.14.703-4.711.098.022.186.035.279.035.09 0 .185-.013.273-.035.5 1.085 1.078 2.3 1.577 3.264a62.549 62.549 0 0 0 1.59-3.264c.097.022.197.035.295.035.094 0 .19-.013.285-.035.178 1.571.415 3.748.587 4.711a4.9 4.9 0 0 0-.552-.035c-.186 0-.377.014-.567.035-.048-.949-.163-2.109-.272-3.168h-.015a216.333 216.333 0 0 0-1.507 3.168c-.042-.007-.09-.015-.13-.015a.821.821 0 0 0-.131.015 161.621 161.621 0 0 0-1.487-3.1zm7.432-.688c-.145-.39-.409-.586-.826-.586-.418 0-.71.285-.71.612 0 1.01 2.075.758 2.075 2.307 0 .915-.725 1.543-1.809 1.543-.491 0-.9-.145-1.098-.292.087-.316.149-.562.197-.868h.13c.075.396.389.736.942.736.531 0 .798-.313.798-.695 0-1.031-2.033-.757-2.033-2.307 0-.942.722-1.461 1.535-1.461.491 0 .859.13 1.118.334-.081.212-.128.376-.219.677z" transform="translate(-9.28 -9.242)" fill="#131718"/><path clip-path="url(#b)" d="M208.104 104.691h-93.198l.61-.781c9.091-11.678 13.896-25.652 13.896-40.416 0-14.197-4.468-27.735-12.922-39.149l-.573-.774h92.187zm-91.222-.968h90.254V24.542h-89.301c8.213 11.418 12.548 24.866 12.548 38.953 0 14.651-4.665 28.54-13.501 40.228" transform="translate(-9.28 -9.242)" fill="#00b9e7"/></svg>