<svg xmlns="http://www.w3.org/2000/svg" width="538.583" height="464.882"><defs><clipPath id="a"><path d="M272.48 59.091h94.349v87.149H272.48V59.091z"/></clipPath></defs><g clip-path="url(#a)" transform="matrix(7.06358 0 0 -7.06358 -2000.073 957.615)"><path d="M345.714 112.776a3.6 3.6 0 0 0-6.766 2.464l6.353 17.457a3.6 3.6 0 0 0 6.766-2.463l-6.353-17.457z" fill="rgba(255,255,255,0.8860159670357972)"/><path d="M296.845 101.478a3.6 3.6 0 0 0-6.765 2.463l7.264 19.958a3.6 3.6 0 1 0 6.766-2.463l-7.265-19.958z" fill="rgba(255,255,255,0.776113829513263)"/><path d="M308.032 101.478a3.6 3.6 0 0 0-6.765 2.463l7.264 19.958a3.6 3.6 0 0 0 6.766-2.463l-7.265-19.958z" fill="rgba(255,255,255,0.8940123615761011)"/><path d="M319.214 101.478a3.601 3.601 0 0 0-6.766 2.463l7.265 19.958a3.601 3.601 0 1 0 6.766-2.463l-7.265-19.958z" fill="rgba(255,255,255,0.9000000000000001)"/><path d="M330.392 101.478a3.6 3.6 0 0 0-6.766 2.463l10.467 28.755a3.6 3.6 0 0 0 6.766-2.463l-10.467-28.755z" fill="rgba(255,255,255,0.7328869430852434)"/><path d="M283.655 84.595h2.043l3.535-9.43 3.55 9.43h2.044v-11.22h-1.414v9.334h-.031l-3.504-9.334h-1.272l-3.506 9.334h-.031v-9.334h-1.414v11.22zm18.258-7.026c-.518-.376-1.523-.394-2.42-.55-.88-.156-1.633-.471-1.633-1.461 0-.879.754-1.194 1.57-1.194 1.76 0 2.483 1.1 2.483 1.838v1.367zm2.17-4.163c-.236-.141-.535-.219-.96-.219-.69 0-1.13.377-1.13 1.256-.74-.865-1.728-1.256-2.861-1.256-1.477 0-2.686.658-2.686 2.277 0 1.838 1.367 2.233 2.75 2.498 1.477.283 2.735.188 2.735 1.195 0 1.163-.96 1.352-1.81 1.352-1.13 0-1.962-.346-2.024-1.539h-1.336c.078 2.01 1.634 2.717 3.44 2.717 1.462 0 3.048-.33 3.048-2.231v-4.181c0-.629 0-.911.426-.911.109 0 .234.016.408.079v-1.037zm1.209 8.094h1.258v-1.29h.03c.567 1.006 1.477 1.477 2.64 1.477 2.138 0 2.799-1.227 2.799-2.97v-5.343h-1.336v5.498c0 .993-.63 1.637-1.651 1.637-1.62 0-2.405-1.086-2.405-2.547v-4.588h-1.335V81.5zm12.24-.991c-1.791 0-2.482-1.539-2.482-3.064 0-1.604.724-3.081 2.56-3.081 1.825 0 2.436 1.556 2.436 3.144 0 1.523-.786 3.001-2.514 3.001m-3.77.99h1.335V80.4h.032c.44.894 1.478 1.287 2.592 1.287 2.499 0 3.74-1.981 3.74-4.274 0-2.295-1.226-4.226-3.708-4.226-.833 0-2.026.312-2.624 1.271h-.032v-4.195h-1.334v11.236zm12.68-7.135c1.4 0 2.531 1.1 2.531 3.064 0 1.98-1.13 3.081-2.53 3.081s-2.533-1.102-2.533-3.08c0-1.965 1.133-3.065 2.532-3.065m0 7.323c2.576 0 3.945-1.869 3.945-4.259 0-2.372-1.369-4.242-3.945-4.242-2.578 0-3.944 1.87-3.944 4.242 0 2.39 1.366 4.26 3.944 4.26m13.152-8.314h-1.412l-1.652 6.46h-.032l-1.635-6.46h-1.445L330.81 81.5h1.478l1.84-6.649h.031l1.633 6.65h1.461l1.697-6.65h.031l1.823 6.65h1.385l-2.594-8.126zm9.036 4.84c-.065 1.274-1.022 2.295-2.342 2.295-1.4 0-2.23-1.053-2.326-2.295h4.668zm1.289-2.262c-.362-1.792-1.651-2.765-3.473-2.765-2.592 0-3.818 1.789-3.897 4.273 0 2.434 1.602 4.227 3.817 4.227 2.877 0 3.756-2.688 3.678-4.652h-6.082c-.045-1.415.755-2.671 2.53-2.671 1.1 0 1.87.534 2.107 1.588h1.32zm1.461 5.548h1.257v-1.716h.031c.645 1.305 1.54 1.95 2.984 1.903v-1.414c-2.152 0-2.937-1.227-2.937-3.286v-3.613h-1.336V81.5zm6.001 1.935h.237c.202 0 .386.01.386.24 0 .195-.166.229-.32.229h-.303v-.469zm-.227.652h.567c.348 0 .512-.138.512-.422 0-.265-.168-.377-.387-.4l.42-.65h-.247l-.395.634h-.243v-.634h-.227v1.472zm.487-1.812c.582 0 1.03.464 1.03 1.082 0 .601-.448 1.068-1.03 1.068-.584 0-1.033-.467-1.033-1.068 0-.618.45-1.082 1.033-1.082m0 2.336c.685 0 1.258-.544 1.258-1.254 0-.725-.573-1.266-1.258-1.266s-1.262.541-1.262 1.266c0 .71.577 1.254 1.262 1.254" fill="rgba(255,255,255,0.776113829513263)"/></g></svg>