<svg xmlns="http://www.w3.org/2000/svg" width="1000" height="297.244"><defs><linearGradient x2="1" gradientUnits="userSpaceOnUse" gradientTransform="scale(35.26947 -35.26947) rotate(-8.58 -2.192 -68.482)" id="E"><stop offset="0" stop-color="rgba(255,255,255,0.48703529411764707)"/><stop offset="1" stop-color="rgba(255,255,255,0.48261176470588235)"/></linearGradient><linearGradient x2="1" gradientUnits="userSpaceOnUse" gradientTransform="scale(35.26947 -35.26947) rotate(-8.58 -2.192 -68.482)" id="D"><stop offset="0" stop-color="rgba(255,255,255,0.5224470588235294)"/><stop offset="1" stop-color="rgba(255,255,255,0.5163764705882353)"/></linearGradient><linearGradient x2="1" gradientUnits="userSpaceOnUse" gradientTransform="scale(35.26947 -35.26947) rotate(-8.58 -2.192 -68.482)" id="C"><stop offset="0" stop-color="rgba(255,255,255,0.48703529411764707)"/><stop offset="1" stop-color="rgba(255,255,255,0.48261176470588235)"/></linearGradient><linearGradient x2="1" gradientUnits="userSpaceOnUse" gradientTransform="scale(35.26947 -35.26947) rotate(-8.58 -2.192 -68.482)" id="B"><stop offset="0" stop-color="rgba(255,255,255,0.48703529411764707)"/><stop offset="1" stop-color="rgba(255,255,255,0.48261176470588235)"/></linearGradient><linearGradient x2="1" gradientUnits="userSpaceOnUse" gradientTransform="scale(35.26947 -35.26947) rotate(-8.58 -2.192 -68.482)" id="A"><stop offset="0" stop-color="rgba(255,255,255,0.8786352941176472)"/><stop offset="1" stop-color="rgba(255,255,255,0.8392235294117647)"/></linearGradient><linearGradient x2="1" gradientUnits="userSpaceOnUse" gradientTransform="scale(35.26947 -35.26947) rotate(-8.58 -2.192 -68.482)" id="z"><stop offset="0" stop-color="rgba(255,255,255,0.6315294117647059)"/><stop offset="1" stop-color="rgba(255,255,255,0.6152)"/></linearGradient><linearGradient x2="1" gradientUnits="userSpaceOnUse" gradientTransform="scale(35.26947 -35.26947) rotate(-8.58 -2.192 -68.482)" id="y"><stop offset="0" stop-color="rgba(255,255,255,0.8786352941176472)"/><stop offset="1" stop-color="rgba(255,255,255,0.8392235294117647)"/></linearGradient><linearGradient x2="1" gradientUnits="userSpaceOnUse" gradientTransform="scale(35.26947 -35.26947) rotate(-8.58 -2.192 -68.482)" id="x"><stop offset="0" stop-color="rgba(255,255,255,0.6439058823529412)"/><stop offset="1" stop-color="rgba(255,255,255,0.6259529411764706)"/></linearGradient><linearGradient x2="1" gradientUnits="userSpaceOnUse" gradientTransform="scale(35.26947 -35.26947) rotate(-8.58 -2.192 -68.482)" id="w"><stop offset="0" stop-color="rgba(255,255,255,0.8786352941176472)"/><stop offset="1" stop-color="rgba(255,255,255,0.8392235294117647)"/></linearGradient><linearGradient x2="1" gradientUnits="userSpaceOnUse" gradientTransform="scale(35.26947 -35.26947) rotate(-8.58 -2.192 -68.482)" id="v"><stop offset="0" stop-color="rgba(255,255,255,0.6315294117647059)"/><stop offset="1" stop-color="rgba(255,255,255,0.6152)"/></linearGradient><linearGradient x2="1" gradientUnits="userSpaceOnUse" gradientTransform="scale(35.26947 -35.26947) rotate(-8.58 -2.192 -68.482)" id="u"><stop offset="0" stop-color="rgba(255,255,255,0.6315294117647059)"/><stop offset="1" stop-color="rgba(255,255,255,0.6152)"/></linearGradient><linearGradient x2="1" gradientUnits="userSpaceOnUse" gradientTransform="scale(35.26947 -35.26947) rotate(-8.58 -2.192 -68.482)" id="t"><stop offset="0" stop-color="rgba(255,255,255,0.5224470588235294)"/><stop offset="1" stop-color="rgba(255,255,255,0.5163764705882353)"/></linearGradient><linearGradient x2="1" gradientUnits="userSpaceOnUse" gradientTransform="scale(35.26947 -35.26947) rotate(-8.58 -2.192 -68.482)" id="s"><stop offset="0" stop-color="rgba(255,255,255,0.6439058823529412)"/><stop offset="1" stop-color="rgba(255,255,255,0.6259529411764706)"/></linearGradient><linearGradient x2="1" gradientUnits="userSpaceOnUse" gradientTransform="scale(35.26947 -35.26947) rotate(-8.58 -2.192 -68.482)" id="r"><stop offset="0" stop-color="rgba(255,255,255,0.5646117647058824)"/><stop offset="1" stop-color="rgba(255,255,255,0.5541176470588236)"/></linearGradient><linearGradient x2="1" gradientUnits="userSpaceOnUse" gradientTransform="scale(35.26947 -35.26947) rotate(-8.58 -2.192 -68.482)" id="q"><stop offset="0" stop-color="rgba(255,255,255,0.5646117647058824)"/><stop offset="1" stop-color="rgba(255,255,255,0.5541176470588236)"/></linearGradient><linearGradient x2="1" gradientUnits="userSpaceOnUse" gradientTransform="scale(35.26947 -35.26947) rotate(-8.58 -2.192 -68.482)" id="p"><stop offset="0" stop-color="rgba(255,255,255,0.5646117647058824)"/><stop offset="1" stop-color="rgba(255,255,255,0.5541176470588236)"/></linearGradient><linearGradient x2="1" gradientUnits="userSpaceOnUse" gradientTransform="scale(35.26947 -35.26947) rotate(-8.58 -2.192 -68.482)" id="o"><stop offset="0" stop-color="rgba(255,255,255,0.6439058823529412)"/><stop offset="1" stop-color="rgba(255,255,255,0.6259529411764706)"/></linearGradient><linearGradient x2="1" gradientUnits="userSpaceOnUse" gradientTransform="scale(35.26947 -35.26947) rotate(-8.58 -2.192 -68.482)" id="n"><stop offset="0" stop-color="rgba(255,255,255,0.6439058823529412)"/><stop offset="1" stop-color="rgba(255,255,255,0.6259529411764706)"/></linearGradient><linearGradient x2="1" gradientUnits="userSpaceOnUse" gradientTransform="scale(35.26947 -35.26947) rotate(-8.58 -2.192 -68.482)" id="m"><stop offset="0" stop-color="rgba(255,255,255,0.6315294117647059)"/><stop offset="1" stop-color="rgba(255,255,255,0.6152)"/></linearGradient><linearGradient x2="1" gradientUnits="userSpaceOnUse" gradientTransform="scale(35.26947 -35.26947) rotate(-8.58 -2.192 -68.482)" id="l"><stop offset="0" stop-color="rgba(255,255,255,0.6315294117647059)"/><stop offset="1" stop-color="rgba(255,255,255,0.6152)"/></linearGradient><linearGradient x2="1" gradientUnits="userSpaceOnUse" gradientTransform="scale(35.26947 -35.26947) rotate(-8.58 -2.192 -68.482)" id="k"><stop offset="0" stop-color="rgba(255,255,255,0.5646117647058824)"/><stop offset="1" stop-color="rgba(255,255,255,0.5541176470588236)"/></linearGradient><linearGradient x2="1" gradientUnits="userSpaceOnUse" gradientTransform="scale(35.26947 -35.26947) rotate(-8.58 -2.192 -68.482)" id="j"><stop offset="0" stop-color="rgba(255,255,255,0.4411294117647059)"/><stop offset="1" stop-color="rgba(255,255,255,0.43670588235294117)"/></linearGradient><linearGradient x2="1" gradientUnits="userSpaceOnUse" gradientTransform="scale(35.26947 -35.26947) rotate(-8.58 -2.192 -68.482)" id="i"><stop offset="0" stop-color="rgba(255,255,255,0.4411294117647059)"/><stop offset="1" stop-color="rgba(255,255,255,0.43670588235294117)"/></linearGradient><linearGradient x2="1" gradientUnits="userSpaceOnUse" gradientTransform="scale(35.26947 -35.26947) rotate(-8.58 -2.192 -68.482)" id="h"><stop offset="0" stop-color="rgba(255,255,255,0.4411294117647059)"/><stop offset="1" stop-color="rgba(255,255,255,0.43670588235294117)"/></linearGradient><linearGradient x2="1" gradientUnits="userSpaceOnUse" gradientTransform="scale(35.26947 -35.26947) rotate(-8.58 -2.192 -68.482)" id="g"><stop offset="0" stop-color="rgba(255,255,255,0.4411294117647059)"/><stop offset="1" stop-color="rgba(255,255,255,0.43670588235294117)"/></linearGradient><linearGradient x2="1" gradientUnits="userSpaceOnUse" gradientTransform="scale(35.26947 -35.26947) rotate(-8.58 -2.192 -68.482)" id="f"><stop offset="0" stop-color="rgba(255,255,255,0.8786352941176472)"/><stop offset="1" stop-color="rgba(255,255,255,0.8392235294117647)"/></linearGradient><clipPath id="e"><path d="M277.736 22.543h120.249v35.743H277.736V22.543z"/></clipPath><clipPath id="d"><path d="M277.732 22.543h120.253v35.743H277.732V22.543z"/></clipPath><clipPath id="c"><path d="M277.736 22.543h120.249v35.743H277.736V22.543z"/></clipPath><clipPath id="b"><path d="M277.732 22.543h120.253v35.743H277.732V22.543z"/></clipPath><clipPath id="a"><path d="M277.736 22.543h120.249v35.743H277.736V22.543z"/></clipPath></defs><g clip-path="url(#a)" transform="matrix(8.31615 0 0 -8.31615 -2309.693 484.715)"><path d="M281.773 36.412c-1.203 0-2.19.432-2.96 1.203-1.112 1.111-1.08 2.483-1.08 4.381 0 1.897-.032 3.27 1.08 4.38.77.771 1.757 1.203 2.96 1.203 2.052 0 3.656-1.172 4.041-3.47h-2.175c-.216.879-.77 1.558-1.85 1.558-.587 0-1.065-.216-1.373-.571-.417-.463-.54-.987-.54-3.1 0-2.114.123-2.638.54-3.101.308-.354.786-.57 1.372-.57 1.08 0 1.635.678 1.851 1.557h2.175c-.385-2.298-2.005-3.47-4.04-3.47" fill="rgba(255,255,255,0.9000000000000001)"/></g><g clip-path="url(#b)" transform="matrix(8.31615 0 0 -8.31615 -2309.693 484.715)"><path d="M292.277 45.08c-.308.356-.787.587-1.373.587s-1.08-.232-1.388-.587c-.416-.462-.524-.971-.524-3.084 0-2.114.108-2.623.524-3.086.308-.353.802-.585 1.388-.585.586 0 1.065.231 1.373.585.416.464.54.973.54 3.086 0 2.112-.124 2.621-.54 3.084m1.589-7.464c-.772-.773-1.712-1.204-2.962-1.204-1.25 0-2.205.431-2.977 1.203-1.11 1.11-1.08 2.483-1.08 4.38 0 1.898-.03 3.27 1.08 4.382.772.77 1.728 1.202 2.977 1.202 1.25 0 2.19-.431 2.962-1.202 1.11-1.112 1.095-2.485 1.095-4.382 0-1.896.015-3.27-1.095-4.38m6.832-1.11h-1.604l-3.625 10.982h2.221l2.206-7.157 2.206 7.157h2.236l-3.64-10.982zm4.504 0v10.982h7.234v-1.913h-5.09v-2.575h4.334v-1.913h-4.334v-2.668h5.09v-1.913h-7.234zm15.531 0l-4.35 6.74v-6.74h-2.144v10.982h1.913l4.35-6.725v6.725h2.144V36.505h-1.913zm8.375 9.069v-9.069h-2.144v9.069h-2.869v1.913h7.882v-1.913h-2.869zm8.777 0h-2.021v-2.9h2.02c.942 0 1.559.602 1.559 1.45s-.617 1.45-1.558 1.45m1.666-9.069l-2.144 4.38h-1.543v-4.38h-2.144v10.982h4.304c2.236 0 3.563-1.527 3.563-3.363 0-1.542-.941-2.499-2.005-2.884l2.452-4.735h-2.483zm8.451 4.503v-4.504h-2.128v4.505l-3.3 6.477h2.328l2.051-4.426 2.021 4.426h2.33l-3.302-6.477zm8.605 6.474h-.519V25.078h.519v22.404z" fill="rgba(255,255,255,0.9000000000000001)"/></g><g clip-path="url(#c)" transform="matrix(8.31615 0 0 -8.31615 -2309.693 484.715)"><path d="M356.606 25.079h.005v22.409h-.529V25.074h.53v.005h-.006v.005h-.514v22.394h.51v-22.4h.005v.006-.005zm-75.839 3.689h-2.178v-2.93h2.178c.988 0 1.606.572 1.606 1.47 0 .899-.618 1.46-1.606 1.46m-.09 3.537h-2.088v-2.773h2.088c.887 0 1.572.437 1.572 1.392 0 .954-.685 1.38-1.572 1.38m.169-7.23h-3.11v7.994h3.009c1.392 0 2.357-.797 2.357-2.133 0-.842-.505-1.505-1.18-1.752.765-.28 1.304-.943 1.304-1.897 0-1.448-.966-2.212-2.38-2.212" fill="rgba(255,255,255,0.9000000000000001)"/></g><g clip-path="url(#d)" transform="matrix(8.31615 0 0 -8.31615 -2309.693 484.715)"><path d="M288.255 25.074v.618c-.393-.45-.943-.685-1.56-.685-.596 0-1.09.179-1.427.516-.392.382-.56.91-.56 1.549v3.526h.808v-3.402c0-.977.516-1.471 1.347-1.471s1.381.505 1.381 1.47v3.403h.808v-5.524h-.797zm2.493 5.524h.808v-5.524h-.808v5.524zm-.045 2.481h.909v-.909h-.909v.909zm3.94-8.005c-.966 0-1.403.629-1.403 1.47v6.524h.808v-6.49c0-.538.18-.808.741-.808h.438v-.696h-.584zm3.537 4.873c-1.201 0-1.392-1.033-1.392-2.111 0-1.078.191-2.111 1.392-2.111 1.201 0 1.381 1.032 1.381 2.11 0 1.078-.18 2.111-1.381 2.111m1.392-4.873v.663c-.449-.584-.965-.73-1.572-.73-.561 0-1.055.191-1.347.483-.561.561-.674 1.482-.674 2.346 0 .865.113 1.785.674 2.347.292.293.786.484 1.347.484.607 0 1.112-.135 1.561-.708v3.11h.808v-7.994h-.797zm2.481 5.525h.808v-5.524h-.808v5.524zm-.045 2.481h.909v-.909h-.909v.909zm6.097-8.005v3.402c0 .977-.528 1.47-1.36 1.47-.83 0-1.368-.505-1.368-1.47v-3.402h-.81v5.524h.81v-.606c.393.449.932.673 1.549.673.595 0 1.078-.18 1.415-.516.393-.382.572-.898.572-1.538v-3.537h-.808zm4.345 4.873c-1.201 0-1.381-1.033-1.381-2.066s.18-2.066 1.38-2.066c1.201 0 1.37 1.033 1.37 2.066s-.169 2.066-1.37 2.066m-.124-7.41c-.83 0-1.29.213-1.874.74l.527.516c.404-.358.685-.55 1.325-.55 1.067 0 1.516.753 1.516 1.697v.864c-.449-.573-.955-.72-1.55-.72-.56 0-1.044.204-1.336.495-.55.55-.673 1.404-.673 2.302 0 .898.123 1.752.673 2.302.292.292.786.483 1.348.483.606 0 1.1-.135 1.55-.72v.651h.796v-5.692c0-1.37-.853-2.369-2.302-2.369m8.668 2.47c-1.2 0-1.987.303-2.74 1.055l.584.584c.663-.662 1.28-.876 2.178-.876 1.168 0 1.887.551 1.887 1.483 0 .415-.124.774-.382 1-.258.223-.46.291-1.044.381l-.932.145c-.629.102-1.123.304-1.47.607-.405.36-.607.853-.607 1.493 0 1.36.977 2.257 2.56 2.257 1.021 0 1.695-.259 2.38-.876l-.55-.55c-.494.45-1.022.685-1.864.685-1.067 0-1.684-.595-1.684-1.482 0-.393.112-.708.36-.92.246-.214.662-.37 1.077-.439l.876-.135c.752-.112 1.122-.269 1.46-.56.437-.37.673-.922.673-1.584 0-1.403-1.1-2.268-2.762-2.268m7.04 4.536a1.417 1.417 0 0 1-1.01.404 1.39 1.39 0 0 1-1-.404c-.404-.404-.45-1.089-.45-1.707 0-.617.046-1.302.45-1.706a1.39 1.39 0 0 1 1-.404c.392 0 .752.146 1.01.404.404.404.438 1.09.438 1.706 0 .618-.034 1.303-.438 1.707m.573-3.907c-.382-.382-.91-.629-1.583-.629-.674 0-1.202.247-1.584.63-.561.571-.673 1.346-.673 2.2 0 .853.112 1.627.673 2.2.382.382.91.63 1.584.63.673 0 1.2-.248 1.583-.63.56-.573.673-1.347.673-2.2 0-.854-.112-1.629-.673-2.2m4.221-.63c-1.392 0-2.448.943-2.448 2.83 0 1.886 1.056 2.83 2.448 2.83.763 0 1.246-.203 1.819-.82l-.55-.517c-.416.46-.741.617-1.27.617-.538 0-.987-.213-1.28-.629-.257-.359-.358-.786-.358-1.482s.1-1.122.359-1.482c.292-.415.74-.628 1.28-.628.528 0 .853.168 1.269.628l.55-.527c-.573-.618-1.056-.82-1.82-.82m3.032 5.592h.808v-5.524h-.808v5.524zm-.045 2.481h.909v-.909h-.909v.909zm5.816-3.929c-.213.504-.707.83-1.291.83s-1.078-.326-1.291-.83c-.124-.304-.146-.473-.17-.922h2.92c-.022.45-.044.618-.168.921m-2.751-1.527c0-1.213.573-1.909 1.628-1.909.64 0 1.01.191 1.449.63l.55-.484c-.562-.56-1.078-.853-2.021-.853-1.46 0-2.414.876-2.414 2.83 0 1.785.864 2.83 2.268 2.83 1.426 0 2.268-1.034 2.268-2.673v-.37h-3.728zm6.669-2.548c-.944 0-1.415.662-1.415 1.482v3.39h-.696v.618h.696v1.729h.808v-1.73h1.18v-.616h-1.18v-3.37c0-.504.236-.807.753-.807h.426v-.696h-.572zm3.211-1.336c-.112-.303-.236-.505-.393-.651-.292-.281-.685-.382-1.077-.382h-.35v.719h.248c.562 0 .73.179.91.684l.392 1.078-1.987 5.412h.876l1.516-4.435 1.504 4.435h.876l-2.515-6.86z" fill="rgba(255,255,255,0.9000000000000001)"/><path d="M367.117 43.242v.937h-.007v-.937h.007zm13.68.884l-.008 3.033.002-.715.006-2.318zm-4.78-17.215l.587-.002-.002.004-.585-.002zm-8.908 15.758l-.003-4.722.009 4.73-.006-.008z" fill="rgba(255,255,255,0.44209411764705886)"/><path d="M362.825 26.3c.269-.228.237-.533.23-.833v-.392h1.748c-.158.298-.265.603-.456.84-.24.3-.387.608-.446.936l-1.386-.016a.83.83 0 0 1 .31-.535" fill="rgba(255,255,255,0.5676941176470589)"/><path d="M374.838 26.908a3.18 3.18 0 0 1 .084-.204c.12-.267.285-.457.58-.554.081-.027.165-.137.19-.225.08-.28.13-.568.193-.866h1.865c-.302.51-.556 1.015-.877 1.472l-.269.378-.587.002-1.179-.003m5.546-.211c.513-.439.736-.985.75-1.65h1.86c-.098.195-.17.378-.276.54-.267.411-.455.72-.749 1.111l-.054.073-.028.037c-.02.028-.038.056-.056.084l-1.62.005a.835.835 0 0 1 .173-.2" fill="rgba(255,255,255,0.6362588235294118)"/><path d="M362.161 36.51h.001a9.34 9.34 0 0 1 .209-.796c.062-.2.074-.396.067-.578-.018-.422-.432-.74-.432-.74-.179-.114-.409-.148-.616-.218.614-.54 1.367-.416 1.846-.009 0 0 .192.184.265.291.157.233.299.471.425.713l.068.135c.401.817.624 1.69.668 2.618l-2.689-.023c.025-.466.088-.93.188-1.393m1.792-8.72c.097.375.203.747.32 1.115.29.914.658 1.793 1.2 2.602.069.103.232.323.232.323.39.518.84.951 1.375 1.314l.026 4.802-1.244-.01.01-.17a4.442 4.442 0 0 0-.021-.703l-.004-.034a5.75 5.75 0 0 0-.335-1.388s-.067-.182-.102-.272a6.646 6.646 0 0 0-.707-1.31l-.006-.009c-.09-.13-.321-.428-.321-.428a8.028 8.028 0 0 0-.332-.385c-.077-.082-.15-.22-.137-.324.143-1.214-.308-2.306-.66-3.417v-.002a11.158 11.158 0 0 1-.105-.342 91.023 91.023 0 0 0-.472-1.525l-.007-.023-.084-.258a1.12 1.12 0 0 1-.064-.512l1.386.017a2.18 2.18 0 0 0 .052.938m-1.438-.955l1.386.016-1.386-.016z" fill="rgba(255,255,255,0.6486352941176472)"/><path d="M367.08 33.145c.066.045.133.089.2.132.135.083.429.27.429.27.47.303.902.604 1.306.99 0 0 .176.173.259.265.259.286.488.598.743.915.7-.405 1.15-.98 1.318-1.777l.049-.478c0-.056-.005-.234-.005-.234a4.22 4.22 0 0 0-.045-.407s-.12-.596-.185-.89c-.123-.556-.107-.643.347-.986.198-.148.39-.305.578-.464l.019-.016a11.618 11.618 0 0 0 2.215-2.486c.216-.328.38-.695.528-1.064l1.18-.003h.586c-.208.294-.415.587-.625.88-.754 1.054-1.516 2.102-2.272 3.155-.175.244-.241.507-.157.78 0 0 .033.098.058.147.074.147.219.479.219.479.297.709.467 1.42.643 2.164 0 0 .169.72.264 1.078l.086.32c.907-.155 1.79-.27 2.7-.344 0 0 .757-.055 1.123-.07a24.739 24.739 0 0 1 2.383.013l-.026 2.316-13.892.117-.026-4.802m13.62-4.578c-.094-.3-.436-.887-.436-.887-.148-.276-.177-.554-.053-.783l.907-.003-.032 2.898-.058-.186-.327-1.039m-5.865-1.652l.003-.007 1.178.003-1.181.004z" fill="rgba(255,255,255,0.5676941176470589)"/><path d="M381.023 35.514a24.76 24.76 0 0 1 1.463.112c.013-.048.03-.075.024-.098l-.106-.503-.508-2.351s-.095-.4-.144-.591c-.2-.77-.43-1.531-.667-2.29l.032-2.898.714-.002a1.101 1.101 0 0 0-.078 1.078c.274.612.845 1.859.845 1.859.313.665.627 1.293.99 1.933l.136.234c.151.259.44.706.5.8.103.157.208.313.318.467.425.592.724 1.275 1.076 1.92.214.39.773.579 1.158.388.271-.136.546-.247.826-.343h.001c.4-.137.808-.238 1.225-.313 0 0 .731-.112 1.104-.143.57-.046 1.132-.184 1.692-.306.272-.06.386-.286.332-.57l-.243-1.261c-.062-.317-.12-.633-.18-.949l-.12-.62c-.039-.213-.143-.341-.346-.395a1.243 1.243 0 0 1-.725-.524v-.001a1.75 1.75 0 0 1-.056-.084c-.045-.075-.167-.136-.259-.144-.215-.022-.433-.007-.674-.007v-1.774c.425.122.84.188 1.205.36a3.45 3.45 0 0 1 1.44 1.22c.06.09.361.673.433.892.168.502.338 1.005.503 1.51 0 0 .12.366.177.55.176.562.342 1.128.486 1.701.048.196.095.392.138.59.087.398-.1.689-.374.85-.465.272-.94.515-1.426.73-.603.27-1.224.493-1.864.662V37.2a11.52 11.52 0 0 1-1.193.249c-.036.004-.07.02-.107.03.051.156.105.309.16.463l.022.068-7.955-.182.025-2.316" fill="rgba(255,255,255,0.6486352941176472)"/><path d="M367.117 43.242c.12-.02.244-.048.369-.088-.122-.162-.248-.319-.37-.478l-.01-4.73 13.892-.116-.201 6.296-13.68-.28v-.604" fill="rgba(255,255,255,0.5241176470588235)"/><path d="M392.62 44.203V44.2c.096-.321.28-1.064.28-1.064.024-.121.05-.243.042-.371-.012-.174-.038-.351-.04-.524a1.4 1.4 0 0 1 .043-.42.454.454 0 0 1 .087-.18l.02-.024a.218.218 0 0 1 .071-.06c.302-.133.551-.257.867-.346l.057-.017.002-.001c.048-.013.094-.028.142-.04.175-.04.36-.031.537.017l-.195.007.195-.006c.425.115.803.469.866 1.01.053.453.097.788.158 1.241l.017.121c.042.308.086.616.13.923l-3.337-.076.057-.189m-11.621-6.371l7.956.181c.088.251.173.501.245.754.022.08.046.16.065.24.022.095.07.325.07.325.097.465.16.901.196 1.374.05.627.281 1.188.503 1.756l.035.087c.212.536.417.95.706 1.445l.032.055.001.001c.06.103.122.206.185.307l-10.196-.229.202-6.297" fill="rgba(255,255,255,0.6362588235294118)"/><path d="M372.472 44.917c.022.108.08.147.12.147.025 0 .113-.133.17-.224-.1.01-.2.02-.299.025l.01.052m-.97.427a4.969 4.969 0 0 0-.2-.49 6.78 6.78 0 0 1-.725-.102l-.02-.004a6.324 6.324 0 0 1-1.536-.51c-.039-.019-.142-.059-.142-.059-.534-.218-.99-.142-1.513-.038-.068.013-.179.028-.25.038v-.333l13.68.28-.007 2.318-6.34-.014c.007-.305.036-.69.12-1.2.06-.358.216-.6.428-.77-.507.091-1.019.184-1.39.256-.199.038-.396.07-.593.096-.083.23-.21.56-.277.613-.104.08-.13.242-.13.323 0 .08.204.388.34.68l-.988-.003a15.17 15.17 0 0 1-.134-.569s-.27-.324-.324-.512" fill="rgba(255,255,255,0.6362588235294118)"/><path d="M367.109 42.669a8.447 8.447 0 0 1-.328-.45 6.167 6.167 0 0 1-.488-.868v-.001a5.191 5.191 0 0 1-.47-1.838c-.033-.531.009-1.051.039-1.576l1.244.01.003 4.723m-2.402-3.379c.049.757.159 1.483.4 2.213l.024.074.01.03c.128.381.27.745.508 1.058.378.497.89.663 1.46.577l.002.938-.061.007-.027.004c-.671.07-1.3-.058-1.93-.297-.858-.324-1.505-.819-1.983-1.45 0 0-.162-.229-.236-.349a5.086 5.086 0 0 1-.42-.857h-.001a6.635 6.635 0 0 1-.3-1.028 8.935 8.935 0 0 1-.18-2.307l2.689.023c.005.103.009.206.01.31 0 .344.035 1.053.035 1.053" fill="rgba(255,255,255,0.4872941176470588)"/></g><g clip-path="url(#e)" transform="matrix(8.31615 0 0 -8.31615 -2309.693 484.715)"><path d="M396.474 48.454c.019.109.105.24.198.298.422.264.858.505 1.283.814-.432.048-.865.117-1.3.138l-.027.002c-.234.01-.47.003-.704-.004-.257-.007-.513-.015-.77 0-.332.018-.66.119-.991.187l-.167.029c-.946.174-1.798.18-2.648.008l-.044-.008a6.852 6.852 0 0 1-2.31-.94s-.555-.377-.824-.596l-.217-.184c-.026-.023-.028-.021-.054-.044-.576-.502-1.775-1.5-1.775-1.5-.471-.392-.924-.764-1.395-1.157-.165-.137-.303-.175-.424-.227a4.288 4.288 0 0 0-.441-.154l.099.294c.119.346.116.782-.586 1.063-.137.054-.681.233-.875.285-.193.053-.54.145-.812.202-.272.057-.375.103-.585.146-.1.02-.205.039-.316.053l.008-3.033 10.195.23c.193.31.399.615.618.913l.03-.017.002-.001c.239-.133.469-.256.692-.392a.367.367 0 0 0 .145-.19l.083-.278 3.338.075c.107.75.217 1.502.323 2.253.08.579.155 1.159.25 1.735" fill="rgba(255,255,255,0.5241176470588235)"/><path d="M377.632 48.835s.22-.123.334-.21c.114-.089.28-.159.356-.269.074-.11.206-.294.237-.452.03-.158.136-.286.14-.334.005-.048-.04-.123-.083-.127-.044-.005-.307.004-.421.114-.115.11-.277.268-.361.606-.083.338-.145.404-.202.488-.057.083-.027.114 0 .184m-4.674-2.387c.135.297.836 1.914.889 2.102.055.19.109.243.19.46.04.11.224.44.394.736a4 4 0 0 1 .179-.45c.308-.614.1-.843-.001-1.15-.101-.308-.157-.905-.161-1.26-.002-.13-.003-.28 0-.456l6.343.014-.002.715a3.257 3.257 0 0 1-.4.025c-.43 0-.514.18-.557.224-.044.044-.009.092 0 .22.009.126-.144.201-.277.355-.131.154-.237.294-.36.395-.122.101-.263.316-.382.453-.118.136-.421.478-.54.654-.118.176-.386.558-.527.751-.141.193-.211.246-.246.316a.318.318 0 0 0 .032.353c.079.1.23.42.165.744-.061.305-.222.527-.328.678-.207.292-.38.638-.418.694-.08.114-.101.377-.11.518a6.32 6.32 0 0 1-.04.448c-.017.132-.087.22-.091.303-.005.083.092.088.149.026a.53.53 0 0 1 .294-.114.327.327 0 0 1 .264.123c.074.088.127.271.185.346.057.075.27.142.373.221.102.08.13.178.163.29.033.112.115.243.149.362.033.12.117.113.164.165.044.047.027.144.034.236a.472.472 0 0 0 .072.238c.039.053.129.372.134.615.002.07-.036.251-.067.332-.028.074-.371.49-.463.575-.092.086-.164.198-.342.343a1.167 1.167 0 0 1-.685.237c-.06.003-.13-.003-.275-.024-.02-.003-.04-.008-.061-.013 0 0-.513-.055-1.404-.624-.775-.495-1.246-.909-1.52-1.303-.271-.393-.478-.984-.514-1.295-.05-.438-.073-.717-.277-.97-.15-.186-.378-.757-.341-1.032.053-.378.324-.755.593-1.132.252-.352.186-.625.055-.862-.26-.468-.422-.583-.422-.583s.214-.09.48-.023c-.18-.473-.485-1.242-.544-1.589 0 0-.524-.78-.943-2.41l.987.001.01.022" fill="rgba(255,255,255,0.4872941176470588)"/></g><path d="M374.036 49.009c-.081-.215-.135-.269-.19-.458-.053-.189-.754-1.806-.889-2.102l-.01-.023c-.136-.289-.339-.599-.339-.678 0-.081.026-.242.13-.323.066-.052.194-.384.277-.613.197-.026.394-.058.593-.095.372-.072.884-.166 1.391-.257l-.006.005c-.496.089-.994.18-1.359.25-.197.038-.395.07-.592.095-.082.23-.211.562-.277.614-.104.08-.131.242-.131.323 0 .081.216.404.35.701.135.296.836 1.913.89 2.102.053.189.108.243.188.458.041.108.214.421.378.709l-.01.03a8.847 8.847 0 0 1-.394-.738m6.753-1.85l.002-.714.005-2.319-.005 2.319-.002.714c.112-.013.215-.032.315-.053.211-.043.313-.089.586-.146.273-.057.619-.149.813-.202.192-.052.737-.231.874-.286.702-.28.705-.716.586-1.062l-.1-.294.032.009c.031.095.064.191.096.284.119.345.116.782-.587 1.062-.136.055-.681.234-.874.286-.194.053-.54.145-.812.202-.273.057-.375.102-.586.146a3.497 3.497 0 0 1-.613.077c.095-.005.185-.012.27-.023m10.202-2.803a24.892 24.892 0 0 1-.184-.307l-.001-.002-.032-.055a9.905 9.905 0 0 1-.706-1.445l-.035-.086c-.222-.569-.454-1.13-.502-1.757-.037-.472-.1-.908-.197-1.374 0 0-.048-.23-.07-.324-.019-.081-.043-.161-.065-.24a12.737 12.737 0 0 0-.245-.754l-.024-.07a22.817 22.817 0 0 1-.159-.462c.037-.01.072-.025.107-.031.405-.061.803-.145 1.194-.247.64-.168 1.26-.392 1.864-.66.486-.215.961-.458 1.425-.732.275-.161.462-.452.375-.849-.044-.198-.09-.394-.139-.59a29.185 29.185 0 0 0-.486-1.7c-.058-.185-.177-.552-.177-.552-.164-.504-.334-1.006-.503-1.509-.072-.219-.373-.802-.432-.891a3.45 3.45 0 0 0-1.44-1.22c-.358-.169-.763-.235-1.177-.353v-.011c.424.123.839.189 1.204.361.61.287 1.09.692 1.44 1.22.061.089.361.673.434.891.169.503.339 1.006.502 1.51 0 0 .12.367.178.551.176.563.343 1.128.486 1.701.048.196.095.393.138.591.087.397-.1.687-.374.848-.465.273-.94.516-1.426.732-.603.268-1.224.491-1.864.661V37.2c-.391.102-.788.186-1.194.247-.035.006-.07.02-.107.031.051.155.105.309.159.462.098.275.191.548.269.824.022.079.046.159.065.24.023.095.07.324.07.324.098.466.161.902.197 1.374.048.627.28 1.189.503 1.757l.034.087c.212.536.417.949.706 1.444l.033.056v.001c.242.415.507.817.795 1.21l-.02.011c-.22-.298-.426-.602-.619-.912m-18.519.561l-.009-.052c.099-.006.198-.014.298-.024v.001a6.31 6.31 0 0 1-.271.022l.009.052c.019.093.065.134.102.144-.004.003-.007.004-.009.004-.04 0-.097-.039-.12-.147m-5.449-.726l.027-.004.06-.007.006-.001c.072-.01.183-.025.25-.038a4.7 4.7 0 0 1 .69-.099 4.744 4.744 0 0 0-.663.098c-.105.02-.317.046-.317.046l-.026.003a3.593 3.593 0 0 0-.027.002m.056-11.047l.026 4.803-.026-4.803zm7.653 2.45a53.49 53.49 0 0 1-.265-1.077c-.176-.744-.345-1.455-.642-2.164 0 0-.145-.333-.22-.479a1.382 1.382 0 0 1-.057-.147c-.084-.273-.018-.537.157-.78.755-1.053 1.518-2.102 2.272-3.156.209-.292.416-.585.624-.878l.003-.004.269-.378c.321-.456.575-.961.877-1.472h-1.838l.001-.003h1.865c-.303.51-.557 1.015-.878 1.472-.296.422-.596.841-.896 1.26-.754 1.054-1.517 2.104-2.273 3.156-.174.244-.241.507-.157.78 0 0 .033.099.058.147.075.147.219.479.219.479.298.709.467 1.42.644 2.165 0 0 .169.72.263 1.077l.087.318-.027.005-.086-.321m-5.457-.793c-.084-.092-.26-.263-.26-.263-.405-.388-.835-.689-1.306-.99 0 0-.294-.188-.428-.271a5.756 5.756 0 0 1-1.577-1.447s-.162-.219-.231-.323c-.542-.809-.91-1.688-1.2-2.602h-.001a20.96 20.96 0 0 1-.319-1.116 2.165 2.165 0 0 1-.052-.938c.059-.328.206-.635.446-.936.191-.238.298-.543.455-.841h-1.72v-.003h1.746c-.157.298-.264.603-.455.842-.454.568-.579 1.158-.394 1.874.097.376.202.748.32 1.116.29.913.657 1.793 1.199 2.602.07.103.232.323.232.323a5.76 5.76 0 0 0 1.577 1.446l.429.272c.471.301.901.603 1.304.989 0 0 .178.173.261.264.256.284.483.593.735.906l-.019.012c-.255-.317-.484-.63-.742-.916m16.343.383c-.351-.645-.65-1.328-1.076-1.921-.11-.154-.214-.309-.318-.467a25.412 25.412 0 0 1-.499-.799l-.137-.235a27.441 27.441 0 0 1-.989-1.932s-.572-1.248-.845-1.859a1.1 1.1 0 0 1 .077-1.079c.018-.028.035-.056.056-.084l.029-.037.053-.073c.294-.392.482-.7.75-1.111.105-.162.177-.345.276-.54h-1.833v-.004h1.86c-.098.197-.17.378-.275.54-.268.412-.456.72-.751 1.112l-.053.073-.029.038c-.276.37-.312.76-.132 1.161.273.612.844 1.86.844 1.86.312.665.627 1.293.99 1.933l.137.234c.15.258.438.706.499.799.104.158.208.314.318.468.426.593.724 1.277 1.076 1.921.157.285.498.463.821.463l.051-.002a1.063 1.063 0 0 1-.079.003c-.323 0-.664-.177-.821-.462m-3.478.409a27.362 27.362 0 0 0-2.46-.116 18.83 18.83 0 0 0-1.039.024 38.602 38.602 0 0 1 .027-.003c.159-.006.318-.012.478-.016a25.362 25.362 0 0 1 3.021.109l.321.03a.017.017 0 0 0-.002.005c-.116-.013-.346-.033-.346-.033m-4.479-.032l-.116.008-.016.001.132-.009m.144-.01l-.144.01.144-.01m-1.201-8.642l-.587.002.587-.002z" fill="url(#f)" transform="matrix(8.31615 0 0 -8.31615 -2309.693 484.715)"/><path d="M367.11 43.246l.006-.001.001.6-.001.334-.006.001v-.934z" fill="url(#g)" transform="matrix(8.31615 0 0 -8.31615 -2309.693 484.715)"/><path d="M380.789 47.159l.007-3.033-.005 2.319-.002.714z" fill="url(#h)" transform="matrix(8.31615 0 0 -8.31615 -2309.693 484.715)"/><path d="M376.017 26.911l.587-.002-.003.004-.584-.002z" fill="url(#i)" transform="matrix(8.31615 0 0 -8.31615 -2309.693 484.715)"/><path d="M367.109 42.634l-.004-4.687.01 4.694-.006-.007" fill="url(#j)" transform="matrix(8.31615 0 0 -8.31615 -2309.693 484.715)"/><path d="M362.537 26.834l1.364.017-1.364-.017a.832.832 0 0 1 .313-.538c.269-.228.238-.533.232-.833-.003-.121 0-.243 0-.389h1.72c-.157.298-.264.603-.455.841-.24.301-.387.608-.446.936l-1.364-.017z" fill="url(#k)" transform="matrix(8.31615 0 0 -8.31615 -2309.693 484.715)"/><path d="M374.865 26.908l.048-.12.036-.087c.12-.266.284-.457.58-.554.082-.026.165-.136.19-.225.079-.279.129-.565.193-.863h1.838c-.302.511-.556 1.016-.877 1.472l-.269.378-.587.002-1.152-.003z" fill="url(#l)" transform="matrix(8.31615 0 0 -8.31615 -2309.693 484.715)"/><path d="M380.236 26.897a.83.83 0 0 1 .176-.203c.511-.438.735-.983.75-1.647h1.833c-.099.195-.171.378-.276.54-.268.411-.456.719-.75 1.111l-.053.073-.029.037c-.021.028-.038.056-.056.084l-.713.003-.882.002z" fill="url(#m)" transform="matrix(8.31615 0 0 -8.31615 -2309.693 484.715)"/><path d="M365.889 37.936l.01-.173a4.694 4.694 0 0 0-.021-.702l-.005-.033a5.746 5.746 0 0 0-.335-1.389s-.066-.182-.102-.272a6.727 6.727 0 0 0-.707-1.311l-.006-.008c-.091-.131-.322-.428-.322-.428a7.478 7.478 0 0 0-.331-.385c-.077-.082-.149-.221-.136-.324.14-1.215-.309-2.306-.662-3.418l-.001-.001c-.035-.114-.071-.228-.104-.343-.148-.51-.472-1.524-.472-1.524l-.007-.024-.083-.258a1.123 1.123 0 0 1-.068-.509l1.364.017c-.053.292-.035.601.052.938.097.376.202.748.319 1.116h.001c.29.914.658 1.793 1.2 2.602.069.104.231.323.231.323.392.519.842.952 1.375 1.314l.026 4.803-1.216-.011z" fill="url(#n)" transform="matrix(8.31615 0 0 -8.31615 -2309.693 484.715)"/><path d="M362.537 26.834l1.364.017-1.364-.017z" fill="url(#o)" transform="matrix(8.31615 0 0 -8.31615 -2309.693 484.715)"/><path d="M367.079 33.144l.202.133c.134.083.428.271.428.271.471.301.901.602 1.306.99 0 0 .176.171.26.263.258.286.487.599.742.916l.019-.012a.055.055 0 0 1 .007.009c.7-.404 1.151-.978 1.318-1.777l.05-.478c.001-.055-.006-.234-.006-.234a3.988 3.988 0 0 0-.045-.407s-.119-.596-.185-.89c-.123-.556-.107-.643.347-.985.199-.149.39-.306.578-.464l.02-.017a11.587 11.587 0 0 0 2.214-2.486c.216-.327.382-.693.529-1.061l1.154-.004.584.002c-.208.293-.415.586-.624.878-.754 1.054-1.517 2.103-2.272 3.156-.175.243-.241.507-.157.78 0 0 .032.098.057.147.075.146.22.479.22.479.297.709.466 1.42.642 2.164 0 0 .17.721.265 1.077l.086.321.027-.005v.003a31.108 31.108 0 0 1 2.684-.343c.1-.007.773-.055 1.112-.069a26.327 26.327 0 0 1 1.039-.024c.448 0 .895.014 1.343.036l-.025 2.317-13.893.117-.026-4.803z" fill="url(#p)" transform="matrix(8.31615 0 0 -8.31615 -2309.693 484.715)"/><path d="M381.055 29.604l-.327-1.04c-.095-.3-.437-.886-.437-.886-.152-.285-.194-.546-.055-.781l.882-.002-.031 2.809-.032-.1" fill="url(#q)" transform="matrix(8.31615 0 0 -8.31615 -2309.693 484.715)"/><path d="M374.863 26.915l.002-.007 1.152.003-1.154.004z" fill="url(#r)" transform="matrix(8.31615 0 0 -8.31615 -2309.693 484.715)"/><path d="M380.998 37.83l.025-2.317a26.197 26.197 0 0 1 1.463.113l.002-.005.026.003c.013-.049.029-.076.025-.098l-.107-.503-.508-2.352s-.095-.399-.144-.59a49.271 49.271 0 0 0-.693-2.377l.031-2.809.713-.003a1.1 1.1 0 0 0-.077 1.079c.273.611.845 1.859.845 1.859.312.665.626 1.293.989 1.932l.137.235c.15.258.438.705.499.799.104.158.208.313.318.467.426.593.725 1.276 1.076 1.921.157.285.498.462.821.462l.079-.003c.1-.006.198-.03.288-.073.27-.135.545-.247.824-.343h.002a8.167 8.167 0 0 1 1.224-.313s.731-.113 1.105-.143c.569-.046 1.132-.184 1.692-.306.272-.06.386-.287.332-.571-.079-.42-.162-.841-.243-1.261-.062-.316-.121-.632-.181-.948v-.001s-.081-.413-.119-.62c-.039-.213-.143-.341-.346-.395a1.243 1.243 0 0 1-.725-.524c-.019-.028-.038-.056-.055-.085-.046-.075-.168-.136-.261-.145a2.784 2.784 0 0 0-.277-.012c-.127 0-.257.006-.396.006v-1.763c.414.118.819.184 1.177.353a3.45 3.45 0 0 1 1.44 1.22c.059.089.36.672.432.891.169.503.339 1.005.503 1.509 0 0 .119.367.177.552.177.561.343 1.128.486 1.7.049.196.095.392.139.59.087.397-.1.688-.375.849-.464.274-.939.517-1.425.732-.604.268-1.224.492-1.864.66-.391.102-.789.186-1.194.247-.035.006-.07.021-.107.031.051.155.105.309.159.462l.024.07-7.956-.182z" fill="url(#s)" transform="matrix(8.31615 0 0 -8.31615 -2309.693 484.715)"/><path d="M367.117 43.845l-.001-.6c.13-.019.262-.05.396-.094-.131-.171-.266-.34-.397-.51l-.01-4.694 13.893-.117-.202 6.296-13.679-.281z" fill="url(#t)" transform="matrix(8.31615 0 0 -8.31615 -2309.693 484.715)"/><path d="M380.796 44.126l.202-6.296 7.956.182c.088.25.173.5.245.754.022.079.046.159.065.24.022.094.07.324.07.324.097.466.16.902.197 1.374.048.627.28 1.188.502 1.757l.035.086c.212.537.417.949.706 1.445l.032.055.001.002.184.307-10.195-.23z" fill="url(#u)" transform="matrix(8.31615 0 0 -8.31615 -2309.693 484.715)"/><path d="M374.476 46.43c.009-.305.037-.691.121-1.201.059-.358.216-.601.428-.77l-.032.006.006-.005c-.507.091-1.019.185-1.391.257-.199.037-.396.069-.593.095-.083.229-.211.561-.277.613-.104.081-.13.242-.13.323 0 .079.203.389.339.678l-.961-.001c-.046-.18-.091-.37-.133-.57 0 0-.27-.324-.324-.512a5.016 5.016 0 0 0-.201-.49 6.761 6.761 0 0 1-.723-.102l-.021-.005a6.264 6.264 0 0 1-1.535-.51c-.039-.018-.143-.059-.143-.059a1.94 1.94 0 0 0-.85-.135 4.7 4.7 0 0 0-.69.099c-.067.013-.178.028-.25.038l.001-.334 13.679.281-.005 2.319-6.315-.015zm-2.013-1.565l.009.052c.023.108.08.147.12.147.002 0 .005-.001.009-.004a.057.057 0 0 0 .018.003c.025 0 .112-.133.169-.224l-.027.003v-.001c-.1.01-.199.018-.298.024" fill="url(#v)" transform="matrix(8.31615 0 0 -8.31615 -2309.693 484.715)"/><path d="M365.648 42.665c-.237-.313-.378-.676-.506-1.058l-.011-.03-.024-.074c-.241-.729-.351-1.456-.4-2.213 0 0-.035-.71-.035-1.054a7.957 7.957 0 0 0-.01-.31 6.53 6.53 0 0 0-.669-2.617l-.067-.135a6.95 6.95 0 0 0-.426-.713c-.072-.108-.264-.292-.264-.292a1.454 1.454 0 0 0-.932-.352 1.387 1.387 0 0 1 .026-.002c.347 0 .678.136.932.352 0 0 .192.184.264.291.158.233.3.471.426.714l.067.135a6.58 6.58 0 0 1 .678 2.928c.001.344.035 1.053.035 1.053.049.758.159 1.484.401 2.213l.024.075.01.029c.128.382.269.746.507 1.059.316.415.725.599 1.183.599h.044l-.07.001c-.457 0-.867-.185-1.183-.599" fill="url(#w)" transform="matrix(8.31615 0 0 -8.31615 -2309.693 484.715)"/><path d="M361.998 37.904c.025-.468.088-.932.189-1.396a9.35 9.35 0 0 1 .21-.796c.062-.201.074-.396.066-.578-.017-.422-.431-.74-.431-.74-.18-.114-.409-.148-.616-.218.249-.219.52-.329.786-.355a1.454 1.454 0 0 1 1.034.348s.192.184.264.292c.158.232.3.47.426.713l.067.135a6.53 6.53 0 0 1 .669 2.617l-2.664-.022z" fill="url(#x)" transform="matrix(8.31615 0 0 -8.31615 -2309.693 484.715)"/><path d="M396.598 49.707l-.027.001.027-.001m.029-.001l-.029.001.029-.001m.027-.002h.001c.434-.021.867-.091 1.301-.138-.427-.309-.862-.55-1.284-.814a.493.493 0 0 1-.199-.298c-.095-.577-.169-1.156-.251-1.735-.105-.752-.216-1.502-.323-2.253-.044-.307-.088-.614-.13-.921l-.016-.121a57.814 57.814 0 0 1-.159-1.243 1.171 1.171 0 0 0-.866-1.01l-.194.007.194-.007h-.001l.03-.001-.03.001a1.14 1.14 0 0 0-.306-.042l-.046.001a1.156 1.156 0 0 1 .382.04c.425.115.803.469.867 1.009a57 57 0 0 0 .157 1.243l.016.121c.144 1.059.306 2.117.454 3.175.081.579.156 1.158.252 1.735.018.109.104.24.197.298.423.264.859.505 1.284.814-.433.048-.865.117-1.3.138l-.028.002-.029.001.027-.002" fill="url(#y)" transform="matrix(8.31615 0 0 -8.31615 -2309.693 484.715)"/><path d="M392.589 44.392c.02-.063.04-.127.058-.191V44.2c.098-.321.282-1.065.282-1.065.024-.121.05-.243.042-.371-.011-.173-.038-.351-.041-.524-.002-.14.005-.286.043-.419a.456.456 0 0 1 .088-.181l.018-.024a.229.229 0 0 1 .072-.059c.303-.134.551-.258.868-.347l.058-.017h-.001l.002-.001c.047-.012.094-.029.141-.04.051-.011.103-.018.156-.022l.046-.001c.102 0 .206.014.306.042l-.165.005.165-.005h.001l-.194.007.194-.007c.425.116.803.469.866 1.01.053.454.097.79.159 1.243l.016.121c.042.307.086.614.13.921l-3.31-.074z" fill="url(#z)" transform="matrix(8.31615 0 0 -8.31615 -2309.693 484.715)"/><path d="M377.115 58.286l.018-.001c.269-.013.508-.092.685-.237.178-.145.25-.257.343-.343.092-.085.435-.5.463-.575.03-.08.068-.262.066-.332-.004-.242-.094-.562-.134-.615a.492.492 0 0 1-.072-.237c-.006-.093.01-.189-.033-.237-.048-.052-.132-.046-.165-.165-.033-.118-.115-.25-.148-.362-.034-.112-.062-.211-.164-.29-.102-.079-.316-.146-.373-.221-.057-.074-.11-.258-.185-.345a.329.329 0 0 0-.24-.124h.018a.33.33 0 0 1 .25.123c.074.088.127.272.184.346.057.075.271.142.374.221.101.079.129.178.163.29.033.112.115.244.148.362.033.118.117.113.165.165.043.048.027.144.033.237a.492.492 0 0 0 .072.237c.04.053.13.373.135.615.002.069-.037.252-.067.332-.028.075-.371.49-.463.575-.093.086-.165.198-.343.343-.177.145-.415.224-.685.237l-.03.001h-.015zm-.406-3.995c.005-.084.075-.172.092-.304.018-.131.032-.307.04-.448.009-.14.031-.404.11-.518.037-.055.21-.402.417-.694.106-.15.267-.373.329-.677a1.025 1.025 0 0 0-.166-.745.315.315 0 0 1-.031-.352c.035-.07.105-.123.245-.317.142-.192.41-.575.528-.75.118-.176.421-.519.54-.655.118-.136.259-.352.382-.452.123-.101.229-.242.36-.395.132-.154.285-.229.276-.357-.008-.127-.042-.175.001-.219.043-.043.122-.212.516-.224-.371.018-.447.181-.489.223-.043.044-.009.092 0 .219.008.128-.144.203-.276.357-.132.153-.238.294-.361.395-.123.101-.264.316-.382.452s-.422.479-.539.655c-.119.175-.387.558-.528.75-.141.194-.211.247-.246.317a.319.319 0 0 0 .031.353c.083.104.238.432.161.77-.068.301-.217.501-.324.652-.206.291-.38.638-.417.694-.08.114-.101.378-.11.518a6.187 6.187 0 0 1-.04.447c-.017.133-.088.221-.092.304-.002.041.02.063.05.067l-.015.001c-.035 0-.064-.021-.062-.067m-3.462-3.892h-.01l.036-.001c.053 0 .111.006.172.018a.069.069 0 0 0 .003.008.836.836 0 0 0-.201-.025m20.749-.48c.055-.011.11-.019.167-.03.33-.068.659-.168.991-.187a2.677 2.677 0 0 0 .03-.001c-.333.019-.662.119-.992.187-.057.012-.112.019-.167.03-.422.076-.825.12-1.216.13a8.008 8.008 0 0 0 1.187-.129m-16.364-1.268c.057-.083.118-.149.201-.488.084-.338.246-.496.361-.606.096-.092.298-.113.386-.114-.097.004-.272.029-.359.113-.115.11-.277.268-.36.607-.083.338-.145.404-.202.487-.054.079-.03.11-.005.172l-.022.014c-.027-.071-.058-.102 0-.185" fill="url(#A)" transform="matrix(8.31615 0 0 -8.31615 -2309.693 484.715)"/><path d="M366.807 42.218c-.188-.28-.35-.57-.488-.868h.001l-.001-.002a5.17 5.17 0 0 1-.469-1.839c-.034-.53.007-1.048.039-1.573l1.216.011.004 4.687a8.62 8.62 0 0 1-.302-.416" fill="url(#B)" transform="matrix(8.31615 0 0 -8.31615 -2309.693 484.715)"/><path d="M365.118 43.893c-.857-.324-1.505-.819-1.982-1.45 0 0-.162-.228-.237-.349a5.202 5.202 0 0 1-.42-.857v-.001a6.604 6.604 0 0 1-.3-1.028 8.912 8.912 0 0 1-.181-2.304l2.664.022c.005.103.009.206.01.31 0 .344.035 1.054.035 1.054.049.757.159 1.484.4 2.213l.024.074.011.03c.128.382.269.745.506 1.058.316.414.726.599 1.183.599l.07-.001c.069-.002.138-.008.209-.017v.934l-.06.007-.027.004c-.06.006-.119.011-.179.014-.054.002-.108.004-.162.004-.536 0-1.048-.122-1.564-.316" fill="url(#C)" transform="matrix(8.31615 0 0 -8.31615 -2309.693 484.715)"/><path d="M391.376 49.925l-.043-.008a6.835 6.835 0 0 1-2.309-.94s-.556-.377-.826-.596l-.217-.184c-.027-.023-.027-.022-.055-.044-.576-.503-1.774-1.501-1.774-1.501-.471-.391-.925-.763-1.395-1.156-.165-.138-.303-.176-.425-.228a4.722 4.722 0 0 0-.441-.154l.004.011-.032-.009.1.294c.119.346.116.782-.586 1.062-.137.055-.682.234-.874.286-.194.053-.54.145-.813.202-.273.057-.375.103-.586.146-.1.021-.203.04-.315.053l.007-3.033 10.195.23c.193.31.399.614.619.912l.02-.011.008.01c.01-.005.02-.01.03-.017l.002-.001c.239-.133.47-.255.692-.391a.365.365 0 0 0 .145-.19l.082-.276 3.31.074c.107.751.218 1.501.323 2.253.082.579.156 1.158.251 1.735.019.109.106.24.199.298.422.264.857.505 1.284.814-.434.047-.867.117-1.301.138h-.001l-.027.002-.056.002c-.056.002-.112.002-.168.002-.15 0-.3-.004-.451-.008-.15-.005-.3-.009-.451-.009-.063 0-.126 0-.189.002a2.824 2.824 0 0 0-.158.007c-.332.019-.661.119-.991.187-.057.011-.112.019-.167.03a8.008 8.008 0 0 1-1.187.129 6.333 6.333 0 0 1-1.433-.123" fill="url(#D)" transform="matrix(8.31615 0 0 -8.31615 -2309.693 484.715)"/><path d="M376.886 58.261c-.02-.003-.04-.008-.061-.013v.001s-.513-.056-1.404-.625c-.775-.495-1.247-.909-1.519-1.302-.273-.393-.479-.985-.515-1.295-.051-.439-.074-.718-.278-.972-.149-.185-.379-.756-.34-1.032.051-.377.323-.754.593-1.131.251-.352.186-.625.054-.863-.26-.468-.422-.582-.422-.582s.097-.042.243-.048h.01c.06 0 .129.007.201.025l-.003-.008.03.007c-.18-.472-.485-1.242-.545-1.588 0 0-.524-.779-.944-2.41l.961.001.01.023c.135.296.836 1.913.889 2.102.055.189.109.243.19.458.042.11.224.442.394.738l.01-.03.017.029c.062-.178.123-.338.18-.45.307-.615.099-.844-.002-1.151-.101-.307-.157-.904-.161-1.26-.001-.13-.003-.279.002-.455l6.315.015-.002.714a3.584 3.584 0 0 1-.27.023h-.102l-.069.002c-.394.012-.473.181-.516.224-.043.044-.009.092-.001.219.009.128-.144.203-.276.357-.131.153-.237.294-.36.395-.123.1-.264.316-.382.452-.119.136-.422.479-.54.655a28.49 28.49 0 0 1-.528.75c-.14.194-.21.247-.245.317a.315.315 0 0 0 .031.352c.079.099.231.419.166.745-.062.304-.223.527-.329.677-.207.292-.38.639-.417.694-.079.114-.101.378-.11.518a6.216 6.216 0 0 1-.04.448c-.017.132-.087.22-.092.304-.002.046.027.067.062.067l.015-.001a.045.045 0 0 0 .012.001.126.126 0 0 0 .088-.041c.056-.061.198-.109.29-.115a.329.329 0 0 1 .24.124c.075.087.128.271.185.345.057.075.271.142.373.221.102.079.13.178.164.29.033.112.115.244.148.362.033.119.117.113.165.165.043.048.027.144.033.237a.492.492 0 0 0 .072.237c.04.053.13.373.134.615.002.07-.036.252-.066.332-.028.075-.371.49-.463.575-.093.086-.165.198-.343.343-.177.145-.416.224-.685.237l-.018.001a1.791 1.791 0 0 1-.229-.025m1.694-10.818c-.088.001-.29.022-.386.114-.115.11-.277.268-.361.606-.083.339-.144.405-.201.488-.058.083-.027.114 0 .185l.022-.014.005.013s.219-.123.334-.212c.113-.087.281-.157.355-.267.075-.11.207-.294.237-.453.031-.158.137-.285.141-.333.005-.049-.039-.124-.083-.128l-.025-.001-.038.002" fill="url(#E)" transform="matrix(8.31615 0 0 -8.31615 -2309.693 484.715)"/></svg>