<svg xmlns="http://www.w3.org/2000/svg" viewBox="0 0 1000 621.968"><defs><clipPath id="a"><path d="M42.52 1011.455h219.721v136.576H42.52v-136.576z"/></clipPath></defs><g clip-path="url(#a)" transform="matrix(4.5467 0 0 -4.5467 -192.826 5220.255)"><path d="M42.545 1148.032H262.24l-.018-97.076c-19.281 3.554-39.917 5.17-61.117 6.347-.832 1.491-2.186 3.468-2.204 5.793-.012 2.146 1.645 11.413 4.51 17.053 1.298 1.667 2.742 3.529 4.022 4.173 0 0 .71-.69.763-.91 0 0-1.055-.37-2.08-1.9 3.088-.792 2.027-8.115 2.027-8.115-.52-1.14-1.651-2.761-3.332-2.822-.571-2.021-.47-3.576-.97-5.28 5.833 1.287 10.03 14.022 9.545 16.319-.64 3.022-3.694 6.169-1.301 10.432l1.848-.041s.297 2.672.779 3.77c1.96 4.432 2.383 6.635 2.433 8.278.047 1.649-1.567 5.607-1.838 6.754 0 0-1.077 3.265-.766 3.474 1.132.767 3.098 1.98 4.332 2.395 1.572.592 3.55 1.405 3.638 2.298.103.955.006 1.179-.04 1.71-.465 1.382-7.06-.177-7.96 3.088-.114.408-.417.585-1.698.618l-.291 1.196c2.265.557 3.788 1.187 3.967 1.257.864.347 1.12.27 1.024.67l-.667 1.874c-.113.392-.656-.014-1.262-.226-1.401-.448-2.222-.708-2.48-.702-.446.085-.852.59-.84.93 1.088 1.76 4.534 3.999 4.316 8.563l-1.258-.191c-.692-4.528-6.264-7.744-6.323-7.711-.094.055-3.288.357-4.861 3.18l-1.281 6.15c-.364.156-1.264.188-1.285.073-.065-.287-.158-3.408-.167-5.071 0 0-9.492-.756-11.667 9.767l-1.52-.423s-.405-11.043 12.948-12.361c0 0 2.746-2.79 6.505-3.605 0 0-6.467-3.596-12.476-1.394-.188.122-.74.457-1.045 1.34-.377 1.108-1.487 5.334-1.487 5.334s-.278.126-.78.04c-.505-.084-.714-.251-.714-.251l.248-4.37c-.427.432-4.798 2.713-6.554 9.792 0 0-1.722-.571-1.731-.602.019-.091 1.255-10.626 11.664-13.678 4.215-1.237 8.02-.487 11.105.694l.44-.699c-.902-.665-3.144-1.525-3.144-2.62.012-1.274 2.116-1.605 2.307-3.612.433-4.732-3.092-10.47-6.441-13.82-2.181-1.966-3.791-2.735-3.791-2.735-6.813-2.669-15.79-2.106-23.05-3.578-4.146-1.126-6.96-4.259-8.71-9.218.083-2.242 3.744-4.513 2.746-7.914-.5-1.7-2.16-2.958-3.228-4.046-.936-5.09.876-11.438-5.233-13.339l.006-4.714c-40.058-.135-80.18-2.528-115.278-6.439l.02 96.1zm219.677-99.853l-.006-36.724-219.697.034.006 37.844c49.927 5.041 145.159 10.214 219.697-1.155m-102.177 10.197c3.3 2.273 5.45 6.762 5.45 6.762.918 4.517.686 6.282 2.144 8.079.227.272 1.795.76 2.82 1.106-.155 1.358-1.568 2.368-1.568 2.368.217.135.699.507.699.507s.848.52 2.227-3.308c1.673-3.694 1.044-9.255 3.395-14.868.12-.28.264-.541.433-.78-5.193.097-10.4.142-15.6.135m20.924-.254c-.347.407-1.061 1.442-2.492 4.054-1.332 4.046-2.49 5.61 2.313 17.836 2.15 4.558 2.058 4.072 2.058 4.072l.949-.128c-1.5-3.885-1.203-3.257-1.203-3.257s5.125-2.96 10.594-1.075l-.695 4.379 2.887.99.197-.695-1.793-1.092.813-5.304c.634-2.715.575-15.192 1.533-20.344-5.028.244-10.086.427-15.161.563m31.797 61.447c-.341-.199-2.885.901-2.86 1.397.03.494 3.063 1.275 3.312.964.244-.309-.114-2.159-.452-2.36M80.12 1032.74c-1.93 0-3.414-1.236-3.61-3.706l7.218-.004c-.087 2.527-1.69 3.71-3.608 3.71m.518-11.552c1.356 0 2.824.634 3.885 1.728l3.54-2.574c-2.092-2.513-4.713-3.476-7.347-3.476-4.046.004-8.765 1.994-8.765 10.045.004 7.585 4.302 10.161 8.169 10.161 4.369 0 8.16-3.277 8.16-8.4v-3.52l-11.781.003c.136-2.66 1.822-3.967 4.139-3.967m56.112 11.316c-1.21 0-2.281-.559-2.762-1.236-.645-.92-.867-1.578-.867-4.296 0-2.755.218-3.407.864-4.328.484-.679 1.556-1.242 2.765-1.242 1.208 0 2.28.563 2.76 1.238.648.921.869 1.581.869 4.295 0 2.757-.217 3.412-.866 4.333-.482.677-1.55 1.236-2.763 1.236m0 4.558c3.074 0 4.914-1.342 6.018-2.564 1.539-1.709 2.145-3.387 2.145-7.526 0-4.17-.608-5.853-2.145-7.559-1.104-1.226-2.946-2.557-6.018-2.557-3.07 0-4.922 1.335-6.017 2.557-1.545 1.71-2.145 3.39-2.145 7.56 0 4.142.606 5.82 2.145 7.527 1.1 1.222 2.946 2.562 6.017 2.562m32.667-15.665c3.14 0 3.373 2.692 3.373 5.57 0 2.837-.23 5.531-3.368 5.531-3.184.004-3.414-2.513-3.414-5.532 0-3.052.228-5.569 3.409-5.569m-1.156-4.547c-2.436 0-4.223 1.108-5.363 2.62-1.125 1.456-1.416 2.812-1.416 7.496 0 4.654.29 6.006 1.416 7.47 1.144 1.51 2.927 2.62 5.363 2.62 1.768 0 3.307-.675 4.529-1.775v12.062l4.532-.004-.006-30.268h-4.53l.004 1.466c-1.228-1.126-2.807-1.687-4.53-1.687m56.499.211h-4.53v19.76h4.536l-.006-19.76m.006 22.898h-4.535l.006 4.55h4.529v-4.55m-171.24-22.87H48.77l.006 27.447h4.754v-11.444l9.803-.004v11.448l4.753-.004-.002-27.444-4.751.001v11.674l-9.803.003-.004-11.677m46.93 19.98c1.334 0 2.465-.434 3.489-1.129l-2.52-4.137c-.822.597-1.424.71-2.241.71-1.614 0-3.097-1.045-3.097-3.615v-11.814h-4.53l.007 19.759h4.527l-.004-1.525c1.186 1.164 2.603 1.75 4.369 1.75m11.194-.227h3.37v-3.66h-3.37l-.008-10.704c0-.862.258-1.073.98-1.073h2.399l-.006-4.323h-2.956c-2.84 0-4.95 1.848-4.95 5.056v11.048h-1.901v3.656h1.905l.002 5.78h4.535v-5.78m5.368 0h1.907v2.15c0 3.793 2.39 5.535 5.509 5.535h2.826v-4.326l-2.521.004c-1.05 0-1.287-.264-1.287-1.212v-2.155h3.808v-3.655h-3.808v-16.104h-4.533l.006 16.104h-1.907v3.659m75.509-13.594c0 1.04-.703 1.408-1.984 1.516l-3.355.303c-3.271.289-5.778 2.269-5.778 5.77 0 4.147 3.318 6.217 7.417 6.217 3.409 0 5.725-1.047 7.66-2.68l-2.525-3.555c-1.543 1.175-2.996 2.006-5.135 2.006-2.29 0-2.891-.97-2.891-2.025 0-.565.372-1.301 2.165-1.45l2.824-.215c4.022-.313 6.136-2.405 6.136-5.97 0-4.12-3.62-6.315-8.204-6.315-3.153.002-6.036 1.069-8.567 3.515l2.893 3.397c1.842-1.805 3.548-2.692 5.975-2.692 2.123 0 3.369.899 3.369 2.178m17.039 13.804c3.12 0 6.673-2.426 6.669-6.977l-.002-13.012-4.528.004v11.7c0 2.539-1.185 3.727-3.281 3.727-1.956 0-3.495-1.334-3.495-3.727l-.004-11.7h-4.534l.006 30.272h4.534v-12.04c1.222 1.17 2.824 1.753 4.635 1.753m-52.09.008c1.335 0 2.472-.433 3.498-1.128l-2.525-4.136c-.817.598-1.425.708-2.234.708-1.616 0-3.097-1.043-3.097-3.613v-11.816h-4.537l.008 19.76h4.529v-1.525c1.182 1.164 2.6 1.75 4.359 1.75m80.119-.014c1.336 0 2.474-.431 3.499-1.126l-2.527-4.136c-.82.596-1.422.708-2.233.708-1.616 0-3.098-1.045-3.098-3.617v-11.814h-4.528v19.76l4.532-.001-.004-1.525c1.185 1.165 2.608 1.753 4.359 1.75m11.16-4.33c-1.924 0-3.414-1.236-3.611-3.706l7.219-.002c-.085 2.527-1.683 3.708-3.607 3.708m.52-11.553c1.355 0 2.827.634 3.884 1.728l3.543-2.574c-2.096-2.513-4.718-3.475-7.351-3.475-4.04 0-8.758 1.997-8.758 10.044 0 7.585 4.3 10.16 8.162 10.16 4.373-.001 8.163-3.276 8.163-8.398v-3.52h-11.786c.137-2.656 1.824-3.965 4.144-3.965" fill="rgba(255,255,255,0.9000000000000001)" fill-rule="evenodd"/></g></svg>