<svg xmlns="http://www.w3.org/2000/svg" viewBox="0 0 188.481 43.444"><path d="M57.731 12.592v18.25h4.157V20.279l4.687 10.563h4.281l4.594-10.625v10.625h4.031v-18.25h-4.656l-6.062 13.656-6.157-13.656h-4.875zm31.625 0l-8.093 18.25h4.718l1.532-3.625h9.53l1.626 3.625h4.656l-8.156-18.25h-5.813zm15.844 0v18.25h17.469v-3.656h-13.281v-3.75h11.344v-3.563h-11.344v-3.625h13.25v-3.656H105.2zm20.844 0v18.25h4.281v-6.219h4.813l4.031 6.219h4.688l-4.25-6.375c.145 0 .3.006.437 0 2.422 0 3.656-1.276 3.656-2.688v-6.125c0-1.935-1.115-3.062-3.062-3.062h-14.594zm24.063 0c-1.574 0-2.875 1.172-2.875 2.812v5.438c0 1.539 1.193 2.625 2.843 2.625h10.344v3.75h-9.031V25.81h-4.25v2.375c0 1.587.925 2.687 2.812 2.687h11.844c1.841 0 2.813-1.1 2.813-2.875V22.81c0-1.94-1.385-2.97-2.907-2.97h-10.312v-3.593h9.031v1.438h4.188v-2.157c0-1.722-1.092-2.937-2.688-2.937h-11.813zm18.562 0v18.281h4.344V22.56l8.406 8.313h6.063l-10.188-9.781 9.813-8.5h-5.844l-8.25 7.312v-7.312h-4.344zm-76.438 3.437l3.376 7.75H88.95l3.282-7.75zm38.094.219h9.157v4.719h-9.157v-4.719z" fill="rgba(255,255,255,0.30025882352941174)"/><path d="M40.273 37.719a4.724 4.724 0 0 1-4.724 4.725H5.725A4.724 4.724 0 0 1 1 37.719V5.725A4.724 4.724 0 0 1 5.725 1h29.824a4.724 4.724 0 0 1 4.723 4.725v31.994z" fill="rgba(255,255,255,0.6532)"/><path d="M26.896 20.646l7.75-9.719-.023-.03-11.2 5.393-2.767-12.12h-.04L17.85 16.29l-11.2-5.394-.025.031 7.751 9.719-11.2 5.394.01.039h12.43l-2.766 12.12.035.016 7.752-9.719 7.75 9.719.035-.018-2.765-12.118h12.43l.01-.04-11.2-5.393z" fill="rgba(255,255,255,0.9000000000000001)"/></svg>