<svg xmlns="http://www.w3.org/2000/svg" viewBox="0 0 1000 216.223"><defs><clipPath id="a"><path d="M395.723 37.207h128.179v27.615H395.723V37.207z"/></clipPath></defs><g clip-path="url(#a)" transform="matrix(7.79379 0 0 -7.79379 -3083.681 505.707)" fill="rgba(255,255,255,0.9000000000000001)"><path d="M409.502 37.49v-.283c7.669.002 13.884 6.219 13.884 13.824 0 3.81-1.556 7.26-4.068 9.754a13.897 13.897 0 0 1-9.816 4.037c-7.612 0-13.78-6.167-13.78-13.791 0-7.605 6.166-13.822 13.78-13.824v.569a13.123 13.123 0 0 0-9.34 3.894 13.25 13.25 0 0 0-3.868 9.36c0 3.657 1.479 6.962 3.867 9.35a13.15 13.15 0 0 0 9.34 3.872c3.679 0 7.007-1.477 9.417-3.872a13.131 13.131 0 0 0 3.9-9.35c0-3.643-1.492-6.955-3.9-9.36a13.288 13.288 0 0 0-9.416-3.894v-.286z"/><path d="M412.811 47.36l.052.26c-.474.113-1.102.113-1.626 0v-.26s.21.06.313.06c0 0-.104-.423-.104-.475l.214-.111c.101.11.101.526.101.586.052 0 .161.052.161.052v-.901h.313l-.052.9c.104-.051.206-.051.265-.051 0-.217.05-.423.154-.586l.21.11a2.698 2.698 0 0 0-.162.476l.161-.06zm-1.05.898h.161l.052.835c-.213 0-.213.213-.263.317.05 0 .211 0 .263-.052-.16.052-.213.1-.263.363 0 0 .263-.05.263-.098-.16.098-.314.159-.263.42.05-.06.152 0 .211-.06-.059.06-.16.11-.21.264h.21c-.059 0-.21.267-.109.372 0 0 .161-.161.161-.105-.052.105-.052.157.1.318.213-.161.054-.424.054-.424s.055.159.21.21c.11-.26-.05-.26-.155-.371.154.11.154.059.265.059 0-.263-.213-.323-.265-.323.104.06.154 0 .265.06 0-.261-.16-.322-.265-.42 0 0 .104.098.265.098a.402.402 0 0 0-.265-.363.57.57 0 0 0 .265.052c-.059-.104-.059-.317-.265-.317l.052-.835h.154c.06.21.06.415.161.624-.16.052-.16.21-.16.315.058 0 .16-.05.212-.104-.154.165-.213.213-.104.426.152-.06.211-.161.211-.161l-.059.052c-.1.109-.1.26-.048.42.048-.048.157-.048.21-.11-.103.062-.162.263-.103.323.102-.06.154 0 .206-.161-.052.16-.156.16-.052.424.161-.06.161-.263.161-.263-.054.152.05.315.211.365a.32.32 0 0 0-.059-.365c.11.05.161.05.213.05-.052-.16-.154-.211-.315-.263.161.052.161 0 .315 0-.052-.16-.213-.207-.315-.207.102 0 .102-.054.211-.104-.05-.161-.21-.161-.37-.213h.261c-.102-.213-.152-.261-.365-.261.104 0 .263-.05.263-.05-.104-.113-.21-.213-.365-.213a1.406 1.406 0 0 1-.107-.524h.261l.052-.317a6.02 6.02 0 0 0-1.729.052l.103.313.261-.048c0 .21-.052.31-.153.524-.16-.05-.21.1-.373.213.11 0 .213.05.265 0-.155 0-.265.098-.367.263h.264c-.162 0-.313.048-.373.26.11 0 .11.05.211.05.11 0-.26 0-.26.214.11.048.158 0 .26 0-.21.048-.21.1-.26.26 0 0 .05 0 .21-.06-.1.06-.16.213-.052.426.102-.05.212-.161.212-.261 0 .048.052.048.103.1.1-.264-.05-.264-.05-.365.05.1.102.1.21.16.05-.16 0-.26-.108-.371.108.11.108.05.21.11.051-.158.051-.322-.102-.423 0 0 .101.1.205.16.11-.212.058-.321-.104-.425.052.054.213.165.263.165-.05-.165 0-.324-.21-.376.11 0 .21-.624.21-.624m-3.514-4.253c.05-.11.524-.321.261-.321-.212-.1-.37.058-.474 0 0 0-.108.058.104-.205.158-.162-.264-.475-.367-.631-.108.312-.474.419-.26.683.05.153 0 .153-.214.1 0 0-.263-.046-.263.11l.213.207c.365.21.313.26.263.633-.109 0-.109-.112-.213-.112-.05-.151-.05-.311-.263-.417-.05-.047-.159.156-.1.266-.059-.051-.059-.313-.32-.37-.053-.103-.053.26-.053.26-.05-.156-.314-.156-.416-.05-.16.05-.058.31.154.372.37 0-.26.103.11.262.205.1.416-.055.466-.211 0 .156-.206.312-.05.364a.486.486 0 0 0 .422-.208s.21 0 .313.156c0-.05-.103.052-.313.213-.11.155-.052-.262-.474 0-.104.102 0 .155.052.263 0 .048-.156.214-.156.26-.055.053-.055.212-.055.264.16 0 .261.052.37 0 .102-.052.102-.158.211-.158.102 0 .154.106.262-.053.206-.208 0-.208-.056-.362.11-.06.211-.214.32-.214 0 .052.05.417 0 .477-.109-.11-.424.412-.32.524.056.047.262-.112.32-.06-.109.213-.32.213-.372.422-.052.424.211.315.314.162l-.05.203c.05.26.21.586.313.369.056-.108.108-.206.16-.31l-.052-.262c.104.153.364.314.364 0 0-.371-.364-.371-.364-.636.104 0 .262.373.314.112 0-.162-.1-.524-.314-.524-.108-.06-.052-.322 0-.477.052.052.104.102.262.263.155.105-.158.214.102.472.11.104.11-.106.264-.106.11.106.315.21.575.106 0-.211.058-.367-.364-.521 0-.06.211-.214-.05-.322h-.16c-.103 0-.103.16-.155.21-.11-.21-.26-.21-.37-.364 0-.107.26-.107.37-.107.052.156.203.208.365.208.104 0 0-.208 0-.312.104.159.314.21.422.21.103 0 0-.262 0-.313.207.05.577-.263.263-.372a.487.487 0 0 0-.37 0c-.052-.106-.052-.262-.154-.21a.498.498 0 0 0-.263.42c0-.16 0-.363-.109-.316a.435.435 0 0 0-.264.417c-.102.06-.15.112-.26.112 0-.212.05-.472.11-.576m8.028 4.3c.312.052.79-.156 1.05-.211-.102-.153-.26-.312-.315-.473-.313-1.152 1.051-1.361.79-2.413 0-.102-.053-.21-.105-.21-.524-.206-.998.37-1.472.37-.212.049-.363-.107-.576-.107-.109.156-.16.213-.372.262-.204-.315 0-.466-.366-.63-.21-.05-.473-.05-.682-.101 0 .206.057.416.107.577.05.105.102.576.213.626.362.315 1.78-.05 2.202-.05-.052.162-.162.315-.212.423-.21.203-.474.364-.577.629-.05.26.051 1.26.315 1.309m-9.292-7.138c-.21-.053-.737.313-1.1.313 0-.05.203-.524.311-.996-.572-.156-1.098.368-1.574.31 0-.416-.05-.891.154-1.203-.467-.16-.94.474-1.313.415 0-.154.06-.415.111-.574.05-.152.05-.263.15-.365-.15-.052-.202.05-.415.154-.209.109-.789.474-1.05.63-.05.315-.263.68-.21 1.055.16-.112.424-.054.575 0 .21.05.476-.054.685-.054-.052.262-.052.73 0 .995.315-.206.578-.055.84-.055.16 0 .311-.1.527-.151 0 .417.048.789.26 1.1.734-.576 1.68-.212 2.05-1.261.364-.263.152-.313 0-.313m7.824 1.68c.101-.265 0-.893-.059-1.055-.05.055.898.213 1.314.055.11-.265-.203-.941-.153-.941.313 0 .787 0 1.05-.054 0-.263-.16-.892-.16-1.107-.263-.154-1.466-1.052-1.262-.678.685 1.152.322.939-1.052.576.111.317.423.209.322 1.209-.847-.161-.998-.263-1.574-.524.154.415.365.578.365 1.152-.685-.104-1.05-.05-1.526-.313-.414-.261-.313-.112 0 .313.576.788 1.365.95 1.998 1.154l.263.057.474.156zm-3.572-3.678c.052.052-.526-.26-1-.527-.05.425-.365.688-.679.899-.056-.158-.056-.158-.16-.261-.103-.213-.16-.587-.364-.587-.263 0-.636.374-.847.528-.153-.206.06-1.152-.049-.995-.156.266-.84.367-.84.315.103-.261-.16-.472 0-.635a5.647 5.647 0 0 0-1.675.374c-.11.05-.213.05-.11.1.212.16.525.213.836.262 0 .05-.102.112-.102.112-.052.204.052.467 0 .728 0 .109-.052.16-.052.263.474.057.84-.154 1.262-.313-.056.42.206.633.155 1.099.16-.1.211-.203.314-.262.37-.15.684-.204.947-.366.211.263.422.529.685.788.314-.26.84-.472.942-.84.373.214.897.418 1.261.477-.05-.263.161-.368.161-.633.052-.104.052-.263.052-.365.415.053.89.102 1.202.152-.052-.1-.102-.152-.102-.313.05-.211.102-.315.05-.476.213-.1.315-.152.524-.26.113 0 .267-.103.267-.103-.476-.213-1.104-.312-1.467-.424-.526-.1-.059.163-.32.528-.206.259-.578.058-.89-.054.051.578.051.687 0 .789m7.138 11.762c-.263-.574-.155-1.15.213-1.674.312-.525.787-1.11.787-1.838.051-.373-.052-.79-.162-1.052 0 0-.154.049-.203.1.365.892.05 1.68-.526 2.414-.896.948-.372 1.365-.737 1.838-.159.164-.159.052-.474-.05-.05-.051.052 0-.209-.103-.315-.16-.417-.21-.68-.42-.057-.054-.21-.104-.263-.164-.058-.101-.058-.201-.058-.312.16-.413.373-.524.686-.676.102-.113.16-.213.315-.262.16-.06.261-.06.422-.212.102-.052.261-.263.313-.427.05-.573-.21-1.625.365-2.36.056-.052.262-.211.32-.26.205-.105.575-.105.68-.368.05-.213 0-.37.05-.685 0-.312.161-.576.11-.942-.11-.422-.58-.631-.475-1.261 0-.052.21-.212.103-.212l.211-.213h.05c.261.162.424.313.526.737 0 .162-.313.212-.102.527.102.315.474-.315.474.315.052.37-.05.836-.109 1.158-.054.527.524.944.21 1.465-.21.052-.525-.21-.889-.05.263.209.416.472.526.889.153.787 1.1.26 1.1-.203.423.262.423.464.423.84-.059.262-.059.363-.424.412.365.423.526.79.211 1.375-.047.1-.107.26-.21.31-.212.103-.525.055-.626.153-.112.06-.06.474 0 .526.153.473.891.9 1.312.372.467-.576-.789-1.996.728-2.313v.05c.11.213-.26.377-.1.737.1.104.21.317.1.476.11.054.322.313.161.474-.16.204-.422.152-.476.315-.048.209 0 .414.054.574h-2.415c-.05-.261 0-.474.052-.785-.153-.317-.416-.265-.313-.89.837.049 1.42-.06 1.262-1.316-.053-.107-.686-.42-.89-.32.051.16.051.528-.11.848-.678.889-1.05 1.36-.525 2.415l-.788.048zm-3.25 0l-.054-.048c-.263-.164-.474-.052-.635-.317-.102-.32.161-.474.161-.685.052-.363-.16-.624-.16-1 .05-.21.16-.525.16-.733-.05-.47-.263-.73-.05-1.152.261.098.524.31.728.475.585.52-.102.52-.102.997-.048.264.102.154.422.264.052.525-.372.677-.109 1.2v.11c.052 0 .052.104.052.104.11.159.372.1.525.21.212.05.524.262.736.363.211.112.424.164.577.212h-2.25zm-7.355 0c.211-.261.476-.574.68-.95.211.324.526.689.896.95h-1.576zm-1.422.05c.265-.15.32-.415.424-.676a2.042 2.042 0 0 1 1.474-1.311c.415-.165.99-.165 1.362-.526.315-.32.578-1.05.74-1.635.1-.263.414-.727.73-.941.734-.524 2.621-.476 2.993-.476 0 .213.054.424.054.63v4.885h-.58v-4.885c-.472 0-1.363 0-1.996.37-.26.154-.576.58-.737 1.003-.153.573-.263 1.149-.678 1.575-.37.415-.898.415-1.364.524-.685.202-1 .31-1.474 1.365v.048l-.948.05zm-1.465-.05v-4.885c0-1.466.74-2.831 1.89-3.675v-.048c.838-.581 1.786-1.156 2.784-1.53.992.424 1.888.9 2.73 1.53.836.68 1.473 1.52 1.734 2.569h-.107c-.419.052-2.518-.05-3.308.476-.37.214-.632.678-.735.94-.159.584-.422 1.312-.685 1.632-.416.365-.94.365-1.416.528a2.05 2.05 0 0 0-1.472 1.313 3.091 3.091 0 0 1-.154.365v-1.414c.263-.427.73-.74 1.204-.85.474-.15 1.05-.15 1.422-.523.263-.265.524-1.1.731-1.625.056-.261.37-.737.685-.943.787-.525 2.624-.474 2.99-.474a4.208 4.208 0 0 0-.89-1.261c-.737-.577-1.737-1.264-2.729-1.626-.998.362-1.946 1.049-2.785 1.677a3.999 3.999 0 0 0-1.26 2.939v4.885h-.629zm-2.626 0v-.261c.214 0 .474.1.678.1.21 0 .687-.363.787-.524a.299.299 0 0 0 0-.313c-.1-.104-.577-.94-.363-1 .102 0 .474-.052.422-.201-.059-.264-.474-.212-.526-.427-.11-.313.367-.946.526-1.048.052.214.104.475.154.625h.05c.111-.203.111-.411.06-.68.262 0 .575.579.575.79v.265c-.162.152-.162.31-.21.572 0 .476.312 1.578.048 1.84a1.105 1.105 0 0 1-.414.262h-1.787zm-1.526 0c0-.1.054-.16.163-.16.468-.101.678 0 .891.16h-1.054zm-4.3 0v-.16c.364.112.888.32 1.103 0 .048-.101.152-.258.152-.414-.053-.948-.943-1.576-.789-2.576.111-.626.637-.58.846-.89.154-.16.102-.683.05-.947.528.102.677.787 1.102 1.052.052 0 .052-.104.052-.163.051-.574.372-.727.525-1.152-.153-.1-.677-.208-.736-.421-.103-.263.32-1.152.371-1.47.051-.16-.05-.312 0-.524.051-.16.212-.16.415-.16.161-.26.058-.627-.203-.838.261-.21.466-.476.73-.686.06.11.262.319.32.476.102.42.051-.266.153-.417.21.313.576.94.474 1.315-.05.203-.627.522-.789.574-.099.054-.21 0-.26.1-.162.214-.162.636-.214.95.424.052.79.052.84.525.058.052.158.052.265.102.37.16.422 1 .107 1.26.051.163.101.316.101.477-.05.15-.1.258-.1.363.05.474 1.311 1.049 1.15-.105-.05-.42-.734-.943-.626-1.208a.573.573 0 0 1 .365-.154c.636-.258.683-.367.84-.683.156-.314.26.316.423.365.363.107.1-.417.157-.525 0-.261.63-.63.891-.68.05.212.102.526.102.68.06.108.262-.53.372-.53.213.477.054 1.373-.576 1.477-.322.05-.583-.052-.899.05-.21 0-.414.214-.627.265 0 .37.367.472.417.835.06.213-.05.426-.104.638.215.677.215 1.049-.837.836-.159-.048-.209-.1-.372-.048 0 .152 1 .524 1.21.676.163.16.423.685.163.95-.32.26-1.735.42-2.157.1-.207-.1-.418-1.252-.469-1.514-.058 0-.162-.11-.162-.164v-.263c-.05-.048-.21-.157-.21-.212-.212-.734-.314-1.362-.154-2.047.103-.154.103-.365 0-.206-1.16 1.519.995 3.465.628 5.09h-.738c.11-.736-.153-1.26-.364-1.784-.05-.365-.11-.79-.262-1.102-.109-.211-.37-.365-.637-.424-1.573-.261-.414 1.898-.2 2.362.098.264.312.584.363.9v.049h-2.203z" fill-rule="evenodd"/><path d="M407.983 63.43c.156.053.729-.475.68-.58-.211.06-.367-.313-.628-.467-.161-.11-.313-.06-.524.05-.054 0-.315-.16-.374 0 0 .053-.202.367-.202.477-.061 0-.061.045.048.1.052.05.265.103.528.212.1.103.313.26.472.209m-.159-.261s-.102-.057-.161-.11c-.052-.15.109-.21.211-.15.109.045.265.15.265.15-.104.053-.215.162-.315.11m1.1.576c.213 0 .313-.161.263-.315.211-.106.263-.318.161-.521-.111-.06.211.15.313-.06.102-.154.052-.205.102-.263-.261-.101-.365-.313-.576-.153 0-.051 0-.371-.05-.371-.052 0-.889.058-1.102 0-.474 0-.578-.051-.474.107.837-.05.735.417 1.102.526.109.053.211 0 .261.053 0 .16-.104.312-.261.42-.052.105-.415.528-.739.416-.152.112.059.474.372.263.211-.102.265.21.628-.102m-3.465-10.347c.425.372.789.633 1.156.996.633.11 1.107-.263 1.733-.211.159 0 .364.11.526.21-.054.112 0 .112-.102.165-.211-.053-.374-.164-.633-.164-.528.052-.789.213-1.365.213.1.213.261.365.363.528 0 .1 0 .157.059.259.052.054 1.516.102 1.728.102.161.059.263 0 .372-.048.102-.578.313-1.054.628-1.365.159-.16.211-.213.261-.367l-4.726-.318zm-4.726 3.993c-.159.055-.422.157-.575.105.049.21.153.422.049.576 0 .05-.099.26-.049.26.472.053.68-.625.575-.941m11.45-1.784c0 .414.206 1.315.418 1.676-.153.108-.315.108-.526.163l-.211-.58c-.314.056-.575.154-.841.206l.112.583c-.213 0-.528.052-.785.052l-.062-.526v-.052a5.068 5.068 0 0 1-1.255 0l-.055.578c-.266 0-.471-.052-.73-.052l.048-.635c-.261 0-.524-.098-.785-.212l-.263.638c-.213-.055-.313-.055-.474-.163.161-.361.363-1.202.422-1.676.991.26 3.939.316 4.987 0m-10.087 5.406c.317-.315.688-.68 1.264-.841.364-.1.89 0 1.211-.207.203-.057.203-.473.103-.632-.052-.053.05-.103.05-.103.372.05 0 .366.211.465.213-.258.839-1.31.686-1.777 0-.263-.212-.37-.371-.527-.526-.734-1.263-1.31-1.364-2.308-.263.052-.313.31-.526.413-.103.11-.16.059-.103-.102.206-.363.366-.474.891-.422.948.059 1.787.163 2.726.583.109 0 .061-.37-.048-.42-.476-.478-2.839-1.265-3.203-1.004-.366.263-.423.374-.477.638-.047.15-.26.366-.313.466-.362.846 1.154 2.472 1.526 3.098.1.11.415.372.263.473-.525.266-1.736-.05-2.102-.524-.312-.262-.684.162-.784.577-.739-.053-1.162.159-1.529.525.367.31 1.155.477 1.629.58-.052.369 0 .786.26 1.049m-4.351-4.147c.261-.107.467-.21.887-.21v-.525c-.574-.05-.887.152-.887.735m4.616-2.21c0-.098.261-.732.261-.732-.998-.263-2.251-.945-3.253-1.89-.048-.051-.159.208-.211.263-.102.108-.159.108-.261.21.159.266 1.211 1.052 1.414 1.154.162.109.847.583 2.05.996m-2.627 2.315c.052-.106.161-.213.052-.315-.206-.263-.465.15-.465-.21.152-.053.362-.105.465-.164.161 0 .211.262.265.374.156.265-.206.15-.104.524 0 .21 0 .21.161.265.05 0 .05-.055.152-.11.051-.053.314 0 .424-.053.154 0 .102-.263.313-.211.051 0 .102.109.211.16.154 0 .263-.051.474 0 0-.26.054-.687-.32-.784 0-.165.109-.054.109-.213.052-.214-.161-.417-.161-.58.052-.207.161-.311.161-.47-.109-.416-.576-.154-.841-.213-.259-.102-.522-.678-.896-.626-.261.048 0 .212-.261.626-.104.163-.263-.052-.152-.152.259-.163-.111-.526.152-.69.578-.148.898.375 1.157.639.156.1.367 0 .578 0 .211.05.263.262.416.366.212 0 .321-.215.423-.315 0 0 .103-.051.049 0-.414 0-2.727-1.31-2.988-1.89-.052.525.152.89-.211 1.2-.159.114-.213-.047-.365-.1-.211.364-.163.627-.163 1.156-.311 0-.47.208-.834.262.21.42.523.573 1.149.573.161.524-.1 1.16.637 1.05.1.11.202.266.362.32.103.055 0-.32.051-.42m.84-.523a1.132 1.132 0 0 1-.203-.317c.415-.11.677.052.576.472 0-.155-.317-.107-.373-.155m-1.153-.525c-.313 0-.313-.164-.474-.368.211 0 .422-.107.526 0 .313.417.163.263-.052.368m.474-.53c-.05-.207 0-.421.052-.624 0-.058.313 0 .26.15-.473.688 0 .316.316.636 0 0 .21.263.051.204-.101-.048-.627-.263-.679-.365m1.052-.102a.109.109 0 0 1-.052.204c0-.048 0-.204.052-.204m16.226-.787c1.048-.111 2.991-1.107 3.303-2.263-.151-.047-.263-.1-.526-.36-.573.94-1.94 1.573-2.938 1.888.101.212.161.413.161.735m2.515 2.36c.161-.057.161-.106.262-.057 0 .114.162.264.214.425.049.315.101.364.261.05.161-.361-.052-.68-.212-.89.16-.11.423-.262.263-.634-.051-.152-.151-.152-.263-.311-.049-.054-.049-.262-.101-.313-.109-.215-.476-.478-.898-.366-.154.05-.415.203-.624.203-.104-.052-.267-.152-.369-.152-.785 0-1.259.152-1.048.315l.052-.052c.261.052.261.103.472.26.052.05.417.05.265.153-.113 0-.265.059-.374.059-.211-.06-.787-.583-.678.052-.109.104-.161.152-.109.316.052.098.263.312.424.26.048 0 .211-.162.261-.26.263-.164.576-.105.837 0 .104 0 .315.098.367.158.161-.06.322-.158.524-.06.059 0 .111.06.111.06.052 0 .415-.06.625-.06-.101.06-.21.06-.21.06-.415.202-.363.367-.626.415-.263.049-.315-.102-.424-.154-.263-.107-.891-.261-.993-.16l-.109.1c.211.112.526.166.687.263.315.263.211.427.678.32-.052.155-.102.155-.208.207-.155.109.369.109.469 0 .059 0 .163.21.163.374 0 .367.311-.055.311-.58m1.262-.107c.266-.214.423-.476.365-1 .16.059.16.109.264.213.26-.417.056-1.052-.206-1.414.262-.264.576.473.576.262 0-.637-.474-1.261-1.102-1.422-.058-.265-.261-.84-.32-.625-.154.625-2.204 1.732-2.413 1.673-.052-.052 0 .059 0 .112l.107.099c.68-.1 1.415-.211 2.104-.1v-.263c-.112-.211-.375-.37-.161-.524.049-.054.101-.11.209.05.416.474.942 1.472.213 1.998.102.154.203.263.261.417.103.213 0 .31.103.524m-5.512-1.573c-.528.632-1.104 1.417-1.628 2.097-.109.108-.263.265-.313.424-.108.21-.057.415 0 .626.05.314.204.577.313.838.05.162.105.32.152.425.213.369.163-.686.323-.578l.049.106c-.049.156-.159.57 0 .84.104.108.317.108.576.157.216.05.528-.05.685.05.317.11.63.527.843.789.415-.051.574-.262.675-.528.06-.1-.049-.21 0-.26.214-.155.897-.1 1.21-.264.367-.101.367-.101.163-.416-.265-.321-.637-.524-1.261-.524 0-.212-.263-.524-.637-.686-.052 0-.993.686-1.415.628 0 0-.311 0-.472-.104-.416-.101.109-.734.313-.993.322-.367 1.472-1.682 1.263-2.365a5.606 5.606 0 0 0-.416-1.204c-.11-.161-.423-.161-.584-.213-.891-.21-1.94-.107-2.779.213-.787.26-.948.728-2.21.787.211-.424.899-.787 1.472-.787.315-.113-.471-.846 0-1.161.212-.153.475-.261.629-.524.262-.474.109.574.059.738l.05.1v-.051c0 .109.314 0 .416-.05.057 0 .16-.474.321-.628.727-.426.68.73.94.842.11.049.263.049.372.049.154 0-.161-1.154-.632-1.628-.368.154-.738.31-1.103.366-.052-.154-.161-.524-.423-.415-.206.1-.261.26-.467.415-.475.262-1.159.682-.899 1.573-.416-.1-1.049.476-1.151.84-.109.21-.422.582-.159.738.37.207 1.209.107 1.576 0 .209 0 .524-.054.735-.104.104-.052.159-.11.314-.158.736-.366 2.1-.417 2.835-.266.367.11.739.215.739.635 0 .052-.051 0-.051.1-.06-.1-.266-.624-.423-.47m-8.301 6.614l-.05.058.05.049c.263.105 1.737.053 2.05-.05h.05c-.05-.156-.05-.156-.1-.37v-.052c-.63.053-1.263.053-1.889 0h-.052c0 .162-.059.313-.059.365m4.152-4.67c-.102.052-.102.468 0 .578.049.106.158.106.158.263.051.363.155.836.103 1.2-.787.11-.84.525-.943.738l-.108-.101c.162-.315.475-.636.79-.735.158-.104 0-.526-.367-.367-.212-.261-.474-.474-.634-.633-.103-.052-.103 0-.103.21-.05 0-.159-.051-.159-.16 0-.204.109-.102.109-.365-.052-.102-.474-.42-.633-.366-.154.055-.154.316-.104.527.052.052.052.102.052.102.052.052.052.102.109.16.05.153.415.366.791.626-.113.104-.165.266-.215.318-.315.209-.998-.318-1.363-.214-.109.058.102.582.152.633h-.104c-.108-.106-.313-.838-.422-1.312-.05-.313-.15-.05-.363-.211.104-.313.261-.365-.052-.683-.109-.104-.372-.365-.422-.265-.161.319-.161.583-.104.74.054.106.526.788.467 1.156 0 .104-.202.05-.261.104-.263.099-.467.365-.526.623h-.415c-.107 0 .313-.415.213-.524-.061 0-.32-.1-.161-.203.161-.11.363.05.363-.263.111-.16.059-.685-.05-.685a.794.794 0 0 0-.313.16c-.104.05-.474.366-.526.467-.104.263 0 .524-.052.79 0 .106-.052.317-.052.37-.159.158-.105.365 0 .474.206.15.526.208.791.315.1.102.1.573.202.678 0 .056.374.056.526.108.372.052 1.109 0 1.474-.052.05 0 .1.104.159.104.417.266.941.21 1.102.266.415.157.415.099.838.157h.524c1.154.102 1.577-.737 1.314-1.736-.05-.156-.05-.314-.16-.426 0-.047-.102-.152-.154-.152-.577 0-.159.529-.21.998 0 .316-.102.472-.264.683h-.103c.315-.735.206-1.316-.055-1.53.158-.098.473-.361.37-.414-.109-.156-.212-.156-.212-.208-.051-.162 0-.104-.103-.266 0-.05-.055-.05-.108-.16-.051-.313.053-.626-.153-.574 0 0-.109 0-.058-.154l.058-.211c.153-.316-.263-.424-.633-.578m8.399-6.197c.052.262.213.474.525.739.373.26.475.57.788.784.314.154.526-.421.424-.573.21.049.414.1.576-.06.263-.317.21-.576.103-.89h-2.416zm-4.562 0c.362.314.573.685 1.049.95.05.1.152.26.361.313.528.21.737.047 1.161-.264.052.103.152.154.265.31-.689.689-1.213.477-1.737.164 0 0-.948-.788-.889-.632.152.786.676 1.26 1.313 1.573.05.052.152.164.261.164.263 0 .576-.112.787-.213.152-.052 2.253-1.154 1.939-1.626-.209-.318-.363-.524-.472-.79l-.787.05c.109.263.261.526.474.74-.161.102-.261.312-.474.047-.263-.213-.474-.472-.789-.687-.05-.05-.102-.05-.211-.1h-2.251zm-1.579 0v.158h-3.31s.262.415.737.628h3.151v-.786h-.578zm-5.775 0c-.474.573-.898.84-1.157 1.05.055.052.055.16.159.213.313.414 1.365-.842 1.678-1.164.581.586 1.157 1.054 1.898 1.424.048 0-.267.475-.324.524-1.102-.311-1.628-.11-2.515.055.676-.366 1.05-.688 1.201-.95-.205-.262-.26-.366-.364-.467-.576.68-1.211 1.05-2.309 1.628l4.249.265h.11c.101 0 .94-1.105.891-1.315-.053-.161-.682-.422-.841-.477-.365-.158-.735-.472-1.1-.786h-1.576zm-2.889 0v.786h1.261c.471.055.943-.365 1.154-.786h-.889c-.161.099-.424.158-.896.158v-.158h-.63zm-5.149 0v.158c0 .263-.413.58-.261.792 1.101 1.048 1.998 1.464 3.1 1.834.313.105.787.105 1.099-.524.162-.322.162-.524.263-.846.052-.203.263-.363.373-.573.051-.102-.321-.156-.321-.156-.205 0-.315.156-.466.265-.375.36-.526.727-1.05.94-.058.048-.162.108-.213.108-.108 0-.839-.422-.998-.525-.212-.163-.263-.21-.161-.523.685.152 1.159.727 1.838 0 .11-.06.162-.211.209-.265.054-.057.163-.057.214-.112.213-.1.364-.358.526-.474.049 0 .101-.05.158-.1h-1.786c0 .159-.05.367-.162.216-.101-.057-.209-.166-.312-.215h-1.051c-.103.158-.103.42-.159.573-.203.426-.466.166-.314-.048.111-.16.161-.31.213-.525h-.739zm-3.302 0c.052.573.467.999.991.95-.263.415-.626.836-.626 1.516 0 .16.05.423.05.633.211-.472.474-.576.841-.84.681-.473 1.209-1.157.944-2.26h-2.2zm44.088-6.271c0-2.274-1.792-3.864-3.993-3.864-2.214 0-4.073 1.59-4.073 3.864 0 2.067 1.86 3.792 4.137 3.792 2.35 0 3.93-1.792 3.93-3.792m-3.994-2.616c1.513 0 2.345.958 2.345 2.412 0 1.38-.832 2.68-2.345 2.68-1.522 0-2.415-1.031-2.415-2.476 0-1.382.965-2.616 2.415-2.616m-5.73 4.406a2.862 2.862 0 0 1-1.725.554c-1.311 0-2.271-.9-2.271-2.281 0-1.445.96-2.68 2.482-2.68.692 0 1.38.342 2.005.613 0 .079.134.079.134.079l.276-.281-.553-1.102-.072-.208c-.132-.136-.82-.414-1.723-.414-2.69 0-4.202 1.655-4.202 3.794-.071 2.345 1.789 3.793 3.924 3.793.62 0 1.246-.068 1.869-.211l.204-.276V46.66l-.348-.21zm15.514-5.172c-.198-.205-.963-.547-1.787-.547-1.656.064-2.692.965-2.624 2.96v2.758c0 .42.078 1.11-.269 1.248l-.144.207v.07l.212.198h1.924l.281-.199v-.069l-.202-.207c-.345-.139-.278-.694-.278-1.248v-2.68c0-.97.199-1.805 1.514-1.805.552.08 1.373.281 1.373 1.378v3.182c0 .345 0 1.034-.343 1.173l-.131.207v.07l.276.198h1.992l.212-.199-.212-.276c-.267-.07-.2-.694-.2-1.173V42.66c0-.479-.144-1.104.345-1.238l.067-.209v-.067l-.212-.213h-1.513l-.281.213v.134zm5.245 1.379c0-.613-.067-.96.489-1.306l.067-.141v-.067l-.21-.276h-1.857l-.216.276v.067l.146.141c.343.202.414.346.414 1.033v4.276c0 .558 0 .757-.414 1.037l-.146.207v.069l.216.199h1.586l.134-.199 3.662-4.629v3.249c0 .625 0 .824-.426 1.104l-.131.207v.069l.277.199h1.859l.209-.199v-.069l-.145-.207c-.342-.213-.411-.347-.411-.903v-5.998l-.343-.209c-.757.28-.968.487-1.446 1.11l-3.314 4.139v-3.179zm9.732-.272c0-.62 0-.688.41-1.033l.134-.141v-.067l-.199-.276h-2.073l-.275.276v.067l.201.209c.342.133.21.623.21 1.104l.066 4.48h-.619c-.48 0-.757-.07-1.102-.343l-.203-.136-.278.345.345 1.236.278.21.203-.143h4.483l.41.144.21-.343-.344-1.246-.276-.203-.203.203c-.21.276-.345.276-.69.276h-.688v-4.62zm6.686-.139c.069-.347 0-.481.477-.894l.145-.208-.278-.276h-2.07l-.21.276.145.208c.278.2.278.547.278 1.103v1.58L464.8 46.73c-.342.556-.622.899-.895.968l.144.477h.955c.214 0 .767 0 1.035-.546l1.378-2.211.97 1.518c.278.35.345.693 0 .762l-.134.208v.07l.278.199h1.79l.133-.343-2.48-3.795v-1.79zm55.305.489h.144l.203-.28-.481-1.38-.276-.209h-4.202l-.213.276v.067l.079.211c.41.133.343.692.343 1.168v3.935c0 .203.136 1.034-.28 1.173l-.208.208v.068l.279.201h1.999l.203-.2v-.069l-.137-.208c-.412-.139-.277-.694-.277-1.173v-4.277l1.179-.134c1.032-.069 1.51.544 1.645.623m-8.197 3.858c0 .477.067.89-.343 1.104l-.146.207v.069l.28.199h1.999l.2-.2v-.068l-.2-.207c-.348-.071-.278-.762-.278-1.173v-3.937c.067-.543-.07-1.034.278-1.166l.2-.211-.267-.343h-1.932l-.28.343.146.21c.41.133.343.624.343 1.103v4.07zm-25.518-1.933c0-2.274-1.8-3.864-4.07-3.864-2.137 0-4.006 1.59-4.006 3.864 0 2.067 1.869 3.792 4.14 3.792 2.347 0 3.936-1.792 3.936-3.792m-4.006-2.616c1.517 0 2.348.958 2.348 2.412 0 1.38-.831 2.68-2.348 2.68-1.511 0-2.41-1.031-2.41-2.476 0-1.382.966-2.616 2.41-2.616m-5.584 4.48c-.487.27-1.102.546-1.79.546-1.245 0-2.213-.888-2.213-2.266 0-1.46.968-2.692 2.415-2.692.756 0 1.446.272 2.065.624 0 0 .072 0 .149.063l.267-.276-.548-1.102-.065-.21c-.21-.137-.834-.415-1.724-.415-2.693 0-4.282 1.588-4.282 3.795 0 2.343 1.865 3.792 3.936 3.792.688 0 1.303-.065 1.926-.278l.209-.2v-1.178l-.345-.203zm32.895-.074c-.48.343-1.035.554-1.79.554-1.245 0-2.204-.9-2.204-2.281 0-1.445.959-2.68 2.483-2.68.685 0 1.377.342 2.002.613 0 .079.132.079.132.079l.278-.281-.558-1.102-.065-.208c-.137-.136-.825-.414-1.728-.414-2.688 0-4.202 1.655-4.202 3.794-.067 2.345 1.791 3.793 3.861 3.793a8.45 8.45 0 0 0 1.932-.211l.201-.276V46.66l-.343-.21zm-17.375-5.099c-.21-.208-.968-.556-1.792-.62-1.66.136-2.76.967-2.625 2.96v2.834c0 .408.064 1.102-.343 1.172l-.136.276.267.277h1.936l.278-.277-.211-.276c-.343-.07-.276-.693-.276-1.172v-2.692c0-.97.142-1.789 1.522-1.789.546 0 1.38.267 1.38 1.377v3.104c0 .408.07 1.102-.28 1.172l-.21.276.21.277h2.003l.277-.277-.143-.276c-.343-.07-.343-.693-.343-1.172v-3.868c0-.412-.07-1.103.343-1.236l.143-.211-.277-.279h-1.524l-.2.212v.208zm5.104 1.384c0-.623-.074-1.038.414-1.315l.135-.21-.204-.28h-1.87l-.199.28.135.21c.345.201.345.345.345.965v4.274c0 .623.067.824-.345 1.1l-.135.213.2.277h1.59l.134-.21 3.661-4.619v3.24c0 .622 0 .823-.415 1.1l-.143.212.277.277 1.792-.076.28-.2-.134-.214c-.345-.276-.489-.343-.489-.89v-6.003l-.28-.28c-.754.344-1.037.556-1.446 1.111l-3.304 4.14v-3.102zm-65.174 13.646c0-2.824-2.346-4.96-5.17-4.96-2.76 0-5.107 2.002-5.107 4.896 0 2.69 2.347 4.891 5.308 4.827 2.968 0 4.969-2.206 4.969-4.763m-8.277 0c0-1.725 1.236-3.515 3.17-3.515 1.927 0 3.106 1.378 3.106 3.24 0 1.8-1.102 3.588-3.106 3.588-1.934 0-3.17-1.444-3.17-3.313m36.342 0c0-2.824-2.343-4.96-5.172-4.96-2.758 0-5.105 2.002-5.105 4.896 0 2.69 2.28 4.891 5.24 4.827 2.97 0 5.037-2.206 5.037-4.763m-8.274 0c0-1.725 1.168-3.515 3.17-3.515 1.867 0 3.104 1.378 3.104 3.24 0 1.8-1.17 3.588-3.172 3.588-1.934 0-3.102-1.444-3.102-3.313m-16.422-4.273l.214-.208-.279-.28h-2.692l-.202.28 3.651 4.693-1.925 2.824c-.21.412-.623.901-1.033 1.037l.064.477h1.591c.48 0 .611-.134.825-.41l1.791-2.548 1.246 1.72c.276.412.481.69-.067.761l-.28.21.28.344 2.48-.077.2-.41-2.96-3.794 2.271-3.447c.69-1.04 1.178-1.172 1.313-1.172l-.067-.489h-1.59c-.48 0-.756.147-1.034.49l-2.139 3.173-1.789-2.348c-.135-.277-.412-.694.131-.826m10.625 0l.213-.208-.345-.28h-2.625l-.202.28.202.208c.553.132.488 1.45.488 1.45v5.24c-.074 1.031.065 1.446-.488 1.656l-.135.21.345.267h4.684l.21.077.279-.21v-1.59l-.278-.2c-.134 0-.211 0-.276.064-.206.213-.548.414-1.102.414-.481 0-.9 0-1.38-.069v-2.067h1.587c.203 0 .203.067.416.067l.273-.2v-1.455l-.342-.202-.213.134c-.134.068-.276.21-.755.21h-.966V53.56c0-1.035-.07-1.103.41-1.45m21.868 6.41c0-1.3-1.033-2.27-1.933-2.478l1.791-2.27c.902-1.035 1.721-1.53 2.212-1.663l-.278-.489h-.966c-.479 0-1.245-.129-1.859.622l-2.972 3.941.134.477c1.035.28 2.07.623 2.07 1.725 0 .688-.413 1.167-1.38 1.248-.343.063-.547 0-.757-.144V53.56c.067-.968 0-1.17.414-1.45l.211-.208-.278-.282h-2.618l-.209.282.134.207c.422.133.422.483.491 1.451v5.24c0 1.101 0 1.446-.49 1.655l-.066.275.207.202h3.241c1.935.08 2.966-1.03 2.901-2.413m43.719-.069c0-1.23-1.035-2.2-1.924-2.477l1.79-2.202c.822-1.034 1.653-1.53 2.134-1.729l-.2-.422-.966-.064c-.49.065-1.246-.064-1.936.686l-2.893 3.866.068.489c1.101.275 2.133.686 2.133 1.72 0 .692-.477 1.171-1.378 1.235a.873.873 0 0 1-.755-.134v-5.927c0-.967 0-1.179.41-1.449l.211-.14-.28-.347-2.62.066-.205.28.137.141c.343.2.41.482.487 1.45v5.24c0 1.168 0 1.443-.487 1.654l-.137.28.28.202h3.168c2.003.064 3.038-1.038 2.963-2.418m-34.339-2.266c0 2.825-1.936 3.584-4.284 3.236v-6.342c2.147-.34 4.217.615 4.284 3.105m-6.554 4.202l-.144.345.144.201h3.384c1.376.08 5.168-.546 5.235-4.549 0-2.689-2.065-4.763-5.314-4.763h-3.305l-.207.347.14.144c.411.202.478.415.478 1.66v5.03c0 1.1.067 1.446-.41 1.585m15.995-1.311l-.41-.064c-.48.345-1.034.687-1.935.687-.758 0-1.45-.209-1.512-.966 0-1.659 4.693-1.512 4.693-4.353 0-1.443-1.456-2.956-3.87-2.956-.823 0-1.726.07-2.48.411l-.204.134-.42 1.658.42.28c.757-.694 1.724-1.039 2.76-1.039.824 0 1.648.279 1.724 1.105.067 1.934-4.626 1.445-4.626 4.629 0 1.786 1.79 2.61 3.659 2.545.623 0 1.312-.067 2.069-.278l.202-.2-.07-1.594zm4.694-3.101V53.56c0-.968.069-1.319.412-1.45l.28-.209-.28-.28h-2.623l-.202.28.135.208c.409.203.409.416.488 1.451v5.171c0 1.17-.08 1.655-.555 1.724l-.068.275.202.202h2.623l.21-.202-.076-.275c-.477-.21-.546-.555-.546-1.657v-1.445h4.415v1.445c-.074 1.102.067 1.377-.486 1.657l-.132.275.199.202h2.556l.278-.202v-.275c-.556-.21-.62-.555-.556-1.657V53.56c-.064-1.035.07-1.248.412-1.45l.276-.209-.41-.346-2.48.065-.342.281.266.208c.345.28.419.416.419 1.382v2.413l-4.415.07zm9.446 2.894c0 1.112-.07 1.454-.48 1.519l-.143.28.276.345 2.484-.08.276-.265-.204-.21c-.34-.21-.419-.477-.419-1.656v-5.24c0-.821 0-1.171.42-1.45l.27-.207-.343-.283h-2.55l-.277.283.21.208c.346.132.41.482.48 1.45v5.306zm17.042-5.789c.753-.142 1.51.067 2.203.692l.21.135.2-.345-.624-1.792-.203-.149h-5.582l-.278.283.202.208c.347.132.421.415.49 1.45v5.24c-.069 1.1 0 1.307-.557 1.656l-.065.21v.064l.208.28 4.684-.079.278.08.28-.28-.07-1.52-.21-.2-.21.063c-.414.345-.48.345-1.449.414l-1.034-.069v-2.067h1.593l.343.067.278-.2v-1.455l-.21-.204h-.133l-.146.065c-.34.35-.34.28-1.033.28h-.692v-2.76l1.526-.067z" fill-rule="evenodd"/></g></svg>